font.ufo
<glyph name="exclam" format="1">
  <advance width="251"/>
  <unicode hex="0021"/>
  <outline>
    <contour>
      <point x="87" y="204" type="line"/>
      <point x="164" y="204" type="line"/>
      <point x="164" y="674" type="line"/>
      <point x="87" y="674" type="line"/>
    </contour>
    <contour>
      <point x="65" y="51" type="curve" smooth="yes"/>
      <point x="65" y="17"/>
      <point x="90" y="-8"/>
      <point x="124" y="-8" type="curve" smooth="yes"/>
      <point x="158" y="-8"/>
      <point x="184" y="17"/>
      <point x="184" y="51" type="curve" smooth="yes"/>
      <point x="184" y="83"/>
      <point x="158" y="110"/>
      <point x="124" y="110" type="curve" smooth="yes"/>
      <point x="90" y="110"/>
      <point x="65" y="83"/>
    </contour>
  </outline>
</glyph>
<glyph name="quotedbl" format="1">
  <advance width="295"/>
  <unicode hex="0022"/>
  <outline>
    <contour>
      <point x="44" y="444" type="line"/>
      <point x="115" y="444" type="line"/>
      <point x="115" y="681" type="line"/>
      <point x="44" y="681" type="line"/>
    </contour>
    <contour>
      <point x="181" y="444" type="line"/>
      <point x="251" y="444" type="line"/>
      <point x="251" y="681" type="line"/>
      <point x="181" y="681" type="line"/>
    </contour>
  </outline>
</glyph>
<glyph name="numbersign" format="1">
  <advance width="710"/>
  <unicode hex="0023"/>
  <outline>
    <contour>
      <point x="107" y="439" type="line"/>
      <point x="657" y="439" type="line"/>
      <point x="657" y="503" type="line"/>
      <point x="107" y="503" type="line"/>
    </contour>
    <contour>
      <point x="376" y="0" type="line"/>
      <point x="449" y="0" type="line"/>
      <point x="590" y="674" type="line"/>
      <point x="519" y="674" type="line"/>
    </contour>
    <contour>
      <point x="126" y="0" type="line"/>
      <point x="197" y="0" type="line"/>
      <point x="340" y="674" type="line"/>
      <point x="268" y="674" type="line"/>
    </contour>
    <contour>
      <point x="53" y="170" type="line"/>
      <point x="605" y="170" type="line"/>
      <point x="605" y="233" type="line"/>
      <point x="53" y="233" type="line"/>
    </contour>
  </outline>
</glyph>
<glyph name="dollar" format="1">
  <advance width="505"/>
  <unicode hex="0024"/>
  <outline>
    <contour>
      <point x="315" y="645" type="line"/>
      <point x="315" y="783" type="line"/>
      <point x="246" y="783" type="line"/>
      <point x="246" y="645" type="line"/>
    </contour>
    <contour>
      <point x="195" y="39" type="line"/>
      <point x="195" y="-109" type="line"/>
      <point x="264" y="-109" type="line"/>
      <point x="264" y="39" type="line"/>
    </contour>
    <contour>
      <point x="417" y="649" type="line"/>
      <point x="374" y="671"/>
      <point x="318" y="680"/>
      <point x="269" y="680" type="curve" smooth="yes"/>
      <point x="150" y="680"/>
      <point x="53" y="615"/>
      <point x="53" y="497" type="curve" smooth="yes"/>
      <point x="53" y="390"/>
      <point x="133" y="347"/>
      <point x="212" y="312" type="curve" smooth="yes"/>
      <point x="293" y="277"/>
      <point x="370" y="250"/>
      <point x="370" y="177" type="curve" smooth="yes"/>
      <point x="370" y="106"/>
      <point x="317" y="68"/>
      <point x="234" y="68" type="curve" smooth="yes"/>
      <point x="168" y="68"/>
      <point x="100" y="90"/>
      <point x="56" y="123" type="curve"/>
      <point x="56" y="36" type="line"/>
      <point x="104" y="8"/>
      <point x="172" y="-7"/>
      <point x="236" y="-7" type="curve" smooth="yes"/>
      <point x="359" y="-7"/>
      <point x="454" y="57"/>
      <point x="454" y="179" type="curve" smooth="yes"/>
      <point x="454" y="289"/>
      <point x="370" y="332"/>
      <point x="288" y="368" type="curve" smooth="yes"/>
      <point x="212" y="401"/>
      <point x="139" y="429"/>
      <point x="139" y="501" type="curve" smooth="yes"/>
      <point x="139" y="562"/>
      <point x="189" y="604"/>
      <point x="272" y="604" type="curve" smooth="yes"/>
      <point x="323" y="604"/>
      <point x="382" y="587"/>
      <point x="417" y="564" type="curve"/>
    </contour>
  </outline>
</glyph>
<glyph name="percent" format="1">
  <advance width="847"/>
  <unicode hex="0025"/>
  <outline>
    <contour>
      <point x="206" y="-1" type="line"/>
      <point x="281" y="-1" type="line"/>
      <point x="640" y="665" type="line"/>
      <point x="563" y="665" type="line"/>
    </contour>
    <contour>
      <point x="482" y="151" type="curve" smooth="yes"/>
      <point x="482" y="64"/>
      <point x="552" y="-7"/>
      <point x="640" y="-7" type="curve" smooth="yes"/>
      <point x="727" y="-7"/>
      <point x="798" y="64"/>
      <point x="798" y="151" type="curve" smooth="yes"/>
      <point x="798" y="238"/>
      <point x="727" y="310"/>
      <point x="640" y="310" type="curve" smooth="yes"/>
      <point x="552" y="310"/>
      <point x="482" y="238"/>
    </contour>
    <contour>
      <point x="49" y="515" type="curve" smooth="yes"/>
      <point x="49" y="427"/>
      <point x="120" y="356"/>
      <point x="207" y="356" type="curve" smooth="yes"/>
      <point x="294" y="356"/>
      <point x="366" y="427"/>
      <point x="366" y="515" type="curve" smooth="yes"/>
      <point x="366" y="601"/>
      <point x="294" y="673"/>
      <point x="207" y="673" type="curve" smooth="yes"/>
      <point x="120" y="673"/>
      <point x="49" y="601"/>
    </contour>
    <contour>
      <point x="118" y="515" type="curve" smooth="yes"/>
      <point x="118" y="564"/>
      <point x="158" y="604"/>
      <point x="207" y="604" type="curve" smooth="yes"/>
      <point x="257" y="604"/>
      <point x="297" y="564"/>
      <point x="297" y="515" type="curve" smooth="yes"/>
      <point x="297" y="465"/>
      <point x="257" y="425"/>
      <point x="207" y="425" type="curve" smooth="yes"/>
      <point x="158" y="425"/>
      <point x="118" y="465"/>
    </contour>
    <contour>
      <point x="550" y="151" type="curve" smooth="yes"/>
      <point x="550" y="201"/>
      <point x="591" y="241"/>
      <point x="640" y="241" type="curve" smooth="yes"/>
      <point x="690" y="241"/>
      <point x="730" y="201"/>
      <point x="730" y="151" type="curve" smooth="yes"/>
      <point x="730" y="102"/>
      <point x="690" y="62"/>
      <point x="640" y="62" type="curve" smooth="yes"/>
      <point x="591" y="62"/>
      <point x="550" y="102"/>
    </contour>
  </outline>
</glyph>
<glyph name="ampersand" format="1">
  <advance width="703"/>
  <unicode hex="0026"/>
  <outline>
    <contour>
      <point x="701" y="0" type="line"/>
      <point x="551" y="139"/>
      <point x="326" y="350"/>
      <point x="326" y="350" type="curve"/>
      <point x="241" y="434"/>
      <point x="214" y="473"/>
      <point x="214" y="522" type="curve" smooth="yes"/>
      <point x="214" y="584"/>
      <point x="260" y="618"/>
      <point x="318" y="618" type="curve" smooth="yes"/>
      <point x="392" y="618"/>
      <point x="427" y="570"/>
      <point x="427" y="516" type="curve" smooth="yes"/>
      <point x="427" y="458"/>
      <point x="385" y="417"/>
      <point x="291" y="374" type="curve"/>
      <point x="344" y="326" type="line"/>
      <point x="467" y="381"/>
      <point x="508" y="443"/>
      <point x="508" y="517" type="curve" smooth="yes"/>
      <point x="508" y="614"/>
      <point x="434" y="690"/>
      <point x="319" y="690" type="curve" smooth="yes"/>
      <point x="206" y="690"/>
      <point x="132" y="623"/>
      <point x="132" y="523" type="curve" smooth="yes"/>
      <point x="132" y="447"/>
      <point x="181" y="390"/>
      <point x="266" y="305" type="curve"/>
      <point x="266" y="305"/>
      <point x="464" y="122"/>
      <point x="594" y="0" type="curve"/>
    </contour>
    <contour>
      <point x="235" y="354" type="line"/>
      <point x="126" y="314"/>
      <point x="65" y="261"/>
      <point x="65" y="176" type="curve" smooth="yes"/>
      <point x="65" y="69"/>
      <point x="165" y="-8"/>
      <point x="317" y="-8" type="curve" smooth="yes"/>
      <point x="506" y="-8"/>
      <point x="610" y="113"/>
      <point x="622" y="268" type="curve"/>
      <point x="546" y="268" type="line"/>
      <point x="536" y="134"/>
      <point x="439" y="65"/>
      <point x="315" y="65" type="curve" smooth="yes"/>
      <point x="218" y="65"/>
      <point x="147" y="108"/>
      <point x="147" y="177" type="curve" smooth="yes"/>
      <point x="147" y="238"/>
      <point x="200" y="273"/>
      <point x="293" y="306" type="curve"/>
    </contour>
  </outline>
</glyph>
<glyph name="quotesingle" format="1">
  <advance width="159"/>
  <unicode hex="0027"/>
  <outline>
    <contour>
      <point x="44" y="444" type="line"/>
      <point x="115" y="444" type="line"/>
      <point x="115" y="681" type="line"/>
      <point x="44" y="681" type="line"/>
    </contour>
  </outline>
</glyph>
<glyph name="parenleft" format="1">
  <advance width="310"/>
  <unicode hex="0028"/>
  <outline>
    <contour>
      <point x="225" y="707" type="curve"/>
      <point x="312" y="707" type="line"/>
      <point x="207" y="565"/>
      <point x="155" y="413"/>
      <point x="155" y="257" type="curve" smooth="yes"/>
      <point x="155" y="106"/>
      <point x="211" y="-55"/>
      <point x="320" y="-196" type="curve"/>
      <point x="232" y="-196" type="line"/>
      <point x="126" y="-61"/>
      <point x="72" y="99"/>
      <point x="72" y="261" type="curve" smooth="yes"/>
      <point x="72" y="427"/>
      <point x="132" y="587"/>
    </contour>
  </outline>
</glyph>
<glyph name="parenright" format="1">
  <advance width="310"/>
  <unicode hex="0029"/>
  <outline>
    <contour>
      <point x="86" y="707" type="curve"/>
      <point x="-2" y="707" type="line"/>
      <point x="104" y="565"/>
      <point x="155" y="413"/>
      <point x="155" y="257" type="curve" smooth="yes"/>
      <point x="155" y="106"/>
      <point x="99" y="-55"/>
      <point x="-10" y="-196" type="curve"/>
      <point x="78" y="-196" type="line"/>
      <point x="184" y="-61"/>
      <point x="239" y="99"/>
      <point x="239" y="261" type="curve" smooth="yes"/>
      <point x="239" y="427"/>
      <point x="179" y="587"/>
    </contour>
  </outline>
</glyph>
<glyph name="asterisk" format="1">
  <advance width="408"/>
  <unicode hex="002A"/>
  <outline>
    <contour>
      <point x="171" y="578" type="line"/>
      <point x="171" y="532"/>
      <point x="193" y="512"/>
      <point x="204" y="501" type="curve"/>
      <point x="215" y="512"/>
      <point x="235" y="533"/>
      <point x="235" y="578" type="curve" smooth="yes"/>
      <point x="235" y="674" type="line"/>
      <point x="171" y="674" type="line"/>
    </contour>
    <contour>
      <point x="120" y="493" type="line"/>
      <point x="134" y="488"/>
      <point x="145" y="487"/>
      <point x="156" y="487" type="curve" smooth="yes"/>
      <point x="178" y="487"/>
      <point x="194" y="496"/>
      <point x="204" y="501" type="curve"/>
      <point x="196" y="514"/>
      <point x="183" y="540"/>
      <point x="141" y="555" type="curve" smooth="yes"/>
      <point x="48" y="585" type="line"/>
      <point x="29" y="523" type="line"/>
    </contour>
    <contour>
      <point x="185" y="419" type="line"/>
      <point x="201" y="441"/>
      <point x="206" y="460"/>
      <point x="206" y="478" type="curve" smooth="yes"/>
      <point x="206" y="492"/>
      <point x="204" y="496"/>
      <point x="204" y="501" type="curve"/>
      <point x="179" y="498"/>
      <point x="154" y="487"/>
      <point x="133" y="458" type="curve" smooth="yes"/>
      <point x="76" y="379" type="line"/>
      <point x="128" y="342" type="line"/>
    </contour>
    <contour>
      <point x="275" y="458" type="line"/>
      <point x="251" y="492"/>
      <point x="223" y="498"/>
      <point x="204" y="501" type="curve"/>
      <point x="203" y="497"/>
      <point x="201" y="493"/>
      <point x="201" y="481" type="curve" smooth="yes"/>
      <point x="201" y="464"/>
      <point x="206" y="443"/>
      <point x="223" y="420" type="curve" smooth="yes"/>
      <point x="280" y="342" type="line"/>
      <point x="331" y="380" type="line"/>
    </contour>
    <contour>
      <point x="266" y="556" type="line"/>
      <point x="224" y="543"/>
      <point x="211" y="515"/>
      <point x="204" y="501" type="curve"/>
      <point x="212" y="496"/>
      <point x="228" y="488"/>
      <point x="250" y="488" type="curve" smooth="yes"/>
      <point x="260" y="488"/>
      <point x="273" y="489"/>
      <point x="286" y="494" type="curve" smooth="yes"/>
      <point x="378" y="524" type="line"/>
      <point x="358" y="585" type="line"/>
    </contour>
  </outline>
</glyph>
<glyph name="plus" format="1">
  <advance width="553"/>
  <unicode hex="002B"/>
  <outline>
    <contour>
      <point x="57" y="304" type="line"/>
      <point x="497" y="304" type="line"/>
      <point x="497" y="376" type="line"/>
      <point x="57" y="376" type="line"/>
    </contour>
    <contour>
      <point x="310" y="115" type="line"/>
      <point x="310" y="565" type="line"/>
      <point x="236" y="565" type="line"/>
      <point x="236" y="115" type="line"/>
    </contour>
  </outline>
</glyph>
<glyph name="comma" format="1">
  <advance width="225"/>
  <unicode hex="002C"/>
  <outline>
    <contour>
      <point x="-8" y="-123" type="line"/>
      <point x="61" y="-123" type="line"/>
      <point x="190" y="101" type="line"/>
      <point x="85" y="101" type="line"/>
    </contour>
  </outline>
</glyph>
<glyph name="hyphen" format="1">
  <advance width="348"/>
  <unicode hex="002D"/>
  <outline>
    <contour>
      <point x="57" y="234" type="line"/>
      <point x="291" y="234" type="line"/>
      <point x="291" y="303" type="line"/>
      <point x="57" y="303" type="line"/>
    </contour>
  </outline>
</glyph>
<glyph name="period" format="1">
  <advance width="166"/>
  <unicode hex="002E"/>
  <outline>
    <contour>
      <point x="24" y="51" type="curve" smooth="yes"/>
      <point x="24" y="18"/>
      <point x="50" y="-8"/>
      <point x="83" y="-8" type="curve" smooth="yes"/>
      <point x="116" y="-8"/>
      <point x="142" y="18"/>
      <point x="142" y="51" type="curve" smooth="yes"/>
      <point x="142" y="84"/>
      <point x="116" y="110"/>
      <point x="83" y="110" type="curve" smooth="yes"/>
      <point x="50" y="110"/>
      <point x="24" y="84"/>
    </contour>
  </outline>
</glyph>
<glyph name="slash" format="1">
  <advance width="403"/>
  <unicode hex="002F"/>
  <outline>
    <contour>
      <point x="-9" y="-102" type="line"/>
      <point x="71" y="-102" type="line"/>
      <point x="436" y="707" type="line"/>
      <point x="355" y="707" type="line"/>
    </contour>
  </outline>
</glyph>
<glyph name="zero" format="1">
  <advance width="544"/>
  <unicode hex="0030"/>
  <outline>
    <contour>
      <point x="43" y="329" type="curve" smooth="yes"/>
      <point x="43" y="126"/>
      <point x="132" y="-8"/>
      <point x="270" y="-8" type="curve" smooth="yes"/>
      <point x="421" y="-8"/>
      <point x="501" y="131"/>
      <point x="501" y="329" type="curve" smooth="yes"/>
      <point x="501" y="536"/>
      <point x="410" y="662"/>
      <point x="270" y="662" type="curve" smooth="yes"/>
      <point x="135" y="662"/>
      <point x="43" y="536"/>
    </contour>
    <contour>
      <point x="124" y="329" type="curve" smooth="yes"/>
      <point x="124" y="503"/>
      <point x="196" y="587"/>
      <point x="270" y="587" type="curve" smooth="yes"/>
      <point x="352" y="587"/>
      <point x="420" y="503"/>
      <point x="420" y="329" type="curve" smooth="yes"/>
      <point x="420" y="158"/>
      <point x="360" y="67"/>
      <point x="270" y="67" type="curve" smooth="yes"/>
      <point x="191" y="67"/>
      <point x="124" y="158"/>
    </contour>
  </outline>
</glyph>
<glyph name="one" format="1">
  <advance width="323"/>
  <unicode hex="0031"/>
  <outline>
    <contour>
      <point x="18" y="475" type="line"/>
      <point x="169" y="568" type="line"/>
      <point x="169" y="0" type="line"/>
      <point x="247" y="0" type="line"/>
      <point x="247" y="654" type="line"/>
      <point x="173" y="654" type="line"/>
      <point x="18" y="560" type="line"/>
    </contour>
  </outline>
</glyph>
<glyph name="two" format="1">
  <advance width="494"/>
  <unicode hex="0032"/>
  <outline>
    <contour>
      <point x="78" y="18" type="line"/>
      <point x="283" y="163"/>
      <point x="430" y="320"/>
      <point x="430" y="465" type="curve" smooth="yes"/>
      <point x="430" y="597"/>
      <point x="332" y="661"/>
      <point x="222" y="661" type="curve" smooth="yes"/>
      <point x="166" y="661"/>
      <point x="103" y="640"/>
      <point x="59" y="606" type="curve"/>
      <point x="59" y="527" type="line"/>
      <point x="106" y="563"/>
      <point x="166" y="586"/>
      <point x="215" y="586" type="curve" smooth="yes"/>
      <point x="295" y="586"/>
      <point x="348" y="542"/>
      <point x="348" y="457" type="curve" smooth="yes"/>
      <point x="348" y="330"/>
      <point x="188" y="180"/>
      <point x="38" y="67" type="curve"/>
    </contour>
    <contour>
      <point x="38" y="0" type="line"/>
      <point x="451" y="0" type="line"/>
      <point x="451" y="69" type="line"/>
      <point x="451" y="69"/>
      <point x="210" y="69"/>
      <point x="117" y="69" type="curve" smooth="yes"/>
      <point x="38" y="67" type="line"/>
    </contour>
  </outline>
</glyph>
<glyph name="three" format="1">
  <advance width="466"/>
  <unicode hex="0033"/>
  <outline>
    <contour>
      <point x="181" y="365" type="line"/>
      <point x="252" y="365"/>
      <point x="314" y="407"/>
      <point x="314" y="481" type="curve" smooth="yes"/>
      <point x="314" y="554"/>
      <point x="265" y="588"/>
      <point x="190" y="588" type="curve" smooth="yes"/>
      <point x="144" y="588"/>
      <point x="92" y="569"/>
      <point x="58" y="547" type="curve"/>
      <point x="58" y="624" type="line"/>
      <point x="86" y="642"/>
      <point x="140" y="661"/>
      <point x="192" y="661" type="curve" smooth="yes"/>
      <point x="328" y="661"/>
      <point x="396" y="580"/>
      <point x="396" y="489" type="curve" smooth="yes"/>
      <point x="396" y="405"/>
      <point x="346" y="335"/>
      <point x="240" y="317" type="curve"/>
      <point x="241" y="337" type="line"/>
      <point x="341" y="336"/>
      <point x="415" y="278"/>
      <point x="415" y="180" type="curve" smooth="yes"/>
      <point x="415" y="78"/>
      <point x="342" y="-6"/>
      <point x="201" y="-6" type="curve" smooth="yes"/>
      <point x="149" y="-6"/>
      <point x="82" y="6"/>
      <point x="38" y="27" type="curve"/>
      <point x="38" y="106" type="line"/>
      <point x="87" y="80"/>
      <point x="141" y="67"/>
      <point x="199" y="67" type="curve" smooth="yes"/>
      <point x="286" y="67"/>
      <point x="334" y="118"/>
      <point x="334" y="186" type="curve" smooth="yes"/>
      <point x="334" y="257"/>
      <point x="279" y="296"/>
      <point x="181" y="296" type="curve"/>
    </contour>
    <contour>
      <point x="238" y="296" type="line"/>
      <point x="139" y="296" type="line"/>
      <point x="139" y="365" type="line"/>
      <point x="238" y="365" type="line"/>
    </contour>
  </outline>
</glyph>
<glyph name="four" format="1">
  <advance width="540"/>
  <unicode hex="0034"/>
  <outline>
    <contour>
      <point x="42" y="228" type="line"/>
      <point x="516" y="228" type="line"/>
      <point x="516" y="159" type="line"/>
      <point x="42" y="159" type="line"/>
    </contour>
    <contour>
      <point x="291" y="654" type="line"/>
      <point x="368" y="654" type="line"/>
      <point x="122" y="228" type="line"/>
      <point x="42" y="228" type="line"/>
    </contour>
    <contour>
      <point x="341" y="654" type="line"/>
      <point x="419" y="654" type="line"/>
      <point x="419" y="0" type="line"/>
      <point x="341" y="0" type="line"/>
    </contour>
  </outline>
</glyph>
<glyph name="five" format="1">
  <advance width="509"/>
  <unicode hex="0035"/>
  <outline>
    <contour>
      <point x="91" y="292" type="curve"/>
      <point x="91" y="363" type="line"/>
      <point x="142" y="385"/>
      <point x="198" y="399"/>
      <point x="247" y="399" type="curve" smooth="yes"/>
      <point x="380" y="399"/>
      <point x="464" y="323"/>
      <point x="464" y="204" type="curve" smooth="yes"/>
      <point x="464" y="76"/>
      <point x="375" y="-8"/>
      <point x="227" y="-8" type="curve" smooth="yes"/>
      <point x="172" y="-8"/>
      <point x="108" y="2"/>
      <point x="59" y="26" type="curve"/>
      <point x="59" y="104" type="line"/>
      <point x="98" y="81"/>
      <point x="161" y="66"/>
      <point x="214" y="66" type="curve" smooth="yes"/>
      <point x="323" y="66"/>
      <point x="382" y="112"/>
      <point x="382" y="207" type="curve" smooth="yes"/>
      <point x="382" y="286"/>
      <point x="322" y="327"/>
      <point x="242" y="327" type="curve" smooth="yes"/>
      <point x="186" y="327"/>
      <point x="131" y="310"/>
    </contour>
    <contour>
      <point x="419" y="585" type="line"/>
      <point x="91" y="585" type="line"/>
      <point x="91" y="654" type="line"/>
      <point x="419" y="654" type="line"/>
    </contour>
    <contour>
      <point x="91" y="611" type="line"/>
      <point x="169" y="611" type="line"/>
      <point x="169" y="348" type="line"/>
      <point x="91" y="348" type="line"/>
    </contour>
  </outline>
</glyph>
<glyph name="six" format="1">
  <advance width="526"/>
  <unicode hex="0036"/>
  <outline>
    <contour>
      <point x="107" y="316" type="line"/>
      <point x="143" y="379"/>
      <point x="221" y="421"/>
      <point x="297" y="421" type="curve" smooth="yes"/>
      <point x="418" y="421"/>
      <point x="490" y="337"/>
      <point x="490" y="213" type="curve" smooth="yes"/>
      <point x="490" y="80"/>
      <point x="408" y="-11"/>
      <point x="284" y="-11" type="curve" smooth="yes"/>
      <point x="130" y="-11"/>
      <point x="52" y="120"/>
      <point x="52" y="296" type="curve" smooth="yes"/>
      <point x="52" y="505"/>
      <point x="159" y="673"/>
      <point x="352" y="673" type="curve" smooth="yes"/>
      <point x="388" y="673"/>
      <point x="416" y="667"/>
      <point x="444" y="658" type="curve"/>
      <point x="444" y="581" type="line"/>
      <point x="417" y="593"/>
      <point x="387" y="600"/>
      <point x="353" y="600" type="curve" smooth="yes"/>
      <point x="202" y="600"/>
      <point x="131" y="449"/>
      <point x="131" y="296" type="curve" smooth="yes"/>
      <point x="131" y="136"/>
      <point x="197" y="62"/>
      <point x="284" y="62" type="curve" smooth="yes"/>
      <point x="361" y="62"/>
      <point x="408" y="125"/>
      <point x="408" y="214" type="curve" smooth="yes"/>
      <point x="408" y="298"/>
      <point x="358" y="350"/>
      <point x="287" y="350" type="curve" smooth="yes"/>
      <point x="208" y="350"/>
      <point x="141" y="300"/>
      <point x="108" y="246" type="curve"/>
    </contour>
  </outline>
</glyph>
<glyph name="seven" format="1">
  <advance width="451"/>
  <unicode hex="0037"/>
  <outline>
    <contour>
      <point x="168" y="0" type="line"/>
      <point x="84" y="0" type="line"/>
      <point x="355" y="585" type="line"/>
      <point x="439" y="585" type="line"/>
    </contour>
    <contour>
      <point x="439" y="585" type="line"/>
      <point x="12" y="585" type="line"/>
      <point x="12" y="654" type="line"/>
      <point x="439" y="654" type="line"/>
    </contour>
  </outline>
</glyph>
<glyph name="eight" format="1">
  <advance width="536"/>
  <unicode hex="0038"/>
  <outline>
    <contour>
      <point x="62" y="477" type="curve" smooth="yes"/>
      <point x="62" y="374"/>
      <point x="144" y="310"/>
      <point x="264" y="310" type="curve" smooth="yes"/>
      <point x="386" y="310"/>
      <point x="469" y="377"/>
      <point x="469" y="476" type="curve" smooth="yes"/>
      <point x="469" y="603"/>
      <point x="368" y="661"/>
      <point x="264" y="661" type="curve" smooth="yes"/>
      <point x="162" y="661"/>
      <point x="62" y="599"/>
    </contour>
    <contour>
      <point x="264" y="591" type="curve" smooth="yes"/>
      <point x="349" y="591"/>
      <point x="389" y="539"/>
      <point x="389" y="479" type="curve" smooth="yes"/>
      <point x="389" y="403"/>
      <point x="336" y="363"/>
      <point x="268" y="363" type="curve" smooth="yes"/>
      <point x="199" y="363"/>
      <point x="142" y="398"/>
      <point x="142" y="478" type="curve" smooth="yes"/>
      <point x="142" y="538"/>
      <point x="186" y="591"/>
    </contour>
    <contour>
      <point x="51" y="165" type="curve" smooth="yes"/>
      <point x="51" y="57"/>
      <point x="146" y="-8"/>
      <point x="264" y="-8" type="curve" smooth="yes"/>
      <point x="387" y="-8"/>
      <point x="485" y="60"/>
      <point x="485" y="170" type="curve" smooth="yes"/>
      <point x="485" y="291"/>
      <point x="388" y="341"/>
      <point x="264" y="341" type="curve" smooth="yes"/>
      <point x="143" y="341"/>
      <point x="51" y="279"/>
    </contour>
    <contour>
      <point x="265" y="290" type="curve"/>
      <point x="364" y="291"/>
      <point x="404" y="235"/>
      <point x="404" y="177" type="curve" smooth="yes"/>
      <point x="404" y="117"/>
      <point x="360" y="62"/>
      <point x="265" y="62" type="curve" smooth="yes"/>
      <point x="175" y="62"/>
      <point x="131" y="112"/>
      <point x="131" y="169" type="curve" smooth="yes"/>
      <point x="131" y="231"/>
      <point x="170" y="289"/>
    </contour>
  </outline>
</glyph>
<glyph name="nine" format="1">
  <advance width="504"/>
  <unicode hex="0039"/>
  <outline>
    <contour>
      <point x="407" y="405" type="curve"/>
      <point x="408" y="335" type="line"/>
      <point x="369" y="264"/>
      <point x="321" y="234"/>
      <point x="232" y="234" type="curve" smooth="yes"/>
      <point x="130" y="234"/>
      <point x="36" y="314"/>
      <point x="36" y="447" type="curve" smooth="yes"/>
      <point x="36" y="567"/>
      <point x="111" y="662"/>
      <point x="241" y="662" type="curve" smooth="yes"/>
      <point x="396" y="662"/>
      <point x="462" y="528"/>
      <point x="462" y="373" type="curve" smooth="yes"/>
      <point x="462" y="144"/>
      <point x="372" y="-8"/>
      <point x="177" y="-8" type="curve" smooth="yes"/>
      <point x="135" y="-8"/>
      <point x="99" y="-1"/>
      <point x="64" y="11" type="curve"/>
      <point x="64" y="89" type="line"/>
      <point x="98" y="74"/>
      <point x="134" y="66"/>
      <point x="174" y="66" type="curve" smooth="yes"/>
      <point x="324" y="66"/>
      <point x="384" y="182"/>
      <point x="384" y="373" type="curve" smooth="yes"/>
      <point x="384" y="487"/>
      <point x="349" y="589"/>
      <point x="243" y="589" type="curve" smooth="yes"/>
      <point x="167" y="589"/>
      <point x="118" y="535"/>
      <point x="118" y="447" type="curve" smooth="yes"/>
      <point x="118" y="354"/>
      <point x="171" y="304"/>
      <point x="252" y="304" type="curve" smooth="yes"/>
      <point x="331" y="304"/>
      <point x="382" y="352"/>
    </contour>
  </outline>
</glyph>
<glyph name="colon" format="1">
  <advance width="235"/>
  <unicode hex="003A"/>
  <outline>
    <contour>
      <point x="59" y="380" type="curve" smooth="yes"/>
      <point x="59" y="346"/>
      <point x="84" y="322"/>
      <point x="117" y="322" type="curve" smooth="yes"/>
      <point x="150" y="322"/>
      <point x="176" y="346"/>
      <point x="176" y="380" type="curve" smooth="yes"/>
      <point x="176" y="412"/>
      <point x="150" y="438"/>
      <point x="117" y="438" type="curve" smooth="yes"/>
      <point x="84" y="438"/>
      <point x="59" y="412"/>
    </contour>
    <contour>
      <point x="59" y="57" type="curve" smooth="yes"/>
      <point x="59" y="24"/>
      <point x="84" y="-1"/>
      <point x="117" y="-1" type="curve" smooth="yes"/>
      <point x="150" y="-1"/>
      <point x="176" y="24"/>
      <point x="176" y="57" type="curve" smooth="yes"/>
      <point x="176" y="90"/>
      <point x="150" y="116"/>
      <point x="117" y="116" type="curve" smooth="yes"/>
      <point x="84" y="116"/>
      <point x="59" y="90"/>
    </contour>
  </outline>
</glyph>
<glyph name="semicolon" format="1">
  <advance width="225"/>
  <unicode hex="003B"/>
  <outline>
    <contour>
      <point x="70" y="379" type="curve" smooth="yes"/>
      <point x="70" y="346"/>
      <point x="95" y="321"/>
      <point x="128" y="321" type="curve" smooth="yes"/>
      <point x="161" y="321"/>
      <point x="187" y="346"/>
      <point x="187" y="379" type="curve" smooth="yes"/>
      <point x="187" y="411"/>
      <point x="161" y="437"/>
      <point x="128" y="437" type="curve" smooth="yes"/>
      <point x="95" y="437"/>
      <point x="70" y="411"/>
    </contour>
    <contour>
      <point x="-8" y="-123" type="line"/>
      <point x="61" y="-123" type="line"/>
      <point x="190" y="101" type="line"/>
      <point x="85" y="101" type="line"/>
    </contour>
  </outline>
</glyph>
<glyph name="less" format="1">
  <advance width="527"/>
  <unicode hex="003C"/>
  <outline>
    <contour>
      <point x="57" y="303" type="line"/>
      <point x="478" y="114" type="line"/>
      <point x="478" y="196" type="line"/>
      <point x="478" y="196"/>
      <point x="216" y="304"/>
      <point x="140" y="342" type="curve"/>
      <point x="214" y="377"/>
      <point x="478" y="486"/>
      <point x="478" y="486" type="curve"/>
      <point x="478" y="567" type="line"/>
      <point x="57" y="379" type="line"/>
    </contour>
  </outline>
</glyph>
<glyph name="equal" format="1">
  <advance width="553"/>
  <unicode hex="003D"/>
  <outline>
    <contour>
      <point x="57" y="407" type="line"/>
      <point x="497" y="407" type="line"/>
      <point x="497" y="475" type="line"/>
      <point x="57" y="475" type="line"/>
    </contour>
    <contour>
      <point x="57" y="205" type="line"/>
      <point x="497" y="205" type="line"/>
      <point x="497" y="274" type="line"/>
      <point x="57" y="274" type="line"/>
    </contour>
  </outline>
</glyph>
<glyph name="greater" format="1">
  <advance width="527"/>
  <unicode hex="003E"/>
  <outline>
    <contour>
      <point x="470" y="379" type="line"/>
      <point x="49" y="567" type="line"/>
      <point x="49" y="486" type="line"/>
      <point x="49" y="486"/>
      <point x="312" y="377"/>
      <point x="386" y="342" type="curve"/>
      <point x="311" y="304"/>
      <point x="49" y="196"/>
      <point x="49" y="196" type="curve"/>
      <point x="49" y="114" type="line"/>
      <point x="470" y="303" type="line"/>
    </contour>
  </outline>
</glyph>
<glyph name="question" format="1">
  <advance width="452"/>
  <unicode hex="003F"/>
  <outline>
    <contour>
      <point x="45" y="561" type="line"/>
      <point x="100" y="596"/>
      <point x="150" y="611"/>
      <point x="201" y="611" type="curve" smooth="yes"/>
      <point x="292" y="611"/>
      <point x="332" y="560"/>
      <point x="332" y="496" type="curve" smooth="yes"/>
      <point x="332" y="410"/>
      <point x="259" y="370"/>
      <point x="140" y="370" type="curve"/>
      <point x="141" y="204" type="line"/>
      <point x="217" y="204" type="line"/>
      <point x="218" y="313" type="line"/>
      <point x="309" y="321"/>
      <point x="414" y="376"/>
      <point x="414" y="499" type="curve" smooth="yes"/>
      <point x="414" y="616"/>
      <point x="330" y="682"/>
      <point x="205" y="682" type="curve" smooth="yes"/>
      <point x="141" y="682"/>
      <point x="80" y="663"/>
      <point x="45" y="641" type="curve"/>
    </contour>
    <contour>
      <point x="119" y="51" type="curve" smooth="yes"/>
      <point x="119" y="17"/>
      <point x="144" y="-8"/>
      <point x="177" y="-8" type="curve" smooth="yes"/>
      <point x="211" y="-8"/>
      <point x="238" y="17"/>
      <point x="238" y="51" type="curve" smooth="yes"/>
      <point x="238" y="83"/>
      <point x="211" y="110"/>
      <point x="177" y="110" type="curve" smooth="yes"/>
      <point x="144" y="110"/>
      <point x="119" y="83"/>
    </contour>
  </outline>
</glyph>
<glyph name="at" format="1">
  <advance width="905"/>
  <unicode hex="0040"/>
  <outline>
    <contour>
      <point x="572" y="410" type="curve"/>
      <point x="638" y="410" type="line"/>
      <point x="623" y="272" type="line" smooth="yes"/>
      <point x="620" y="232"/>
      <point x="619" y="205"/>
      <point x="619" y="186" type="curve" smooth="yes"/>
      <point x="619" y="123"/>
      <point x="635" y="85"/>
      <point x="685" y="85" type="curve" smooth="yes"/>
      <point x="742" y="85"/>
      <point x="788" y="155"/>
      <point x="788" y="259" type="curve" smooth="yes"/>
      <point x="788" y="447"/>
      <point x="655" y="546"/>
      <point x="489" y="546" type="curve" smooth="yes"/>
      <point x="301" y="546"/>
      <point x="136" y="399"/>
      <point x="136" y="196" type="curve" smooth="yes"/>
      <point x="136" y="-4"/>
      <point x="272" y="-100"/>
      <point x="416" y="-100" type="curve" smooth="yes"/>
      <point x="475" y="-100"/>
      <point x="536" y="-89"/>
      <point x="594" y="-57" type="curve"/>
      <point x="590" y="-134" type="line"/>
      <point x="537" y="-161"/>
      <point x="467" y="-168"/>
      <point x="414" y="-168" type="curve" smooth="yes"/>
      <point x="192" y="-168"/>
      <point x="60" y="-11"/>
      <point x="60" y="196" type="curve" smooth="yes"/>
      <point x="60" y="438"/>
      <point x="255" y="613"/>
      <point x="491" y="613" type="curve" smooth="yes"/>
      <point x="690" y="613"/>
      <point x="858" y="480"/>
      <point x="858" y="264" type="curve" smooth="yes"/>
      <point x="858" y="100"/>
      <point x="764" y="21"/>
      <point x="681" y="21" type="curve" smooth="yes"/>
      <point x="567" y="21"/>
      <point x="556" y="123"/>
      <point x="556" y="165" type="curve" smooth="yes"/>
      <point x="556" y="224"/>
      <point x="565" y="290"/>
    </contour>
    <contour>
      <point x="596" y="273" type="curve"/>
      <point x="562" y="223" type="line"/>
      <point x="556" y="301"/>
      <point x="526" y="349"/>
      <point x="452" y="349" type="curve" smooth="yes"/>
      <point x="381" y="349"/>
      <point x="332" y="281"/>
      <point x="332" y="198" type="curve" smooth="yes"/>
      <point x="332" y="128"/>
      <point x="372" y="83"/>
      <point x="429" y="83" type="curve" smooth="yes"/>
      <point x="484" y="83"/>
      <point x="543" y="126"/>
      <point x="561" y="206" type="curve"/>
      <point x="584" y="151" type="line"/>
      <point x="555" y="70"/>
      <point x="496" y="18"/>
      <point x="416" y="18" type="curve" smooth="yes"/>
      <point x="315" y="18"/>
      <point x="257" y="100"/>
      <point x="257" y="202" type="curve" smooth="yes"/>
      <point x="257" y="321"/>
      <point x="340" y="415"/>
      <point x="450" y="415" type="curve" smooth="yes"/>
      <point x="535" y="415"/>
      <point x="579" y="360"/>
    </contour>
  </outline>
</glyph>
<glyph name="A" format="1">
  <advance width="648"/>
  <unicode hex="0041"/>
  <outline>
    <contour>
      <point x="35" y="0" type="line"/>
      <point x="122" y="0" type="line"/>
      <point x="218" y="284" type="line" smooth="yes"/>
      <point x="314" y="567"/>
      <point x="326" y="609"/>
      <point x="326" y="609" type="curve"/>
      <point x="326" y="609"/>
      <point x="337" y="567"/>
      <point x="431" y="285" type="curve" smooth="yes"/>
      <point x="526" y="0" type="line"/>
      <point x="613" y="0" type="line"/>
      <point x="382" y="674" type="line"/>
      <point x="270" y="674" type="line"/>
    </contour>
    <contour>
      <point x="148" y="177" type="line"/>
      <point x="500" y="177" type="line"/>
      <point x="500" y="246" type="line"/>
      <point x="148" y="246" type="line"/>
    </contour>
  </outline>
</glyph>
<glyph name="B" format="1">
  <advance width="571"/>
  <unicode hex="0042"/>
  <outline>
    <contour>
      <point x="509" y="497" type="curve" smooth="yes"/>
      <point x="509" y="606"/>
      <point x="418" y="674"/>
      <point x="280" y="674" type="curve" smooth="yes"/>
      <point x="77" y="674" type="line"/>
      <point x="77" y="605" type="line"/>
      <point x="280" y="605" type="line" smooth="yes"/>
      <point x="381" y="605"/>
      <point x="425" y="555"/>
      <point x="425" y="497" type="curve" smooth="yes"/>
      <point x="425" y="431"/>
      <point x="381" y="375"/>
      <point x="266" y="375" type="curve" smooth="yes"/>
      <point x="77" y="375" type="line"/>
      <point x="77" y="306" type="line"/>
      <point x="296" y="306" type="line" smooth="yes"/>
      <point x="392" y="306"/>
      <point x="444" y="261"/>
      <point x="444" y="185" type="curve" smooth="yes"/>
      <point x="444" y="109"/>
      <point x="395" y="69"/>
      <point x="311" y="69" type="curve"/>
      <point x="77" y="69" type="line"/>
      <point x="77" y="0" type="line"/>
      <point x="323" y="0" type="line" smooth="yes"/>
      <point x="458" y="0"/>
      <point x="528" y="76"/>
      <point x="528" y="180" type="curve" smooth="yes"/>
      <point x="528" y="282"/>
      <point x="460" y="332"/>
      <point x="393" y="343" type="curve"/>
      <point x="460" y="358"/>
      <point x="509" y="418"/>
    </contour>
    <contour>
      <point x="77" y="0" type="line"/>
      <point x="158" y="0" type="line"/>
      <point x="158" y="674" type="line"/>
      <point x="77" y="674" type="line"/>
    </contour>
  </outline>
</glyph>
<glyph name="C" format="1">
  <advance width="602"/>
  <unicode hex="0043"/>
  <outline>
    <contour>
      <point x="133" y="340" type="curve" smooth="yes"/>
      <point x="133" y="173"/>
      <point x="239" y="68"/>
      <point x="396" y="68" type="curve" smooth="yes"/>
      <point x="459" y="68"/>
      <point x="520" y="89"/>
      <point x="560" y="119" type="curve"/>
      <point x="560" y="34" type="line"/>
      <point x="517" y="5"/>
      <point x="451" y="-8"/>
      <point x="390" y="-8" type="curve" smooth="yes"/>
      <point x="191" y="-8"/>
      <point x="48" y="122"/>
      <point x="48" y="340" type="curve" smooth="yes"/>
      <point x="48" y="546"/>
      <point x="196" y="683"/>
      <point x="387" y="683" type="curve" smooth="yes"/>
      <point x="454" y="683"/>
      <point x="510" y="673"/>
      <point x="558" y="647" type="curve"/>
      <point x="558" y="564" type="line"/>
      <point x="506" y="592"/>
      <point x="469" y="607"/>
      <point x="387" y="607" type="curve" smooth="yes"/>
      <point x="245" y="607"/>
      <point x="133" y="502"/>
    </contour>
  </outline>
</glyph>
<glyph name="D" format="1">
  <advance width="661"/>
  <unicode hex="0044"/>
  <outline>
    <contour>
      <point x="77" y="0" type="line"/>
      <point x="159" y="0" type="line"/>
      <point x="159" y="674" type="line"/>
      <point x="77" y="674" type="line"/>
    </contour>
    <contour>
      <point x="281" y="0" type="line"/>
      <point x="503" y="0"/>
      <point x="617" y="158"/>
      <point x="617" y="342" type="curve" smooth="yes"/>
      <point x="617" y="539"/>
      <point x="475" y="674"/>
      <point x="277" y="674" type="curve"/>
      <point x="77" y="674" type="line"/>
      <point x="77" y="602" type="line"/>
      <point x="276" y="602" type="line"/>
      <point x="432" y="602"/>
      <point x="533" y="485"/>
      <point x="533" y="342" type="curve" smooth="yes"/>
      <point x="533" y="200"/>
      <point x="457" y="71"/>
      <point x="280" y="71" type="curve"/>
      <point x="77" y="71" type="line"/>
      <point x="77" y="0" type="line"/>
    </contour>
  </outline>
</glyph>
<glyph name="E" format="1">
  <advance width="501"/>
  <unicode hex="0045"/>
  <outline>
    <contour>
      <point x="95" y="0" type="line"/>
      <point x="453" y="0" type="line"/>
      <point x="453" y="71" type="line"/>
      <point x="95" y="71" type="line"/>
    </contour>
    <contour>
      <point x="77" y="0" type="line"/>
      <point x="158" y="0" type="line"/>
      <point x="158" y="674" type="line"/>
      <point x="77" y="674" type="line"/>
    </contour>
    <contour>
      <point x="95" y="301" type="line"/>
      <point x="414" y="301" type="line"/>
      <point x="414" y="372" type="line"/>
      <point x="95" y="372" type="line"/>
    </contour>
    <contour>
      <point x="95" y="603" type="line"/>
      <point x="448" y="603" type="line"/>
      <point x="448" y="674" type="line"/>
      <point x="95" y="674" type="line"/>
    </contour>
  </outline>
</glyph>
<glyph name="F" format="1">
  <advance width="489"/>
  <unicode hex="0046"/>
  <outline>
    <contour>
      <point x="77" y="0" type="line"/>
      <point x="158" y="0" type="line"/>
      <point x="158" y="674" type="line"/>
      <point x="77" y="674" type="line"/>
    </contour>
    <contour>
      <point x="95" y="293" type="line"/>
      <point x="412" y="293" type="line"/>
      <point x="412" y="364" type="line"/>
      <point x="95" y="364" type="line"/>
    </contour>
    <contour>
      <point x="95" y="603" type="line"/>
      <point x="447" y="603" type="line"/>
      <point x="447" y="674" type="line"/>
      <point x="95" y="674" type="line"/>
    </contour>
  </outline>
</glyph>
<glyph name="H" format="1">
  <advance width="643"/>
  <unicode hex="0048"/>
  <outline>
    <contour>
      <point x="129" y="305" type="line"/>
      <point x="513" y="305" type="line"/>
      <point x="513" y="378" type="line"/>
      <point x="129" y="378" type="line"/>
    </contour>
    <contour>
      <point x="485" y="0" type="line"/>
      <point x="566" y="0" type="line"/>
      <point x="566" y="674" type="line"/>
      <point x="485" y="674" type="line"/>
    </contour>
    <contour>
      <point x="77" y="0" type="line"/>
      <point x="158" y="0" type="line"/>
      <point x="158" y="674" type="line"/>
      <point x="77" y="674" type="line"/>
    </contour>
  </outline>
</glyph>
<glyph name="I" format="1">
  <advance width="247"/>
  <unicode hex="0049"/>
  <outline>
    <contour>
      <point x="83" y="0" type="line"/>
      <point x="164" y="0" type="line"/>
      <point x="164" y="674" type="line"/>
      <point x="83" y="674" type="line"/>
    </contour>
  </outline>
</glyph>
<glyph name="J" format="1">
  <advance width="358"/>
  <unicode hex="004A"/>
  <outline>
    <contour>
      <point x="30" y="22" type="line"/>
      <point x="55" y="8"/>
      <point x="95" y="0"/>
      <point x="125" y="0" type="curve" smooth="yes"/>
      <point x="212" y="0"/>
      <point x="282" y="42"/>
      <point x="282" y="173" type="curve"/>
      <point x="282" y="674" type="line"/>
      <point x="201" y="674" type="line"/>
      <point x="201" y="166" type="line" smooth="yes"/>
      <point x="201" y="103"/>
      <point x="171" y="74"/>
      <point x="114" y="74" type="curve" smooth="yes"/>
      <point x="84" y="74"/>
      <point x="53" y="85"/>
      <point x="30" y="100" type="curve"/>
    </contour>
  </outline>
</glyph>
<glyph name="K" format="1">
  <advance width="573"/>
  <unicode hex="004B"/>
  <outline>
    <contour>
      <point x="77" y="0" type="line"/>
      <point x="158" y="0" type="line"/>
      <point x="158" y="674" type="line"/>
      <point x="77" y="674" type="line"/>
    </contour>
    <contour>
      <point x="174" y="333" type="line"/>
      <point x="440" y="0" type="line"/>
      <point x="545" y="0" type="line"/>
      <point x="274" y="333" type="line"/>
    </contour>
    <contour>
      <point x="274" y="333" type="line"/>
      <point x="531" y="674" type="line"/>
      <point x="431" y="674" type="line"/>
      <point x="174" y="333" type="line"/>
    </contour>
  </outline>
</glyph>
<glyph name="L" format="1">
  <advance width="477"/>
  <unicode hex="004C"/>
  <outline>
    <contour>
      <point x="77" y="674" type="line"/>
      <point x="158" y="674" type="line"/>
      <point x="158" y="0" type="line"/>
      <point x="77" y="0" type="line"/>
    </contour>
    <contour>
      <point x="95" y="73" type="line"/>
      <point x="445" y="73" type="line"/>
      <point x="445" y="0" type="line"/>
      <point x="95" y="0" type="line"/>
    </contour>
  </outline>
</glyph>
<glyph name="M" format="1">
  <advance width="857"/>
  <unicode hex="004D"/>
  <outline>
    <contour>
      <point x="70" y="0" type="line"/>
      <point x="151" y="0" type="line"/>
      <point x="170" y="266" type="line" smooth="yes"/>
      <point x="181" y="413"/>
      <point x="189" y="547"/>
      <point x="189" y="559" type="curve"/>
      <point x="189" y="559"/>
      <point x="234" y="428"/>
      <point x="291" y="266" type="curve" smooth="yes"/>
      <point x="380" y="15" type="line"/>
      <point x="457" y="15" type="line"/>
      <point x="551" y="266" type="line" smooth="yes"/>
      <point x="607" y="417"/>
      <point x="660" y="565"/>
      <point x="660" y="565" type="curve"/>
      <point x="660" y="565"/>
      <point x="670" y="418"/>
      <point x="684" y="266" type="curve" smooth="yes"/>
      <point x="707" y="0" type="line"/>
      <point x="788" y="0" type="line"/>
      <point x="729" y="674" type="line"/>
      <point x="626" y="674" type="line"/>
      <point x="533" y="428" type="line" smooth="yes"/>
      <point x="477" y="278"/>
      <point x="419" y="114"/>
      <point x="419" y="114" type="curve"/>
      <point x="419" y="114"/>
      <point x="363" y="283"/>
      <point x="311" y="428" type="curve" smooth="yes"/>
      <point x="222" y="674" type="line"/>
      <point x="119" y="674" type="line"/>
    </contour>
  </outline>
</glyph>
<glyph name="N" format="1">
  <advance width="673"/>
  <unicode hex="004E"/>
  <outline>
    <contour>
      <point x="77" y="0" type="line"/>
      <point x="158" y="0" type="line"/>
      <point x="158" y="284" type="line" smooth="yes"/>
      <point x="158" y="473"/>
      <point x="153" y="577"/>
      <point x="153" y="577" type="curve"/>
      <point x="153" y="577"/>
      <point x="210" y="473"/>
      <point x="325" y="282" type="curve" smooth="yes"/>
      <point x="494" y="0" type="line"/>
      <point x="596" y="0" type="line"/>
      <point x="596" y="674" type="line"/>
      <point x="515" y="674" type="line"/>
      <point x="515" y="389" type="line" smooth="yes"/>
      <point x="515" y="195"/>
      <point x="519" y="98"/>
      <point x="519" y="98" type="curve"/>
      <point x="519" y="98"/>
      <point x="465" y="195"/>
      <point x="348" y="390" type="curve" smooth="yes"/>
      <point x="179" y="674" type="line"/>
      <point x="77" y="674" type="line"/>
    </contour>
  </outline>
</glyph>
<glyph name="O" format="1">
  <advance width="700"/>
  <unicode hex="004F"/>
  <outline>
    <contour>
      <point x="48" y="340" type="curve" smooth="yes"/>
      <point x="48" y="129"/>
      <point x="169" y="-8"/>
      <point x="351" y="-8" type="curve" smooth="yes"/>
      <point x="537" y="-8"/>
      <point x="653" y="129"/>
      <point x="653" y="340" type="curve" smooth="yes"/>
      <point x="653" y="551"/>
      <point x="541" y="687"/>
      <point x="350" y="687" type="curve" smooth="yes"/>
      <point x="165" y="687"/>
      <point x="48" y="551"/>
    </contour>
    <contour>
      <point x="133" y="340" type="curve" smooth="yes"/>
      <point x="133" y="508"/>
      <point x="214" y="611"/>
      <point x="350" y="611" type="curve" smooth="yes"/>
      <point x="489" y="611"/>
      <point x="567" y="508"/>
      <point x="567" y="340" type="curve" smooth="yes"/>
      <point x="567" y="172"/>
      <point x="489" y="69"/>
      <point x="351" y="69" type="curve" smooth="yes"/>
      <point x="220" y="69"/>
      <point x="133" y="172"/>
    </contour>
  </outline>
</glyph>
<glyph name="P" format="1">
  <advance width="545"/>
  <unicode hex="0050"/>
  <outline>
    <contour>
      <point x="262" y="248" type="line"/>
      <point x="412" y="248"/>
      <point x="506" y="339"/>
      <point x="506" y="457" type="curve"/>
      <point x="506" y="583"/>
      <point x="413" y="674"/>
      <point x="254" y="674" type="curve" smooth="yes"/>
      <point x="77" y="674" type="line"/>
      <point x="77" y="605" type="line"/>
      <point x="255" y="605" type="line" smooth="yes"/>
      <point x="365" y="605"/>
      <point x="424" y="546"/>
      <point x="424" y="457" type="curve" smooth="yes"/>
      <point x="424" y="378"/>
      <point x="367" y="317"/>
      <point x="262" y="317" type="curve" smooth="yes"/>
      <point x="77" y="317" type="line"/>
      <point x="77" y="248" type="line"/>
    </contour>
    <contour>
      <point x="77" y="0" type="line"/>
      <point x="158" y="0" type="line"/>
      <point x="158" y="674" type="line"/>
      <point x="77" y="674" type="line"/>
    </contour>
  </outline>
</glyph>
<glyph name="Q" format="1">
  <advance width="709"/>
  <unicode hex="0051"/>
  <outline>
    <contour>
      <point x="48" y="340" type="curve" smooth="yes"/>
      <point x="48" y="129"/>
      <point x="169" y="-8"/>
      <point x="351" y="-8" type="curve" smooth="yes"/>
      <point x="537" y="-8"/>
      <point x="653" y="129"/>
      <point x="653" y="340" type="curve" smooth="yes"/>
      <point x="653" y="551"/>
      <point x="541" y="687"/>
      <point x="350" y="687" type="curve" smooth="yes"/>
      <point x="165" y="687"/>
      <point x="48" y="551"/>
    </contour>
    <contour>
      <point x="133" y="340" type="curve" smooth="yes"/>
      <point x="133" y="508"/>
      <point x="214" y="611"/>
      <point x="350" y="611" type="curve" smooth="yes"/>
      <point x="489" y="611"/>
      <point x="567" y="508"/>
      <point x="567" y="340" type="curve" smooth="yes"/>
      <point x="567" y="172"/>
      <point x="489" y="69"/>
      <point x="351" y="69" type="curve" smooth="yes"/>
      <point x="220" y="69"/>
      <point x="133" y="172"/>
    </contour>
    <contour>
      <point x="365" y="15" type="line"/>
      <point x="595" y="-142" type="line"/>
      <point x="683" y="-105" type="line"/>
      <point x="443" y="44" type="line"/>
    </contour>
  </outline>
</glyph>
<glyph name="R" format="1">
  <advance width="548"/>
  <unicode hex="0052"/>
  <outline>
    <contour>
      <point x="236" y="310" type="line"/>
      <point x="428" y="0" type="line"/>
      <point x="525" y="0" type="line"/>
      <point x="328" y="310" type="line"/>
    </contour>
    <contour>
      <point x="402" y="469" type="curve" smooth="yes"/>
      <point x="402" y="395"/>
      <point x="356" y="335"/>
      <point x="260" y="335" type="curve" smooth="yes"/>
      <point x="77" y="335" type="line"/>
      <point x="77" y="266" type="line"/>
      <point x="255" y="266" type="line" smooth="yes"/>
      <point x="399" y="266"/>
      <point x="481" y="345"/>
      <point x="484" y="467" type="curve"/>
      <point x="484" y="594"/>
      <point x="405" y="674"/>
      <point x="246" y="674" type="curve" smooth="yes"/>
      <point x="77" y="674" type="line"/>
      <point x="77" y="604" type="line"/>
      <point x="251" y="604" type="line" smooth="yes"/>
      <point x="353" y="604"/>
      <point x="402" y="557"/>
    </contour>
    <contour>
      <point x="77" y="0" type="line"/>
      <point x="158" y="0" type="line"/>
      <point x="158" y="674" type="line"/>
      <point x="77" y="674" type="line"/>
    </contour>
  </outline>
</glyph>
<glyph name="T" format="1">
  <advance width="482"/>
  <unicode hex="0054"/>
  <outline>
    <contour>
      <point x="200" y="0" type="line"/>
      <point x="281" y="0" type="line"/>
      <point x="281" y="670" type="line"/>
      <point x="200" y="670" type="line"/>
    </contour>
    <contour>
      <point x="18" y="603" type="line"/>
      <point x="463" y="603" type="line"/>
      <point x="463" y="674" type="line"/>
      <point x="18" y="674" type="line"/>
    </contour>
  </outline>
</glyph>
<glyph name="U" format="1">
  <advance width="645"/>
  <unicode hex="0055"/>
  <outline>
    <contour>
      <point x="488" y="254" type="line"/>
      <point x="488" y="117"/>
      <point x="419" y="68"/>
      <point x="321" y="68" type="curve" smooth="yes"/>
      <point x="228" y="68"/>
      <point x="157" y="118"/>
      <point x="157" y="249" type="curve" smooth="yes"/>
      <point x="157" y="674" type="line"/>
      <point x="76" y="674" type="line"/>
      <point x="76" y="248" type="line" smooth="yes"/>
      <point x="76" y="79"/>
      <point x="170" y="-8"/>
      <point x="321" y="-8" type="curve" smooth="yes"/>
      <point x="474" y="-8"/>
      <point x="569" y="79"/>
      <point x="569" y="256" type="curve" smooth="yes"/>
      <point x="569" y="674" type="line"/>
      <point x="488" y="674" type="line"/>
    </contour>
  </outline>
</glyph>
<glyph name="V" format="1">
  <advance width="637"/>
  <unicode hex="0056"/>
  <outline>
    <contour>
      <point x="601" y="674" type="line"/>
      <point x="514" y="674" type="line"/>
      <point x="424" y="407" type="line" smooth="yes"/>
      <point x="355" y="199"/>
      <point x="316" y="73"/>
      <point x="316" y="73" type="curve"/>
      <point x="316" y="73"/>
      <point x="279" y="199"/>
      <point x="211" y="407" type="curve" smooth="yes"/>
      <point x="123" y="674" type="line"/>
      <point x="36" y="674" type="line"/>
      <point x="264" y="0" type="line"/>
      <point x="366" y="0" type="line"/>
    </contour>
  </outline>
</glyph>
<glyph name="W" format="1">
  <advance width="938"/>
  <unicode hex="0057"/>
  <outline>
    <contour>
      <point x="513" y="664" type="line"/>
      <point x="587" y="424" type="line" smooth="yes"/>
      <point x="620" y="312"/>
      <point x="689" y="82"/>
      <point x="689" y="82" type="curve"/>
      <point x="689" y="82"/>
      <point x="735" y="303"/>
      <point x="763" y="423" type="curve" smooth="yes"/>
      <point x="820" y="674" type="line"/>
      <point x="902" y="674" type="line"/>
      <point x="744" y="0" type="line"/>
      <point x="640" y="0" type="line"/>
      <point x="575" y="213" type="line" smooth="yes"/>
      <point x="507" y="433"/>
      <point x="474" y="550"/>
      <point x="474" y="550" type="curve"/>
      <point x="474" y="550"/>
      <point x="443" y="432"/>
      <point x="378" y="213" type="curve" smooth="yes"/>
      <point x="315" y="0" type="line"/>
      <point x="212" y="0" type="line"/>
      <point x="36" y="674" type="line"/>
      <point x="121" y="674" type="line"/>
      <point x="184" y="424" type="line" smooth="yes"/>
      <point x="210" y="319"/>
      <point x="267" y="85"/>
      <point x="267" y="85" type="curve"/>
      <point x="267" y="85"/>
      <point x="323" y="290"/>
      <point x="362" y="424" type="curve" smooth="yes"/>
      <point x="432" y="664" type="line"/>
    </contour>
  </outline>
</glyph>
<glyph name="X" format="1">
  <advance width="613"/>
  <unicode hex="0058"/>
  <outline>
    <contour>
      <point x="51" y="674" type="line"/>
      <point x="146" y="674" type="line"/>
      <point x="301" y="413" type="line"/>
      <point x="308" y="427"/>
      <point x="448" y="660"/>
      <point x="456" y="674" type="curve"/>
      <point x="552" y="674" type="line"/>
      <point x="348" y="340" type="line"/>
      <point x="574" y="0" type="line"/>
      <point x="479" y="0" type="line"/>
      <point x="303" y="271" type="line"/>
      <point x="294" y="256"/>
      <point x="143" y="15"/>
      <point x="135" y="0" type="curve"/>
      <point x="39" y="0" type="line"/>
      <point x="256" y="340" type="line"/>
    </contour>
  </outline>
</glyph>
<glyph name="Y" format="1">
  <advance width="593"/>
  <unicode hex="0059"/>
  <outline>
    <contour>
      <point x="258" y="244" type="line"/>
      <point x="26" y="674" type="line"/>
      <point x="120" y="674" type="line"/>
      <point x="171" y="575" type="line" smooth="yes"/>
      <point x="287" y="349"/>
      <point x="295" y="324"/>
      <point x="295" y="324" type="curve"/>
      <point x="295" y="324"/>
      <point x="304" y="349"/>
      <point x="422" y="575" type="curve" smooth="yes"/>
      <point x="473" y="674" type="line"/>
      <point x="567" y="674" type="line"/>
      <point x="332" y="244" type="line"/>
    </contour>
    <contour>
      <point x="255" y="268" type="line"/>
      <point x="336" y="268" type="line"/>
      <point x="336" y="0" type="line"/>
      <point x="255" y="0" type="line"/>
    </contour>
  </outline>
</glyph>
<glyph name="Z" format="1">
  <advance width="569"/>
  <unicode hex="005A"/>
  <outline>
    <contour>
      <point x="502" y="674" type="line"/>
      <point x="57" y="674" type="line"/>
      <point x="57" y="605" type="line"/>
      <point x="408" y="605" type="line"/>
      <point x="52" y="67" type="line"/>
      <point x="52" y="0" type="line"/>
      <point x="517" y="0" type="line"/>
      <point x="517" y="69" type="line"/>
      <point x="146" y="69" type="line"/>
      <point x="502" y="608" type="line"/>
    </contour>
  </outline>
</glyph>
<glyph name="bracketleft" format="1">
  <advance width="310"/>
  <unicode hex="005B"/>
  <outline>
    <contour>
      <point x="77" y="-183" type="line"/>
      <point x="155" y="-183" type="line"/>
      <point x="155" y="707" type="line"/>
      <point x="77" y="707" type="line"/>
    </contour>
    <contour>
      <point x="77" y="637" type="line"/>
      <point x="307" y="637" type="line"/>
      <point x="307" y="707" type="line"/>
      <point x="77" y="707" type="line"/>
    </contour>
    <contour>
      <point x="77" y="-183" type="line"/>
      <point x="307" y="-183" type="line"/>
      <point x="307" y="-111" type="line"/>
      <point x="77" y="-111" type="line"/>
    </contour>
  </outline>
</glyph>
<glyph name="backslash" format="1">
  <advance width="402"/>
  <unicode hex="005C"/>
  <outline>
    <contour>
      <point x="412" y="-103" type="line"/>
      <point x="332" y="-103" type="line"/>
      <point x="-33" y="707" type="line"/>
      <point x="48" y="707" type="line"/>
    </contour>
  </outline>
</glyph>
<glyph name="bracketright" format="1">
  <advance width="310"/>
  <unicode hex="005D"/>
  <outline>
    <contour>
      <point x="233" y="-183" type="line"/>
      <point x="155" y="-183" type="line"/>
      <point x="155" y="707" type="line"/>
      <point x="233" y="707" type="line"/>
    </contour>
    <contour>
      <point x="233" y="637" type="line"/>
      <point x="3" y="637" type="line"/>
      <point x="3" y="707" type="line"/>
      <point x="233" y="707" type="line"/>
    </contour>
    <contour>
      <point x="233" y="-183" type="line"/>
      <point x="3" y="-183" type="line"/>
      <point x="3" y="-111" type="line"/>
      <point x="233" y="-111" type="line"/>
    </contour>
  </outline>
</glyph>
<glyph name="asciicircum" format="1">
  <advance width="461"/>
  <unicode hex="005E"/>
  <outline>
    <contour>
      <point x="45" y="332" type="line"/>
      <point x="124" y="332" type="line"/>
      <point x="260" y="594" type="line"/>
      <point x="187" y="594" type="line"/>
    </contour>
    <contour>
      <point x="278" y="594" type="line"/>
      <point x="205" y="594" type="line"/>
      <point x="337" y="332" type="line"/>
      <point x="416" y="332" type="line"/>
    </contour>
  </outline>
</glyph>
<glyph name="underscore" format="1">
  <advance width="561"/>
  <unicode hex="005F"/>
  <outline>
    <contour>
      <point x="28" y="-100" type="line"/>
      <point x="533" y="-100" type="line"/>
      <point x="533" y="-31" type="line"/>
      <point x="28" y="-31" type="line"/>
    </contour>
  </outline>
</glyph>
<glyph name="grave" format="1">
  <advance width="421"/>
  <unicode hex="0060"/>
  <outline>
    <contour>
      <point x="210" y="798" type="line"/>
      <point x="115" y="798" type="line"/>
      <point x="239" y="642" type="line"/>
      <point x="308" y="642" type="line"/>
    </contour>
  </outline>
</glyph>
<glyph name="a" format="1">
  <advance width="492"/>
  <unicode hex="0061"/>
  <outline>
    <contour>
      <point x="346" y="169" type="line"/>
      <point x="346" y="107"/>
      <point x="301" y="61"/>
      <point x="228" y="61" type="curve" smooth="yes"/>
      <point x="162" y="61"/>
      <point x="130" y="97"/>
      <point x="130" y="146" type="curve" smooth="yes"/>
      <point x="130" y="193"/>
      <point x="167" y="234"/>
      <point x="258" y="234" type="curve" smooth="yes"/>
      <point x="359" y="234" type="line"/>
      <point x="359" y="297" type="line"/>
      <point x="254" y="297" type="line" smooth="yes"/>
      <point x="127" y="297"/>
      <point x="47" y="241"/>
      <point x="47" y="143" type="curve" smooth="yes"/>
      <point x="47" y="58"/>
      <point x="110" y="-5"/>
      <point x="205" y="-5" type="curve" smooth="yes"/>
      <point x="289" y="-5"/>
      <point x="330" y="32"/>
      <point x="347" y="60" type="curve"/>
      <point x="347" y="0" type="line"/>
      <point x="425" y="0" type="line"/>
      <point x="425" y="321" type="line" smooth="yes"/>
      <point x="425" y="445"/>
      <point x="369" y="515"/>
      <point x="234" y="515" type="curve" smooth="yes"/>
      <point x="177" y="515"/>
      <point x="118" y="501"/>
      <point x="84" y="480" type="curve"/>
      <point x="84" y="401" type="line"/>
      <point x="122" y="427"/>
      <point x="179" y="444"/>
      <point x="228" y="444" type="curve" smooth="yes"/>
      <point x="317" y="444"/>
      <point x="346" y="399"/>
      <point x="346" y="323" type="curve" smooth="yes"/>
    </contour>
  </outline>
</glyph>
<glyph name="b" format="1">
  <advance width="570"/>
  <unicode hex="0062"/>
  <outline>
    <contour>
      <point x="76" y="0" type="line"/>
      <point x="155" y="0" type="line"/>
      <point x="155" y="707" type="line"/>
      <point x="76" y="707" type="line"/>
    </contour>
    <contour>
      <point x="155" y="257" type="curve" smooth="yes"/>
      <point x="155" y="400"/>
      <point x="242" y="443"/>
      <point x="299" y="443" type="curve" smooth="yes"/>
      <point x="379" y="443"/>
      <point x="445" y="379"/>
      <point x="445" y="248" type="curve" smooth="yes"/>
      <point x="445" y="138"/>
      <point x="384" y="64"/>
      <point x="304" y="64" type="curve" smooth="yes"/>
      <point x="232" y="64"/>
      <point x="155" y="110"/>
    </contour>
    <contour>
      <point x="110" y="256" type="curve" smooth="yes"/>
      <point x="110" y="125"/>
      <point x="164" y="-8"/>
      <point x="311" y="-8" type="curve" smooth="yes"/>
      <point x="452" y="-8"/>
      <point x="527" y="114"/>
      <point x="527" y="249" type="curve" smooth="yes"/>
      <point x="527" y="408"/>
      <point x="436" y="515"/>
      <point x="309" y="515" type="curve" smooth="yes"/>
      <point x="183" y="515"/>
      <point x="110" y="405"/>
    </contour>
  </outline>
</glyph>
<glyph name="c" format="1">
  <advance width="471"/>
  <unicode hex="0063"/>
  <outline>
    <contour>
      <point x="125" y="251" type="curve" smooth="yes"/>
      <point x="125" y="356"/>
      <point x="196" y="444"/>
      <point x="314" y="444" type="curve" smooth="yes"/>
      <point x="344" y="444"/>
      <point x="391" y="434"/>
      <point x="422" y="413" type="curve"/>
      <point x="422" y="488" type="line"/>
      <point x="384" y="509"/>
      <point x="337" y="516"/>
      <point x="306" y="516" type="curve" smooth="yes"/>
      <point x="136" y="516"/>
      <point x="43" y="387"/>
      <point x="43" y="252" type="curve" smooth="yes"/>
      <point x="43" y="112"/>
      <point x="137" y="-11"/>
      <point x="304" y="-11" type="curve" smooth="yes"/>
      <point x="344" y="-11"/>
      <point x="394" y="1"/>
      <point x="422" y="18" type="curve"/>
      <point x="422" y="93" type="line"/>
      <point x="395" y="75"/>
      <point x="353" y="60"/>
      <point x="314" y="60" type="curve" smooth="yes"/>
      <point x="188" y="60"/>
      <point x="126" y="149"/>
    </contour>
  </outline>
</glyph>
<glyph name="d" format="1">
  <advance width="567"/>
  <unicode hex="0064"/>
  <outline>
    <contour>
      <point x="494" y="707" type="line"/>
      <point x="415" y="707" type="line"/>
      <point x="415" y="0" type="line"/>
      <point x="494" y="0" type="line"/>
    </contour>
    <contour>
      <point x="415" y="257" type="curve" smooth="yes"/>
      <point x="415" y="110"/>
      <point x="338" y="64"/>
      <point x="266" y="64" type="curve" smooth="yes"/>
      <point x="186" y="64"/>
      <point x="125" y="138"/>
      <point x="125" y="248" type="curve" smooth="yes"/>
      <point x="125" y="379"/>
      <point x="191" y="443"/>
      <point x="271" y="443" type="curve" smooth="yes"/>
      <point x="328" y="443"/>
      <point x="415" y="400"/>
    </contour>
    <contour>
      <point x="460" y="256" type="curve" smooth="yes"/>
      <point x="460" y="405"/>
      <point x="386" y="515"/>
      <point x="261" y="515" type="curve" smooth="yes"/>
      <point x="134" y="515"/>
      <point x="43" y="408"/>
      <point x="43" y="249" type="curve" smooth="yes"/>
      <point x="43" y="114"/>
      <point x="118" y="-8"/>
      <point x="259" y="-8" type="curve" smooth="yes"/>
      <point x="406" y="-8"/>
      <point x="460" y="125"/>
    </contour>
  </outline>
</glyph>
<glyph name="e" format="1">
  <advance width="522"/>
  <unicode hex="0065"/>
  <outline>
    <contour>
      <point x="94" y="220" type="line"/>
      <point x="470" y="220" type="line"/>
      <point x="473" y="236"/>
      <point x="475" y="266"/>
      <point x="475" y="279" type="curve" smooth="yes"/>
      <point x="475" y="432"/>
      <point x="391" y="513"/>
      <point x="268" y="513" type="curve" smooth="yes"/>
      <point x="139" y="513"/>
      <point x="43" y="417"/>
      <point x="43" y="252" type="curve" smooth="yes"/>
      <point x="43" y="98"/>
      <point x="145" y="-5"/>
      <point x="299" y="-5" type="curve" smooth="yes"/>
      <point x="344" y="-5"/>
      <point x="405" y="6"/>
      <point x="443" y="26" type="curve"/>
      <point x="443" y="100" type="line"/>
      <point x="408" y="76"/>
      <point x="352" y="65"/>
      <point x="307" y="65" type="curve" smooth="yes"/>
      <point x="195" y="65"/>
      <point x="122" y="129"/>
      <point x="122" y="252" type="curve" smooth="yes"/>
      <point x="122" y="380"/>
      <point x="187" y="444"/>
      <point x="268" y="444" type="curve" smooth="yes"/>
      <point x="348" y="444"/>
      <point x="396" y="390"/>
      <point x="396" y="306" type="curve" smooth="yes"/>
      <point x="396" y="306"/>
      <point x="396" y="287"/>
      <point x="396" y="286" type="curve"/>
      <point x="94" y="286" type="line"/>
    </contour>
  </outline>
</glyph>
<glyph name="f" format="1">
  <advance width="329"/>
  <unicode hex="0066"/>
  <outline>
    <contour>
      <point x="315" y="635" type="line"/>
      <point x="300" y="640"/>
      <point x="285" y="643"/>
      <point x="269" y="643" type="curve" smooth="yes"/>
      <point x="231" y="643"/>
      <point x="196" y="619"/>
      <point x="196" y="553" type="curve" smooth="yes"/>
      <point x="196" y="0" type="line"/>
      <point x="117" y="0" type="line"/>
      <point x="117" y="554" type="line" smooth="yes"/>
      <point x="117" y="651"/>
      <point x="171" y="714"/>
      <point x="266" y="714" type="curve" smooth="yes"/>
      <point x="279" y="714"/>
      <point x="301" y="711"/>
      <point x="315" y="707" type="curve"/>
    </contour>
    <contour>
      <point x="30" y="507" type="line"/>
      <point x="308" y="507" type="line"/>
      <point x="308" y="443" type="line"/>
      <point x="30" y="443" type="line"/>
    </contour>
  </outline>
</glyph>
<glyph name="h" format="1">
  <advance width="540"/>
  <unicode hex="0068"/>
  <outline>
    <contour>
      <point x="73" y="0" type="line"/>
      <point x="151" y="0" type="line"/>
      <point x="151" y="707" type="line"/>
      <point x="73" y="707" type="line"/>
    </contour>
    <contour>
      <point x="394" y="0" type="line"/>
      <point x="473" y="0" type="line"/>
      <point x="473" y="347" type="line" smooth="yes"/>
      <point x="473" y="450"/>
      <point x="408" y="514"/>
      <point x="311" y="514" type="curve" smooth="yes"/>
      <point x="196" y="514"/>
      <point x="127" y="439"/>
      <point x="126" y="289" type="curve"/>
      <point x="151" y="277" type="line"/>
      <point x="151" y="391"/>
      <point x="224" y="443"/>
      <point x="291" y="443" type="curve" smooth="yes"/>
      <point x="350" y="443"/>
      <point x="394" y="404"/>
      <point x="394" y="328" type="curve" smooth="yes"/>
    </contour>
  </outline>
</glyph>
<glyph name="i" format="1">
  <advance width="233"/>
  <unicode hex="0069"/>
  <outline>
    <contour>
      <point x="77" y="0" type="line"/>
      <point x="156" y="0" type="line"/>
      <point x="156" y="507" type="line"/>
      <point x="77" y="507" type="line"/>
    </contour>
    <contour>
      <point x="65" y="666" type="curve" smooth="yes"/>
      <point x="65" y="637"/>
      <point x="87" y="615"/>
      <point x="116" y="615" type="curve" smooth="yes"/>
      <point x="145" y="615"/>
      <point x="168" y="637"/>
      <point x="168" y="666" type="curve" smooth="yes"/>
      <point x="168" y="695"/>
      <point x="145" y="718"/>
      <point x="116" y="718" type="curve" smooth="yes"/>
      <point x="87" y="718"/>
      <point x="65" y="695"/>
    </contour>
  </outline>
</glyph>
<glyph name="j" format="1">
  <advance width="228"/>
  <unicode hex="006A"/>
  <outline>
    <contour>
      <point x="-46" y="-180" type="line"/>
      <point x="-20" y="-190"/>
      <point x="-1" y="-195"/>
      <point x="26" y="-195" type="curve" smooth="yes"/>
      <point x="108" y="-195"/>
      <point x="156" y="-143"/>
      <point x="156" y="-55" type="curve" smooth="yes"/>
      <point x="156" y="507" type="line"/>
      <point x="78" y="507" type="line"/>
      <point x="78" y="-53" type="line" smooth="yes"/>
      <point x="78" y="-106"/>
      <point x="56" y="-126"/>
      <point x="22" y="-126" type="curve" smooth="yes"/>
      <point x="1" y="-126"/>
      <point x="-22" y="-120"/>
      <point x="-46" y="-110" type="curve"/>
    </contour>
    <contour>
      <point x="65" y="666" type="curve" smooth="yes"/>
      <point x="65" y="637"/>
      <point x="87" y="615"/>
      <point x="116" y="615" type="curve" smooth="yes"/>
      <point x="145" y="615"/>
      <point x="168" y="637"/>
      <point x="168" y="666" type="curve" smooth="yes"/>
      <point x="168" y="695"/>
      <point x="145" y="718"/>
      <point x="116" y="718" type="curve" smooth="yes"/>
      <point x="87" y="718"/>
      <point x="65" y="695"/>
    </contour>
  </outline>
</glyph>
<glyph name="k" format="1">
  <advance width="480"/>
  <unicode hex="006B"/>
  <outline>
    <contour>
      <point x="161" y="266" type="line"/>
      <point x="254" y="266" type="line"/>
      <point x="454" y="507" type="line"/>
      <point x="360" y="507" type="line"/>
    </contour>
    <contour>
      <point x="73" y="0" type="line"/>
      <point x="151" y="0" type="line"/>
      <point x="151" y="703" type="line"/>
      <point x="73" y="703" type="line"/>
    </contour>
    <contour>
      <point x="365" y="0" type="line"/>
      <point x="460" y="0" type="line"/>
      <point x="254" y="266" type="line"/>
      <point x="161" y="266" type="line"/>
    </contour>
  </outline>
</glyph>
<glyph name="m" format="1">
  <advance width="818"/>
  <unicode hex="006D"/>
  <outline>
    <contour>
      <point x="73" y="0" type="line"/>
      <point x="151" y="0" type="line"/>
      <point x="151" y="507" type="line"/>
      <point x="73" y="507" type="line"/>
    </contour>
    <contour>
      <point x="372" y="0" type="line"/>
      <point x="451" y="0" type="line"/>
      <point x="451" y="348" type="line" smooth="yes"/>
      <point x="451" y="447"/>
      <point x="403" y="514"/>
      <point x="294" y="514" type="curve" smooth="yes"/>
      <point x="193" y="514"/>
      <point x="124" y="439"/>
      <point x="126" y="289" type="curve"/>
      <point x="151" y="277" type="line"/>
      <point x="151" y="390"/>
      <point x="218" y="443"/>
      <point x="275" y="443" type="curve" smooth="yes"/>
      <point x="342" y="443"/>
      <point x="372" y="402"/>
      <point x="372" y="328" type="curve" smooth="yes"/>
    </contour>
    <contour>
      <point x="672" y="0" type="line"/>
      <point x="751" y="0" type="line"/>
      <point x="751" y="348" type="line" smooth="yes"/>
      <point x="751" y="445"/>
      <point x="702" y="514"/>
      <point x="592" y="514" type="curve" smooth="yes"/>
      <point x="497" y="514"/>
      <point x="417" y="440"/>
      <point x="419" y="291" type="curve"/>
      <point x="451" y="277" type="line"/>
      <point x="451" y="390"/>
      <point x="518" y="443"/>
      <point x="575" y="443" type="curve" smooth="yes"/>
      <point x="641" y="443"/>
      <point x="672" y="402"/>
      <point x="672" y="328" type="curve" smooth="yes"/>
    </contour>
  </outline>
</glyph>
<glyph name="n" format="1">
  <advance width="540"/>
  <unicode hex="006E"/>
  <outline>
    <contour>
      <point x="73" y="0" type="line"/>
      <point x="151" y="0" type="line"/>
      <point x="151" y="507" type="line"/>
      <point x="73" y="507" type="line"/>
    </contour>
    <contour>
      <point x="394" y="0" type="line"/>
      <point x="473" y="0" type="line"/>
      <point x="473" y="349" type="line" smooth="yes"/>
      <point x="473" y="449"/>
      <point x="410" y="514"/>
      <point x="311" y="514" type="curve" smooth="yes"/>
      <point x="203" y="514"/>
      <point x="131" y="445"/>
      <point x="127" y="307" type="curve" smooth="yes"/>
      <point x="127" y="303"/>
      <point x="127" y="283"/>
      <point x="127" y="277" type="curve"/>
      <point x="151" y="277" type="line"/>
      <point x="151" y="386"/>
      <point x="220" y="443"/>
      <point x="291" y="443" type="curve" smooth="yes"/>
      <point x="350" y="443"/>
      <point x="394" y="405"/>
      <point x="394" y="328" type="curve" smooth="yes"/>
    </contour>
  </outline>
</glyph>
<glyph name="o" format="1">
  <advance width="562"/>
  <unicode hex="006F"/>
  <outline>
    <contour>
      <point x="279" y="-9" type="curve" smooth="yes"/>
      <point x="433" y="-9"/>
      <point x="519" y="106"/>
      <point x="519" y="252" type="curve" smooth="yes"/>
      <point x="519" y="397"/>
      <point x="438" y="514"/>
      <point x="279" y="514" type="curve" smooth="yes"/>
      <point x="136" y="514"/>
      <point x="43" y="397"/>
      <point x="43" y="250" type="curve" smooth="yes"/>
      <point x="43" y="106"/>
      <point x="129" y="-9"/>
    </contour>
    <contour>
      <point x="279" y="444" type="curve" smooth="yes"/>
      <point x="393" y="444"/>
      <point x="437" y="353"/>
      <point x="437" y="251" type="curve" smooth="yes"/>
      <point x="437" y="149"/>
      <point x="385" y="61"/>
      <point x="279" y="61" type="curve" smooth="yes"/>
      <point x="183" y="61"/>
      <point x="125" y="150"/>
      <point x="125" y="251" type="curve" smooth="yes"/>
      <point x="125" y="353"/>
      <point x="178" y="444"/>
    </contour>
  </outline>
</glyph>
<glyph name="p" format="1">
  <advance width="567"/>
  <unicode hex="0070"/>
  <outline>
    <contour>
      <point x="73" y="-197" type="line"/>
      <point x="151" y="-197" type="line"/>
      <point x="151" y="507" type="line"/>
      <point x="73" y="507" type="line"/>
    </contour>
    <contour>
      <point x="151" y="253" type="curve" smooth="yes"/>
      <point x="151" y="400"/>
      <point x="232" y="443"/>
      <point x="301" y="443" type="curve" smooth="yes"/>
      <point x="381" y="443"/>
      <point x="442" y="371"/>
      <point x="442" y="258" type="curve" smooth="yes"/>
      <point x="442" y="129"/>
      <point x="377" y="64"/>
      <point x="296" y="64" type="curve" smooth="yes"/>
      <point x="237" y="64"/>
      <point x="151" y="109"/>
    </contour>
    <contour>
      <point x="107" y="252" type="curve" smooth="yes"/>
      <point x="107" y="101"/>
      <point x="180" y="-8"/>
      <point x="306" y="-8" type="curve" smooth="yes"/>
      <point x="437" y="-8"/>
      <point x="524" y="104"/>
      <point x="524" y="258" type="curve" smooth="yes"/>
      <point x="524" y="398"/>
      <point x="447" y="515"/>
      <point x="308" y="515" type="curve" smooth="yes"/>
      <point x="160" y="515"/>
      <point x="107" y="380"/>
    </contour>
  </outline>
</glyph>
<glyph name="q" format="1">
  <advance width="567"/>
  <unicode hex="0071"/>
  <outline>
    <contour>
      <point x="494" y="507" type="line"/>
      <point x="415" y="507" type="line"/>
      <point x="415" y="-197" type="line"/>
      <point x="494" y="-197" type="line"/>
    </contour>
    <contour>
      <point x="415" y="253" type="curve" smooth="yes"/>
      <point x="415" y="109"/>
      <point x="331" y="64"/>
      <point x="271" y="64" type="curve" smooth="yes"/>
      <point x="190" y="64"/>
      <point x="125" y="129"/>
      <point x="125" y="258" type="curve" smooth="yes"/>
      <point x="125" y="370"/>
      <point x="186" y="443"/>
      <point x="266" y="443" type="curve" smooth="yes"/>
      <point x="335" y="443"/>
      <point x="415" y="400"/>
    </contour>
    <contour>
      <point x="460" y="252" type="curve" smooth="yes"/>
      <point x="460" y="380"/>
      <point x="407" y="515"/>
      <point x="260" y="515" type="curve" smooth="yes"/>
      <point x="120" y="515"/>
      <point x="43" y="398"/>
      <point x="43" y="258" type="curve" smooth="yes"/>
      <point x="43" y="104"/>
      <point x="130" y="-8"/>
      <point x="261" y="-8" type="curve" smooth="yes"/>
      <point x="386" y="-8"/>
      <point x="460" y="101"/>
    </contour>
  </outline>
</glyph>
<glyph name="r" format="1">
  <advance width="326"/>
  <unicode hex="0072"/>
  <outline>
    <contour>
      <point x="72" y="0" type="line"/>
      <point x="151" y="0" type="line"/>
      <point x="151" y="507" type="line"/>
      <point x="73" y="507" type="line"/>
    </contour>
    <contour>
      <point x="317" y="510" type="line"/>
      <point x="307" y="512"/>
      <point x="298" y="512"/>
      <point x="289" y="512" type="curve" smooth="yes"/>
      <point x="173" y="512"/>
      <point x="131" y="412"/>
      <point x="128" y="294" type="curve"/>
      <point x="151" y="277" type="line"/>
      <point x="151" y="358"/>
      <point x="200" y="439"/>
      <point x="274" y="439" type="curve" smooth="yes"/>
      <point x="289" y="439"/>
      <point x="302" y="437"/>
      <point x="317" y="432" type="curve"/>
    </contour>
  </outline>
</glyph>
<glyph name="u" format="1">
  <advance width="540"/>
  <unicode hex="0075"/>
  <outline>
    <contour>
      <point x="467" y="507" type="line"/>
      <point x="388" y="507" type="line"/>
      <point x="388" y="0" type="line"/>
      <point x="467" y="0" type="line"/>
    </contour>
    <contour>
      <point x="146" y="507" type="line"/>
      <point x="67" y="507" type="line"/>
      <point x="67" y="158" type="line" smooth="yes"/>
      <point x="67" y="58"/>
      <point x="129" y="-6"/>
      <point x="229" y="-6" type="curve" smooth="yes"/>
      <point x="338" y="-6"/>
      <point x="408" y="56"/>
      <point x="407" y="200" type="curve"/>
      <point x="388" y="228" type="line"/>
      <point x="388" y="127"/>
      <point x="333" y="65"/>
      <point x="250" y="65" type="curve" smooth="yes"/>
      <point x="188" y="65"/>
      <point x="146" y="103"/>
      <point x="146" y="178" type="curve" smooth="yes"/>
    </contour>
  </outline>
</glyph>
<glyph name="v" format="1">
  <advance width="505"/>
  <unicode hex="0076"/>
  <outline>
    <contour>
      <point x="25" y="507" type="line"/>
      <point x="107" y="507" type="line"/>
      <point x="177" y="293" type="line" smooth="yes"/>
      <point x="239" y="105"/>
      <point x="251" y="62"/>
      <point x="251" y="62" type="curve"/>
      <point x="251" y="62"/>
      <point x="260" y="105"/>
      <point x="326" y="293" type="curve" smooth="yes"/>
      <point x="398" y="507" type="line"/>
      <point x="480" y="507" type="line"/>
      <point x="299" y="0" type="line"/>
      <point x="202" y="0" type="line"/>
    </contour>
  </outline>
</glyph>
<glyph name="w" format="1">
  <advance width="792"/>
  <unicode hex="0077"/>
  <outline>
    <contour>
      <point x="25" y="507" type="line"/>
      <point x="109" y="507" type="line"/>
      <point x="158" y="339" type="line" smooth="yes"/>
      <point x="216" y="142"/>
      <point x="229" y="77"/>
      <point x="229" y="77" type="curve"/>
      <point x="229" y="77"/>
      <point x="244" y="141"/>
      <point x="302" y="340" type="curve" smooth="yes"/>
      <point x="350" y="507" type="line"/>
      <point x="434" y="507" type="line"/>
      <point x="483" y="340" type="line" smooth="yes"/>
      <point x="544" y="135"/>
      <point x="558" y="76"/>
      <point x="558" y="76" type="curve"/>
      <point x="558" y="76"/>
      <point x="572" y="135"/>
      <point x="635" y="340" type="curve" smooth="yes"/>
      <point x="686" y="507" type="line"/>
      <point x="767" y="507" type="line"/>
      <point x="607" y="0" type="line"/>
      <point x="510" y="0" type="line"/>
      <point x="462" y="166" type="line" smooth="yes"/>
      <point x="407" y="356"/>
      <point x="392" y="419"/>
      <point x="392" y="419" type="curve"/>
      <point x="392" y="419"/>
      <point x="377" y="355"/>
      <point x="324" y="166" type="curve" smooth="yes"/>
      <point x="278" y="0" type="line"/>
      <point x="181" y="0" type="line"/>
    </contour>
  </outline>
</glyph>
<glyph name="x" format="1">
  <advance width="478"/>
  <unicode hex="0078"/>
  <outline>
    <contour>
      <point x="453" y="0" type="line"/>
      <point x="362" y="0" type="line"/>
      <point x="239" y="200" type="line"/>
      <point x="112" y="0" type="line"/>
      <point x="25" y="0" type="line"/>
      <point x="195" y="260" type="line"/>
      <point x="35" y="508" type="line"/>
      <point x="126" y="508" type="line"/>
      <point x="241" y="318" type="line"/>
      <point x="357" y="508" type="line"/>
      <point x="447" y="508" type="line"/>
      <point x="283" y="259" type="line"/>
    </contour>
  </outline>
</glyph>
<glyph name="y" format="1">
  <advance width="493"/>
  <unicode hex="0079"/>
  <outline>
    <contour>
      <point x="8" y="507" type="line"/>
      <point x="97" y="507" type="line"/>
      <point x="163" y="340" type="line" smooth="yes"/>
      <point x="243" y="136"/>
      <point x="252" y="110"/>
      <point x="252" y="110" type="curve"/>
      <point x="252" y="110"/>
      <point x="260" y="136"/>
      <point x="332" y="340" type="curve" smooth="yes"/>
      <point x="391" y="507" type="line"/>
      <point x="476" y="507" type="line"/>
      <point x="293" y="13" type="line" smooth="yes"/>
      <point x="238" y="-134"/>
      <point x="161" y="-174"/>
      <point x="78" y="-174" type="curve" smooth="yes"/>
      <point x="64" y="-174"/>
      <point x="49" y="-173"/>
      <point x="36" y="-169" type="curve"/>
      <point x="36" y="-98" type="line"/>
      <point x="47" y="-101"/>
      <point x="60" y="-102"/>
      <point x="70" y="-102" type="curve" smooth="yes"/>
      <point x="136" y="-102"/>
      <point x="185" y="-64"/>
      <point x="213" y="13" type="curve"/>
    </contour>
  </outline>
</glyph>
<glyph name="z" format="1">
  <advance width="453"/>
  <unicode hex="007A"/>
  <outline>
    <contour>
      <point x="395" y="507" type="line"/>
      <point x="54" y="507" type="line"/>
      <point x="54" y="437" type="line"/>
      <point x="301" y="437" type="line"/>
      <point x="44" y="62" type="line"/>
      <point x="44" y="0" type="line"/>
      <point x="409" y="0" type="line"/>
      <point x="409" y="71" type="line"/>
      <point x="135" y="71" type="line"/>
      <point x="395" y="449" type="line"/>
    </contour>
  </outline>
</glyph>
<glyph name="braceleft" format="1">
  <advance width="334"/>
  <unicode hex="007B"/>
  <outline>
    <contour>
      <point x="124" y="262" type="curve"/>
      <point x="205" y="275"/>
      <point x="246" y="333"/>
      <point x="246" y="405" type="curve" smooth="yes"/>
      <point x="246" y="463"/>
      <point x="225" y="508"/>
      <point x="225" y="562" type="curve" smooth="yes"/>
      <point x="225" y="602"/>
      <point x="245" y="636"/>
      <point x="288" y="636" type="curve" smooth="yes"/>
      <point x="298" y="636"/>
      <point x="310" y="633"/>
      <point x="321" y="627" type="curve"/>
      <point x="321" y="627"/>
      <point x="321" y="705"/>
      <point x="321" y="705" type="curve"/>
      <point x="305" y="710"/>
      <point x="289" y="713"/>
      <point x="274" y="713" type="curve" smooth="yes"/>
      <point x="204" y="713"/>
      <point x="144" y="656"/>
      <point x="144" y="563" type="curve" smooth="yes"/>
      <point x="144" y="511"/>
      <point x="165" y="466"/>
      <point x="165" y="420" type="curve" smooth="yes"/>
      <point x="165" y="362"/>
      <point x="136" y="312"/>
      <point x="77" y="303" type="curve" smooth="yes"/>
      <point x="66" y="301"/>
      <point x="55" y="301"/>
      <point x="48" y="301" type="curve"/>
      <point x="48" y="224" type="line"/>
      <point x="55" y="224"/>
      <point x="68" y="224"/>
      <point x="77" y="222" type="curve" smooth="yes"/>
      <point x="140" y="209"/>
      <point x="165" y="161"/>
      <point x="165" y="103" type="curve" smooth="yes"/>
      <point x="165" y="57"/>
      <point x="144" y="12"/>
      <point x="144" y="-40" type="curve" smooth="yes"/>
      <point x="144" y="-133"/>
      <point x="204" y="-189"/>
      <point x="274" y="-189" type="curve" smooth="yes"/>
      <point x="289" y="-189"/>
      <point x="305" y="-187"/>
      <point x="321" y="-181" type="curve"/>
      <point x="321" y="-182"/>
      <point x="321" y="-104"/>
      <point x="321" y="-104" type="curve"/>
      <point x="310" y="-110"/>
      <point x="298" y="-113"/>
      <point x="288" y="-113" type="curve" smooth="yes"/>
      <point x="245" y="-113"/>
      <point x="225" y="-79"/>
      <point x="225" y="-39" type="curve" smooth="yes"/>
      <point x="225" y="15"/>
      <point x="246" y="60"/>
      <point x="246" y="119" type="curve" smooth="yes"/>
      <point x="246" y="190"/>
      <point x="205" y="249"/>
    </contour>
  </outline>
</glyph>
<glyph name="bar" format="1">
  <advance width="228"/>
  <unicode hex="007C"/>
  <outline>
    <contour>
      <point x="78" y="-194" type="line"/>
      <point x="150" y="-194" type="line"/>
      <point x="150" y="695" type="line"/>
      <point x="78" y="695" type="line"/>
    </contour>
  </outline>
</glyph>
<glyph name="braceright" format="1">
  <advance width="334"/>
  <unicode hex="007D"/>
  <outline>
    <contour>
      <point x="210" y="262" type="curve"/>
      <point x="130" y="249"/>
      <point x="89" y="190"/>
      <point x="89" y="119" type="curve" smooth="yes"/>
      <point x="89" y="60"/>
      <point x="109" y="15"/>
      <point x="109" y="-39" type="curve" smooth="yes"/>
      <point x="109" y="-79"/>
      <point x="89" y="-113"/>
      <point x="47" y="-113" type="curve" smooth="yes"/>
      <point x="37" y="-113"/>
      <point x="24" y="-110"/>
      <point x="13" y="-104" type="curve"/>
      <point x="13" y="-104"/>
      <point x="13" y="-182"/>
      <point x="13" y="-181" type="curve"/>
      <point x="29" y="-187"/>
      <point x="45" y="-189"/>
      <point x="60" y="-189" type="curve" smooth="yes"/>
      <point x="130" y="-189"/>
      <point x="190" y="-133"/>
      <point x="190" y="-40" type="curve" smooth="yes"/>
      <point x="190" y="12"/>
      <point x="169" y="57"/>
      <point x="169" y="103" type="curve" smooth="yes"/>
      <point x="169" y="161"/>
      <point x="195" y="209"/>
      <point x="257" y="222" type="curve" smooth="yes"/>
      <point x="266" y="224"/>
      <point x="279" y="224"/>
      <point x="286" y="224" type="curve"/>
      <point x="286" y="301" type="line"/>
      <point x="279" y="301"/>
      <point x="268" y="301"/>
      <point x="257" y="303" type="curve" smooth="yes"/>
      <point x="198" y="312"/>
      <point x="169" y="362"/>
      <point x="169" y="420" type="curve" smooth="yes"/>
      <point x="169" y="466"/>
      <point x="190" y="511"/>
      <point x="190" y="563" type="curve" smooth="yes"/>
      <point x="190" y="656"/>
      <point x="130" y="713"/>
      <point x="60" y="713" type="curve" smooth="yes"/>
      <point x="45" y="713"/>
      <point x="29" y="710"/>
      <point x="13" y="705" type="curve"/>
      <point x="13" y="705"/>
      <point x="13" y="627"/>
      <point x="13" y="627" type="curve"/>
      <point x="24" y="633"/>
      <point x="37" y="636"/>
      <point x="47" y="636" type="curve" smooth="yes"/>
      <point x="89" y="636"/>
      <point x="109" y="602"/>
      <point x="109" y="562" type="curve" smooth="yes"/>
      <point x="109" y="508"/>
      <point x="89" y="463"/>
      <point x="89" y="405" type="curve" smooth="yes"/>
      <point x="89" y="333"/>
      <point x="130" y="275"/>
    </contour>
  </outline>
</glyph>
<glyph name="asciitilde" format="1">
  <advance width="599"/>
  <unicode hex="007E"/>
  <outline>
    <contour>
      <point x="504" y="326" type="line"/>
      <point x="483" y="290"/>
      <point x="453" y="266"/>
      <point x="413" y="266" type="curve" smooth="yes"/>
      <point x="342" y="266"/>
      <point x="292" y="340"/>
      <point x="192" y="340" type="curve" smooth="yes"/>
      <point x="133" y="340"/>
      <point x="79" y="305"/>
      <point x="36" y="245" type="curve"/>
      <point x="89" y="199" type="line"/>
      <point x="123" y="248"/>
      <point x="161" y="268"/>
      <point x="204" y="268" type="curve" smooth="yes"/>
      <point x="266" y="268"/>
      <point x="332" y="194"/>
      <point x="420" y="194" type="curve" smooth="yes"/>
      <point x="485" y="194"/>
      <point x="528" y="230"/>
      <point x="563" y="284" type="curve"/>
    </contour>
  </outline>
</glyph>
<glyph name="exclamdown" format="1">
  <advance width="251"/>
  <unicode hex="00A1"/>
  <outline>
    <contour>
      <point x="87" y="305" type="line"/>
      <point x="164" y="305" type="line"/>
      <point x="164" y="-165" type="line"/>
      <point x="87" y="-165" type="line"/>
    </contour>
    <contour>
      <point x="65" y="458" type="curve" smooth="yes"/>
      <point x="65" y="492"/>
      <point x="90" y="517"/>
      <point x="124" y="517" type="curve" smooth="yes"/>
      <point x="158" y="517"/>
      <point x="184" y="492"/>
      <point x="184" y="458" type="curve" smooth="yes"/>
      <point x="184" y="426"/>
      <point x="158" y="399"/>
      <point x="124" y="399" type="curve" smooth="yes"/>
      <point x="90" y="399"/>
      <point x="65" y="426"/>
    </contour>
  </outline>
</glyph>
<glyph name="cent" format="1">
  <advance width="452"/>
  <unicode hex="00A2"/>
  <outline>
    <contour>
      <point x="127" y="251" type="curve" smooth="yes"/>
      <point x="128" y="356"/>
      <point x="199" y="441"/>
      <point x="318" y="441" type="curve" smooth="yes"/>
      <point x="348" y="441"/>
      <point x="382" y="432"/>
      <point x="412" y="416" type="curve"/>
      <point x="412" y="490" type="line"/>
      <point x="375" y="507"/>
      <point x="341" y="513"/>
      <point x="310" y="513" type="curve" smooth="yes"/>
      <point x="140" y="513"/>
      <point x="46" y="387"/>
      <point x="46" y="252" type="curve" smooth="yes"/>
      <point x="46" y="112"/>
      <point x="140" y="-8"/>
      <point x="308" y="-8" type="curve" smooth="yes"/>
      <point x="342" y="-8"/>
      <point x="378" y="-2"/>
      <point x="412" y="14" type="curve"/>
      <point x="412" y="88" type="line"/>
      <point x="384" y="72"/>
      <point x="348" y="64"/>
      <point x="318" y="64" type="curve" smooth="yes"/>
      <point x="192" y="64"/>
      <point x="128" y="149"/>
    </contour>
    <contour>
      <point x="334" y="460" type="line"/>
      <point x="334" y="615" type="line"/>
      <point x="265" y="615" type="line"/>
      <point x="265" y="460" type="line"/>
    </contour>
    <contour>
      <point x="265" y="46" type="line"/>
      <point x="265" y="-111" type="line"/>
      <point x="334" y="-111" type="line"/>
      <point x="334" y="46" type="line"/>
    </contour>
  </outline>
</glyph>
<glyph name="sterling" format="1">
  <advance width="522"/>
  <unicode hex="00A3"/>
  <outline>
    <contour>
      <point x="61" y="66" type="line"/>
      <point x="139" y="103"/>
      <point x="160" y="149"/>
      <point x="160" y="249" type="curve"/>
      <point x="160" y="311"/>
      <point x="143" y="392"/>
      <point x="143" y="449" type="curve"/>
      <point x="143" y="584"/>
      <point x="218" y="659"/>
      <point x="347" y="659" type="curve" smooth="yes"/>
      <point x="386" y="659"/>
      <point x="425" y="649"/>
      <point x="455" y="634" type="curve"/>
      <point x="455" y="556" type="line"/>
      <point x="421" y="576"/>
      <point x="392" y="584"/>
      <point x="355" y="584" type="curve" smooth="yes"/>
      <point x="271" y="584"/>
      <point x="224" y="544"/>
      <point x="224" y="453" type="curve"/>
      <point x="224" y="389"/>
      <point x="240" y="312"/>
      <point x="240" y="250" type="curve"/>
      <point x="240" y="138"/>
      <point x="204" y="96"/>
      <point x="161" y="69" type="curve"/>
      <point x="483" y="69" type="line"/>
      <point x="483" y="0" type="line"/>
      <point x="61" y="0" type="line"/>
    </contour>
    <contour>
      <point x="66" y="355" type="line"/>
      <point x="412" y="355" type="line"/>
      <point x="412" y="292" type="line"/>
      <point x="66" y="292" type="line"/>
    </contour>
  </outline>
</glyph>
<glyph name="currency" format="1">
  <advance width="543"/>
  <unicode hex="00A4"/>
  <outline>
    <contour>
      <point x="55" y="309" type="curve" smooth="yes"/>
      <point x="55" y="261"/>
      <point x="68" y="218"/>
      <point x="93" y="183" type="curve"/>
      <point x="34" y="125" type="line"/>
      <point x="85" y="76" type="line"/>
      <point x="143" y="134" type="line"/>
      <point x="177" y="111"/>
      <point x="220" y="98"/>
      <point x="269" y="98" type="curve" smooth="yes"/>
      <point x="317" y="98"/>
      <point x="361" y="112"/>
      <point x="397" y="137" type="curve"/>
      <point x="459" y="76" type="line"/>
      <point x="509" y="125" type="line"/>
      <point x="447" y="186" type="line"/>
      <point x="473" y="222"/>
      <point x="489" y="266"/>
      <point x="489" y="315" type="curve" smooth="yes"/>
      <point x="489" y="363"/>
      <point x="474" y="406"/>
      <point x="451" y="440" type="curve"/>
      <point x="509" y="498" type="line"/>
      <point x="459" y="547" type="line"/>
      <point x="401" y="490" type="line"/>
      <point x="366" y="513"/>
      <point x="323" y="527"/>
      <point x="275" y="527" type="curve" smooth="yes"/>
      <point x="226" y="527"/>
      <point x="181" y="512"/>
      <point x="145" y="486" type="curve"/>
      <point x="85" y="547" type="line"/>
      <point x="34" y="498" type="line"/>
      <point x="95" y="437" type="line"/>
      <point x="70" y="402"/>
      <point x="55" y="357"/>
    </contour>
    <contour>
      <point x="123" y="313" type="curve" smooth="yes"/>
      <point x="123" y="398"/>
      <point x="185" y="462"/>
      <point x="272" y="462" type="curve" smooth="yes"/>
      <point x="358" y="462"/>
      <point x="420" y="397"/>
      <point x="420" y="312" type="curve" smooth="yes"/>
      <point x="420" y="226"/>
      <point x="358" y="163"/>
      <point x="272" y="163" type="curve" smooth="yes"/>
      <point x="185" y="163"/>
      <point x="123" y="227"/>
    </contour>
  </outline>
</glyph>
<glyph name="yen" format="1">
  <advance width="585"/>
  <unicode hex="00A5"/>
  <outline>
    <contour>
      <point x="259" y="303" type="line"/>
      <point x="72" y="303" type="line"/>
      <point x="72" y="362" type="line"/>
      <point x="259" y="362" type="line"/>
    </contour>
    <contour>
      <point x="72" y="215" type="line"/>
      <point x="509" y="215" type="line"/>
      <point x="509" y="157" type="line"/>
      <point x="72" y="157" type="line"/>
    </contour>
    <contour>
      <point x="252" y="247" type="line"/>
      <point x="33" y="654" type="line"/>
      <point x="125" y="654" type="line"/>
      <point x="290" y="332" type="line"/>
      <point x="457" y="654" type="line"/>
      <point x="549" y="654" type="line"/>
      <point x="327" y="247" type="line"/>
    </contour>
    <contour>
      <point x="249" y="268" type="line"/>
      <point x="331" y="268" type="line"/>
      <point x="331" y="0" type="line"/>
      <point x="249" y="0" type="line"/>
    </contour>
    <contour>
      <point x="509" y="303" type="line"/>
      <point x="321" y="303" type="line"/>
      <point x="321" y="362" type="line"/>
      <point x="509" y="362" type="line"/>
    </contour>
  </outline>
</glyph>
<glyph name="brokenbar" format="1">
  <advance width="228"/>
  <unicode hex="00A6"/>
  <outline>
    <contour>
      <point x="150" y="367" type="line"/>
      <point x="150" y="698" type="line"/>
      <point x="78" y="698" type="line"/>
      <point x="78" y="367" type="line"/>
    </contour>
    <contour>
      <point x="150" y="-178" type="line"/>
      <point x="150" y="153" type="line"/>
      <point x="78" y="153" type="line"/>
      <point x="78" y="-178" type="line"/>
    </contour>
  </outline>
</glyph>
<glyph name="section" format="1">
  <advance width="512"/>
  <unicode hex="00A7"/>
  <outline>
    <contour>
      <point x="391" y="63" type="line"/>
      <point x="432" y="92"/>
      <point x="458" y="141"/>
      <point x="458" y="203" type="curve" smooth="yes"/>
      <point x="458" y="314"/>
      <point x="373" y="355"/>
      <point x="288" y="394" type="curve" smooth="yes"/>
      <point x="205" y="432"/>
      <point x="139" y="443"/>
      <point x="139" y="511" type="curve" smooth="yes"/>
      <point x="139" y="571"/>
      <point x="189" y="604"/>
      <point x="272" y="604" type="curve" smooth="yes"/>
      <point x="323" y="604"/>
      <point x="382" y="587"/>
      <point x="417" y="564" type="curve"/>
      <point x="417" y="649" type="line"/>
      <point x="374" y="671"/>
      <point x="318" y="680"/>
      <point x="269" y="680" type="curve" smooth="yes"/>
      <point x="151" y="680"/>
      <point x="55" y="624"/>
      <point x="55" y="508" type="curve" smooth="yes"/>
      <point x="55" y="394"/>
      <point x="161" y="370"/>
      <point x="252" y="328" type="curve" smooth="yes"/>
      <point x="322" y="295"/>
      <point x="379" y="266"/>
      <point x="379" y="203" type="curve" smooth="yes"/>
      <point x="379" y="165"/>
      <point x="363" y="134"/>
      <point x="334" y="113" type="curve"/>
    </contour>
    <contour>
      <point x="101" y="421" type="line"/>
      <point x="71" y="391"/>
      <point x="51" y="350"/>
      <point x="51" y="299" type="curve" smooth="yes"/>
      <point x="51" y="181"/>
      <point x="151" y="140"/>
      <point x="242" y="100" type="curve" smooth="yes"/>
      <point x="327" y="62"/>
      <point x="373" y="35"/>
      <point x="373" y="-23" type="curve" smooth="yes"/>
      <point x="373" y="-92"/>
      <point x="322" y="-128"/>
      <point x="237" y="-128" type="curve" smooth="yes"/>
      <point x="171" y="-128"/>
      <point x="104" y="-106"/>
      <point x="59" y="-72" type="curve"/>
      <point x="59" y="-159" type="line"/>
      <point x="108" y="-188"/>
      <point x="175" y="-203"/>
      <point x="240" y="-203" type="curve" smooth="yes"/>
      <point x="362" y="-203"/>
      <point x="456" y="-142"/>
      <point x="456" y="-22" type="curve" smooth="yes"/>
      <point x="456" y="91"/>
      <point x="359" y="132"/>
      <point x="273" y="169" type="curve" smooth="yes"/>
      <point x="195" y="203"/>
      <point x="132" y="231"/>
      <point x="132" y="300" type="curve" smooth="yes"/>
      <point x="132" y="329"/>
      <point x="144" y="359"/>
      <point x="168" y="379" type="curve"/>
    </contour>
  </outline>
</glyph>
<glyph name="dieresis" format="1">
  <advance width="421"/>
  <unicode hex="00A8"/>
  <outline>
    <contour>
      <point x="58" y="723" type="curve" smooth="yes"/>
      <point x="58" y="694"/>
      <point x="80" y="671"/>
      <point x="110" y="671" type="curve" smooth="yes"/>
      <point x="139" y="671"/>
      <point x="161" y="694"/>
      <point x="161" y="723" type="curve" smooth="yes"/>
      <point x="161" y="752"/>
      <point x="139" y="774"/>
      <point x="110" y="774" type="curve" smooth="yes"/>
      <point x="80" y="774"/>
      <point x="58" y="752"/>
    </contour>
    <contour>
      <point x="260" y="723" type="curve" smooth="yes"/>
      <point x="260" y="694"/>
      <point x="282" y="671"/>
      <point x="311" y="671" type="curve" smooth="yes"/>
      <point x="341" y="671"/>
      <point x="363" y="694"/>
      <point x="363" y="723" type="curve" smooth="yes"/>
      <point x="363" y="752"/>
      <point x="341" y="774"/>
      <point x="311" y="774" type="curve" smooth="yes"/>
      <point x="282" y="774"/>
      <point x="260" y="752"/>
    </contour>
  </outline>
</glyph>
<glyph name="copyright" format="1">
  <advance width="776"/>
  <unicode hex="00A9"/>
  <outline>
    <contour>
      <point x="43" y="336" type="curve" smooth="yes"/>
      <point x="43" y="148"/>
      <point x="199" y="-9"/>
      <point x="388" y="-9" type="curve" smooth="yes"/>
      <point x="577" y="-9"/>
      <point x="733" y="148"/>
      <point x="733" y="336" type="curve" smooth="yes"/>
      <point x="733" y="525"/>
      <point x="577" y="682"/>
      <point x="388" y="682" type="curve" smooth="yes"/>
      <point x="199" y="682"/>
      <point x="43" y="525"/>
    </contour>
    <contour>
      <point x="110" y="336" type="curve" smooth="yes"/>
      <point x="110" y="490"/>
      <point x="235" y="616"/>
      <point x="389" y="616" type="curve" smooth="yes"/>
      <point x="543" y="616"/>
      <point x="668" y="490"/>
      <point x="668" y="336" type="curve" smooth="yes"/>
      <point x="668" y="182"/>
      <point x="543" y="57"/>
      <point x="389" y="57" type="curve" smooth="yes"/>
      <point x="235" y="57"/>
      <point x="110" y="182"/>
    </contour>
    <contour>
      <point x="293" y="334" type="curve" smooth="yes"/>
      <point x="293" y="410"/>
      <point x="344" y="462"/>
      <point x="417" y="462" type="curve" smooth="yes"/>
      <point x="440" y="462"/>
      <point x="472" y="454"/>
      <point x="495" y="439" type="curve"/>
      <point x="495" y="504" type="line"/>
      <point x="468" y="519"/>
      <point x="434" y="524"/>
      <point x="412" y="524" type="curve" smooth="yes"/>
      <point x="291" y="524"/>
      <point x="224" y="432"/>
      <point x="223" y="335" type="curve" smooth="yes"/>
      <point x="223" y="234"/>
      <point x="293" y="147"/>
      <point x="411" y="147" type="curve" smooth="yes"/>
      <point x="439" y="147"/>
      <point x="475" y="155"/>
      <point x="495" y="168" type="curve"/>
      <point x="495" y="233" type="line"/>
      <point x="477" y="219"/>
      <point x="445" y="208"/>
      <point x="417" y="208" type="curve" smooth="yes"/>
      <point x="342" y="208"/>
      <point x="294" y="263"/>
    </contour>
  </outline>
</glyph>
<glyph name="ordfeminine" format="1">
  <advance width="350"/>
  <unicode hex="00AA"/>
  <outline>
    <contour>
      <point x="253" y="529" type="line"/>
      <point x="253" y="485"/>
      <point x="213" y="445"/>
      <point x="154" y="445" type="curve" smooth="yes"/>
      <point x="99" y="445"/>
      <point x="71" y="474"/>
      <point x="71" y="514" type="curve" smooth="yes"/>
      <point x="71" y="563"/>
      <point x="113" y="588"/>
      <point x="190" y="588" type="curve" smooth="yes"/>
      <point x="268" y="588" type="line"/>
      <point x="268" y="643" type="line"/>
      <point x="178" y="643" type="line" smooth="yes"/>
      <point x="70" y="643"/>
      <point x="2" y="595"/>
      <point x="2" y="512" type="curve" smooth="yes"/>
      <point x="2" y="436"/>
      <point x="56" y="388"/>
      <point x="136" y="388" type="curve" smooth="yes"/>
      <point x="188" y="388"/>
      <point x="230" y="413"/>
      <point x="255" y="446" type="curve"/>
      <point x="255" y="392" type="line"/>
      <point x="320" y="392" type="line"/>
      <point x="320" y="662" type="line" smooth="yes"/>
      <point x="320" y="767"/>
      <point x="274" y="826"/>
      <point x="159" y="826" type="curve" smooth="yes"/>
      <point x="112" y="826"/>
      <point x="62" y="812"/>
      <point x="33" y="795" type="curve"/>
      <point x="33" y="730" type="line"/>
      <point x="66" y="752"/>
      <point x="113" y="767"/>
      <point x="154" y="767" type="curve" smooth="yes"/>
      <point x="230" y="767"/>
      <point x="253" y="727"/>
      <point x="253" y="664" type="curve" smooth="yes"/>
    </contour>
  </outline>
</glyph>
<glyph name="guillemotleft" format="1">
  <advance width="480"/>
  <unicode hex="00AB"/>
  <outline>
    <contour>
      <point x="27" y="253" type="line"/>
      <point x="177" y="415" type="line"/>
      <point x="264" y="415" type="line"/>
      <point x="118" y="253" type="line"/>
    </contour>
    <contour>
      <point x="118" y="253" type="line"/>
      <point x="264" y="91" type="line"/>
      <point x="177" y="91" type="line"/>
      <point x="27" y="253" type="line"/>
    </contour>
    <contour>
      <point x="213" y="253" type="line"/>
      <point x="363" y="415" type="line"/>
      <point x="450" y="415" type="line"/>
      <point x="304" y="253" type="line"/>
    </contour>
    <contour>
      <point x="304" y="253" type="line"/>
      <point x="450" y="91" type="line"/>
      <point x="363" y="91" type="line"/>
      <point x="213" y="253" type="line"/>
    </contour>
  </outline>
</glyph>
<glyph name="logicalnot" format="1">
  <advance width="549"/>
  <unicode hex="00AC"/>
  <outline>
    <contour>
      <point x="512" y="160" type="line"/>
      <point x="512" y="413" type="line"/>
      <point x="25" y="413" type="line"/>
      <point x="25" y="342" type="line"/>
      <point x="439" y="342" type="line"/>
      <point x="439" y="160" type="line"/>
    </contour>
  </outline>
</glyph>
<glyph name="registered" format="1">
  <advance width="449"/>
  <unicode hex="00AE"/>
  <outline>
    <contour>
      <point x="205" y="579" type="line"/>
      <point x="268" y="473" type="line"/>
      <point x="320" y="473" type="line"/>
      <point x="253" y="579" type="line"/>
    </contour>
    <contour>
      <point x="257" y="619" type="curve" smooth="yes"/>
      <point x="257" y="599"/>
      <point x="248" y="587"/>
      <point x="228" y="587" type="curve" smooth="yes"/>
      <point x="159" y="587" type="line"/>
      <point x="159" y="551" type="line"/>
      <point x="223" y="551" type="line" smooth="yes"/>
      <point x="275" y="551"/>
      <point x="302" y="578"/>
      <point x="302" y="619" type="curve" smooth="yes"/>
      <point x="302" y="661"/>
      <point x="277" y="687"/>
      <point x="220" y="687" type="curve" smooth="yes"/>
      <point x="159" y="687" type="line"/>
      <point x="159" y="651" type="line"/>
      <point x="225" y="651" type="line" smooth="yes"/>
      <point x="246" y="651"/>
      <point x="257" y="643"/>
    </contour>
    <contour>
      <point x="159" y="473" type="line"/>
      <point x="203" y="473" type="line"/>
      <point x="203" y="687" type="line"/>
      <point x="159" y="687" type="line"/>
    </contour>
    <contour>
      <point x="10" y="573" type="curve" smooth="yes"/>
      <point x="10" y="449"/>
      <point x="100" y="360"/>
      <point x="225" y="360" type="curve" smooth="yes"/>
      <point x="349" y="360"/>
      <point x="439" y="449"/>
      <point x="439" y="573" type="curve" smooth="yes"/>
      <point x="439" y="697"/>
      <point x="349" y="788"/>
      <point x="225" y="788" type="curve" smooth="yes"/>
      <point x="100" y="788"/>
      <point x="10" y="697"/>
    </contour>
    <contour>
      <point x="59" y="573" type="curve" smooth="yes"/>
      <point x="59" y="673"/>
      <point x="124" y="741"/>
      <point x="226" y="741" type="curve" smooth="yes"/>
      <point x="326" y="741"/>
      <point x="393" y="673"/>
      <point x="393" y="573" type="curve" smooth="yes"/>
      <point x="393" y="474"/>
      <point x="326" y="406"/>
      <point x="226" y="406" type="curve" smooth="yes"/>
      <point x="124" y="406"/>
      <point x="59" y="474"/>
    </contour>
  </outline>
</glyph>
<glyph name="degree" format="1">
  <advance width="355"/>
  <unicode hex="00B0"/>
  <outline>
    <contour>
      <point x="30" y="530" type="curve" smooth="yes"/>
      <point x="30" y="445"/>
      <point x="91" y="386"/>
      <point x="176" y="386" type="curve" smooth="yes"/>
      <point x="260" y="386"/>
      <point x="325" y="448"/>
      <point x="325" y="533" type="curve" smooth="yes"/>
      <point x="325" y="617"/>
      <point x="263" y="676"/>
      <point x="179" y="676" type="curve" smooth="yes"/>
      <point x="94" y="676"/>
      <point x="30" y="614"/>
    </contour>
    <contour>
      <point x="93" y="531" type="curve" smooth="yes"/>
      <point x="93" y="579"/>
      <point x="128" y="618"/>
      <point x="176" y="618" type="curve" smooth="yes"/>
      <point x="224" y="618"/>
      <point x="261" y="579"/>
      <point x="261" y="531" type="curve" smooth="yes"/>
      <point x="261" y="483"/>
      <point x="227" y="445"/>
      <point x="179" y="445" type="curve" smooth="yes"/>
      <point x="131" y="445"/>
      <point x="93" y="483"/>
    </contour>
  </outline>
</glyph>
<glyph name="plusminus" format="1">
  <advance width="553"/>
  <unicode hex="00B1"/>
  <outline>
    <contour>
      <point x="236" y="162" type="line"/>
      <point x="310" y="162" type="line"/>
      <point x="310" y="569" type="line"/>
      <point x="236" y="569" type="line"/>
    </contour>
    <contour>
      <point x="57" y="331" type="line"/>
      <point x="497" y="331" type="line"/>
      <point x="497" y="400" type="line"/>
      <point x="57" y="400" type="line"/>
    </contour>
    <contour>
      <point x="57" y="30" type="line"/>
      <point x="497" y="30" type="line"/>
      <point x="497" y="100" type="line"/>
      <point x="57" y="100" type="line"/>
    </contour>
  </outline>
</glyph>
<glyph name="twosuperior" format="1">
  <advance width="365"/>
  <unicode hex="00B2"/>
  <outline>
    <contour>
      <point x="47" y="392" type="line"/>
      <point x="326" y="392" type="line"/>
      <point x="326" y="447" type="line"/>
      <point x="136" y="447" type="line"/>
      <point x="235" y="521"/>
      <point x="311" y="613"/>
      <point x="311" y="695" type="curve" smooth="yes"/>
      <point x="311" y="782"/>
      <point x="243" y="826"/>
      <point x="170" y="826" type="curve" smooth="yes"/>
      <point x="127" y="826"/>
      <point x="89" y="810"/>
      <point x="61" y="793" type="curve"/>
      <point x="61" y="724" type="line"/>
      <point x="92" y="749"/>
      <point x="131" y="767"/>
      <point x="168" y="767" type="curve" smooth="yes"/>
      <point x="211" y="767"/>
      <point x="245" y="744"/>
      <point x="245" y="690" type="curve" smooth="yes"/>
      <point x="245" y="611"/>
      <point x="144" y="514"/>
      <point x="47" y="441" type="curve"/>
    </contour>
  </outline>
</glyph>
<glyph name="threesuperior" format="1">
  <advance width="325"/>
  <unicode hex="00B3"/>
  <outline>
    <contour>
      <point x="127" y="637" type="line"/>
      <point x="173" y="637"/>
      <point x="212" y="660"/>
      <point x="212" y="705" type="curve" smooth="yes"/>
      <point x="212" y="749"/>
      <point x="183" y="768"/>
      <point x="139" y="768" type="curve" smooth="yes"/>
      <point x="111" y="768"/>
      <point x="75" y="755"/>
      <point x="47" y="737" type="curve"/>
      <point x="47" y="800" type="line"/>
      <point x="69" y="813"/>
      <point x="106" y="826"/>
      <point x="141" y="826" type="curve" smooth="yes"/>
      <point x="233" y="826"/>
      <point x="278" y="772"/>
      <point x="278" y="710" type="curve" smooth="yes"/>
      <point x="278" y="657"/>
      <point x="247" y="622"/>
      <point x="199" y="611" type="curve"/>
      <point x="247" y="607"/>
      <point x="290" y="566"/>
      <point x="290" y="508" type="curve" smooth="yes"/>
      <point x="290" y="439"/>
      <point x="241" y="388"/>
      <point x="149" y="388" type="curve" smooth="yes"/>
      <point x="114" y="388"/>
      <point x="66" y="397"/>
      <point x="35" y="413" type="curve"/>
      <point x="35" y="473" type="line"/>
      <point x="71" y="453"/>
      <point x="108" y="445"/>
      <point x="146" y="445" type="curve" smooth="yes"/>
      <point x="195" y="445"/>
      <point x="225" y="471"/>
      <point x="225" y="511" type="curve" smooth="yes"/>
      <point x="225" y="555"/>
      <point x="191" y="582"/>
      <point x="127" y="582" type="curve" smooth="yes"/>
      <point x="103" y="582" type="line"/>
      <point x="103" y="637" type="line"/>
    </contour>
  </outline>
</glyph>
<glyph name="acute" format="1">
  <advance width="421"/>
  <unicode hex="00B4"/>
  <outline>
    <contour>
      <point x="115" y="642" type="line"/>
      <point x="184" y="642" type="line"/>
      <point x="308" y="798" type="line"/>
      <point x="214" y="798" type="line"/>
    </contour>
  </outline>
</glyph>
<glyph name="mu.math" format="1">
  <advance width="546"/>
  <unicode hex="00B5"/>
  <outline>
    <contour>
      <point x="473" y="507" type="line"/>
      <point x="394" y="507" type="line"/>
      <point x="394" y="0" type="line"/>
      <point x="473" y="0" type="line"/>
    </contour>
    <contour>
      <point x="151" y="459" type="line"/>
      <point x="99" y="459" type="line"/>
      <point x="99" y="158" type="line" smooth="yes"/>
      <point x="99" y="59"/>
      <point x="164" y="-6"/>
      <point x="261" y="-6" type="curve" smooth="yes"/>
      <point x="360" y="-6"/>
      <point x="417" y="62"/>
      <point x="413" y="200" type="curve"/>
      <point x="394" y="228" type="line"/>
      <point x="394" y="127"/>
      <point x="348" y="65"/>
      <point x="273" y="65" type="curve" smooth="yes"/>
      <point x="212" y="65"/>
      <point x="151" y="103"/>
      <point x="151" y="178" type="curve" smooth="yes"/>
    </contour>
    <contour>
      <point x="151" y="507" type="line"/>
      <point x="73" y="507" type="line"/>
      <point x="73" y="-179" type="line"/>
      <point x="151" y="-179" type="line"/>
    </contour>
  </outline>
</glyph>
<glyph name="paragraph" format="1">
  <advance width="545"/>
  <unicode hex="00B6"/>
  <outline>
    <contour>
      <point x="286" y="674" type="line"/>
      <point x="219" y="674" type="line"/>
      <point x="89" y="674"/>
      <point x="26" y="588"/>
      <point x="26" y="505" type="curve" smooth="yes"/>
      <point x="26" y="417"/>
      <point x="89" y="341"/>
      <point x="215" y="341" type="curve"/>
      <point x="215" y="-148" type="line"/>
      <point x="286" y="-148" type="line"/>
    </contour>
    <contour>
      <point x="401" y="-148" type="line"/>
      <point x="472" y="-148" type="line"/>
      <point x="472" y="674" type="line"/>
      <point x="401" y="674" type="line"/>
    </contour>
  </outline>
</glyph>
<glyph name="cedilla" format="1">
  <advance width="421"/>
  <unicode hex="00B8"/>
  <outline>
    <contour>
      <point x="285" y="-122" type="curve" smooth="yes"/>
      <point x="285" y="-99"/>
      <point x="279" y="-68"/>
      <point x="267" y="-51" type="curve"/>
      <point x="196" y="-51" type="line"/>
      <point x="211" y="-76"/>
      <point x="219" y="-96"/>
      <point x="219" y="-123" type="curve" smooth="yes"/>
      <point x="219" y="-165"/>
      <point x="190" y="-190"/>
      <point x="135" y="-194" type="curve"/>
      <point x="135" y="-252" type="line"/>
      <point x="237" y="-249"/>
      <point x="285" y="-190"/>
    </contour>
  </outline>
</glyph>
<glyph name="onesuperior" format="1">
  <advance width="250"/>
  <unicode hex="00B9"/>
  <outline>
    <contour>
      <point x="10" y="690" type="line"/>
      <point x="117" y="749" type="line"/>
      <point x="117" y="392" type="line"/>
      <point x="179" y="392" type="line"/>
      <point x="179" y="822" type="line"/>
      <point x="127" y="822" type="line"/>
      <point x="10" y="755" type="line"/>
    </contour>
  </outline>
</glyph>
<glyph name="ordmasculine" format="1">
  <advance width="376"/>
  <unicode hex="00BA"/>
  <outline>
    <contour>
      <point x="186" y="386" type="curve" smooth="yes"/>
      <point x="313" y="386"/>
      <point x="381" y="483"/>
      <point x="381" y="607" type="curve" smooth="yes"/>
      <point x="381" y="728"/>
      <point x="317" y="828"/>
      <point x="186" y="828" type="curve" smooth="yes"/>
      <point x="69" y="828"/>
      <point x="-6" y="728"/>
      <point x="-6" y="605" type="curve" smooth="yes"/>
      <point x="-6" y="483"/>
      <point x="63" y="386"/>
    </contour>
    <contour>
      <point x="186" y="769" type="curve" smooth="yes"/>
      <point x="280" y="769"/>
      <point x="312" y="691"/>
      <point x="312" y="606" type="curve" smooth="yes"/>
      <point x="312" y="519"/>
      <point x="272" y="444"/>
      <point x="187" y="444" type="curve" smooth="yes"/>
      <point x="109" y="444"/>
      <point x="63" y="519"/>
      <point x="63" y="606" type="curve" smooth="yes"/>
      <point x="63" y="691"/>
      <point x="105" y="769"/>
    </contour>
  </outline>
</glyph>
<glyph name="guillemotright" format="1">
  <advance width="482"/>
  <unicode hex="00BB"/>
  <outline>
    <contour>
      <point x="453" y="253" type="line"/>
      <point x="302" y="415" type="line"/>
      <point x="215" y="415" type="line"/>
      <point x="362" y="253" type="line"/>
    </contour>
    <contour>
      <point x="362" y="253" type="line"/>
      <point x="215" y="91" type="line"/>
      <point x="302" y="91" type="line"/>
      <point x="453" y="253" type="line"/>
    </contour>
    <contour>
      <point x="267" y="253" type="line"/>
      <point x="116" y="415" type="line"/>
      <point x="29" y="415" type="line"/>
      <point x="176" y="253" type="line"/>
    </contour>
    <contour>
      <point x="176" y="253" type="line"/>
      <point x="29" y="91" type="line"/>
      <point x="116" y="91" type="line"/>
      <point x="267" y="253" type="line"/>
    </contour>
  </outline>
</glyph>
<glyph name="onequarter" format="1">
  <advance width="832"/>
  <unicode hex="00BC"/>
  <outline>
    <contour>
      <point x="664" y="429" type="line"/>
      <point x="664" y="0" type="line"/>
      <point x="725" y="0" type="line"/>
      <point x="725" y="429" type="line"/>
    </contour>
    <contour>
      <point x="467" y="150" type="line"/>
      <point x="467" y="99" type="line"/>
      <point x="787" y="99" type="line"/>
      <point x="787" y="150" type="line"/>
    </contour>
    <contour>
      <point x="631" y="429" type="line"/>
      <point x="467" y="150" type="line"/>
      <point x="531" y="150" type="line"/>
      <point x="692" y="429" type="line"/>
    </contour>
    <contour>
      <point x="65" y="579" type="line"/>
      <point x="172" y="638" type="line"/>
      <point x="172" y="281" type="line"/>
      <point x="235" y="281" type="line"/>
      <point x="235" y="711" type="line"/>
      <point x="183" y="711" type="line"/>
      <point x="65" y="644" type="line"/>
    </contour>
    <contour>
      <point x="144" y="0" type="line"/>
      <point x="215" y="0" type="line"/>
      <point x="666" y="712" type="line"/>
      <point x="595" y="712" type="line"/>
    </contour>
  </outline>
</glyph>
<glyph name="onehalf" format="1">
  <advance width="833"/>
  <unicode hex="00BD"/>
  <outline>
    <contour>
      <point x="514" y="0" type="line"/>
      <point x="793" y="0" type="line"/>
      <point x="793" y="55" type="line"/>
      <point x="604" y="55" type="line"/>
      <point x="702" y="129"/>
      <point x="779" y="221"/>
      <point x="779" y="303" type="curve" smooth="yes"/>
      <point x="779" y="390"/>
      <point x="711" y="434"/>
      <point x="637" y="434" type="curve" smooth="yes"/>
      <point x="595" y="434"/>
      <point x="556" y="418"/>
      <point x="528" y="401" type="curve"/>
      <point x="528" y="332" type="line"/>
      <point x="559" y="357"/>
      <point x="598" y="375"/>
      <point x="635" y="375" type="curve" smooth="yes"/>
      <point x="678" y="375"/>
      <point x="712" y="352"/>
      <point x="712" y="298" type="curve" smooth="yes"/>
      <point x="712" y="219"/>
      <point x="612" y="122"/>
      <point x="514" y="49" type="curve"/>
    </contour>
    <contour>
      <point x="65" y="579" type="line"/>
      <point x="172" y="638" type="line"/>
      <point x="172" y="281" type="line"/>
      <point x="235" y="281" type="line"/>
      <point x="235" y="711" type="line"/>
      <point x="183" y="711" type="line"/>
      <point x="65" y="644" type="line"/>
    </contour>
    <contour>
      <point x="144" y="0" type="line"/>
      <point x="215" y="0" type="line"/>
      <point x="666" y="712" type="line"/>
      <point x="595" y="712" type="line"/>
    </contour>
  </outline>
</glyph>
<glyph name="threequarters" format="1">
  <advance width="866"/>
  <unicode hex="00BE"/>
  <outline>
    <contour>
      <point x="523" y="150" type="line"/>
      <point x="843" y="150" type="line"/>
      <point x="843" y="99" type="line"/>
      <point x="523" y="99" type="line"/>
    </contour>
    <contour>
      <point x="687" y="429" type="line"/>
      <point x="749" y="429" type="line"/>
      <point x="587" y="150" type="line"/>
      <point x="523" y="150" type="line"/>
    </contour>
    <contour>
      <point x="720" y="429" type="line"/>
      <point x="781" y="429" type="line"/>
      <point x="781" y="0" type="line"/>
      <point x="720" y="0" type="line"/>
    </contour>
    <contour>
      <point x="200" y="0" type="line"/>
      <point x="272" y="0" type="line"/>
      <point x="722" y="712" type="line"/>
      <point x="651" y="712" type="line"/>
    </contour>
    <contour>
      <point x="164" y="526" type="line"/>
      <point x="210" y="526"/>
      <point x="249" y="549"/>
      <point x="249" y="594" type="curve" smooth="yes"/>
      <point x="249" y="638"/>
      <point x="220" y="657"/>
      <point x="176" y="657" type="curve" smooth="yes"/>
      <point x="148" y="657"/>
      <point x="112" y="644"/>
      <point x="84" y="626" type="curve"/>
      <point x="84" y="689" type="line"/>
      <point x="106" y="702"/>
      <point x="143" y="715"/>
      <point x="178" y="715" type="curve" smooth="yes"/>
      <point x="270" y="715"/>
      <point x="315" y="661"/>
      <point x="315" y="599" type="curve" smooth="yes"/>
      <point x="315" y="546"/>
      <point x="284" y="511"/>
      <point x="236" y="500" type="curve"/>
      <point x="284" y="496"/>
      <point x="327" y="455"/>
      <point x="327" y="397" type="curve" smooth="yes"/>
      <point x="327" y="328"/>
      <point x="278" y="277"/>
      <point x="186" y="277" type="curve" smooth="yes"/>
      <point x="151" y="277"/>
      <point x="103" y="286"/>
      <point x="72" y="302" type="curve"/>
      <point x="72" y="362" type="line"/>
      <point x="108" y="342"/>
      <point x="145" y="334"/>
      <point x="183" y="334" type="curve" smooth="yes"/>
      <point x="232" y="334"/>
      <point x="262" y="360"/>
      <point x="262" y="400" type="curve" smooth="yes"/>
      <point x="262" y="444"/>
      <point x="228" y="471"/>
      <point x="164" y="471" type="curve" smooth="yes"/>
      <point x="140" y="471" type="line"/>
      <point x="140" y="526" type="line"/>
    </contour>
  </outline>
</glyph>
<glyph name="questiondown" format="1">
  <advance width="452"/>
  <unicode hex="00BF"/>
  <outline>
    <contour>
      <point x="414" y="-52" type="line"/>
      <point x="359" y="-87"/>
      <point x="309" y="-101"/>
      <point x="259" y="-101" type="curve" smooth="yes"/>
      <point x="167" y="-101"/>
      <point x="127" y="-51"/>
      <point x="127" y="13" type="curve" smooth="yes"/>
      <point x="127" y="99"/>
      <point x="200" y="139"/>
      <point x="319" y="139" type="curve"/>
      <point x="318" y="305" type="line"/>
      <point x="242" y="305" type="line"/>
      <point x="241" y="196" type="line"/>
      <point x="150" y="188"/>
      <point x="45" y="133"/>
      <point x="45" y="10" type="curve" smooth="yes"/>
      <point x="45" y="-107"/>
      <point x="129" y="-173"/>
      <point x="254" y="-173" type="curve" smooth="yes"/>
      <point x="318" y="-173"/>
      <point x="379" y="-154"/>
      <point x="414" y="-132" type="curve"/>
    </contour>
    <contour>
      <point x="340" y="459" type="curve" smooth="yes"/>
      <point x="340" y="492"/>
      <point x="315" y="517"/>
      <point x="282" y="517" type="curve" smooth="yes"/>
      <point x="248" y="517"/>
      <point x="221" y="492"/>
      <point x="221" y="459" type="curve" smooth="yes"/>
      <point x="221" y="426"/>
      <point x="248" y="399"/>
      <point x="282" y="399" type="curve" smooth="yes"/>
      <point x="315" y="399"/>
      <point x="340" y="426"/>
    </contour>
  </outline>
</glyph>
<glyph name="AE" format="1">
  <advance width="879"/>
  <unicode hex="00C6"/>
  <outline>
    <contour>
      <point x="23" y="0" type="line"/>
      <point x="110" y="0" type="line"/>
      <point x="274" y="284" type="line" smooth="yes"/>
      <point x="417" y="532"/>
      <point x="484" y="660"/>
      <point x="487" y="674" type="curve"/>
      <point x="406" y="674" type="line"/>
    </contour>
    <contour>
      <point x="191" y="177" type="line"/>
      <point x="493" y="177" type="line"/>
      <point x="493" y="246" type="line"/>
      <point x="191" y="246" type="line"/>
    </contour>
    <contour>
      <point x="473" y="0" type="line"/>
      <point x="831" y="0" type="line"/>
      <point x="831" y="71" type="line"/>
      <point x="473" y="71" type="line"/>
    </contour>
    <contour>
      <point x="456" y="0" type="line"/>
      <point x="536" y="0" type="line"/>
      <point x="536" y="674" type="line"/>
      <point x="456" y="674" type="line"/>
    </contour>
    <contour>
      <point x="473" y="301" type="line"/>
      <point x="792" y="301" type="line"/>
      <point x="792" y="372" type="line"/>
      <point x="473" y="372" type="line"/>
    </contour>
    <contour>
      <point x="473" y="603" type="line"/>
      <point x="825" y="603" type="line"/>
      <point x="825" y="674" type="line"/>
      <point x="473" y="674" type="line"/>
    </contour>
  </outline>
</glyph>
<glyph name="Eth" format="1">
  <advance width="730"/>
  <unicode hex="00D0"/>
  <outline>
    <contour>
      <point x="146" y="0" type="line"/>
      <point x="228" y="0" type="line"/>
      <point x="228" y="674" type="line"/>
      <point x="146" y="674" type="line"/>
    </contour>
    <contour>
      <point x="350" y="0" type="line"/>
      <point x="572" y="0"/>
      <point x="686" y="158"/>
      <point x="686" y="342" type="curve" smooth="yes"/>
      <point x="686" y="539"/>
      <point x="545" y="674"/>
      <point x="346" y="674" type="curve" smooth="yes"/>
      <point x="146" y="674" type="line"/>
      <point x="146" y="602" type="line"/>
      <point x="345" y="602" type="line" smooth="yes"/>
      <point x="502" y="602"/>
      <point x="602" y="485"/>
      <point x="602" y="342" type="curve" smooth="yes"/>
      <point x="602" y="200"/>
      <point x="526" y="71"/>
      <point x="350" y="71" type="curve" smooth="yes"/>
      <point x="146" y="71" type="line"/>
      <point x="146" y="0" type="line"/>
    </contour>
    <contour>
      <point x="403" y="304" type="line"/>
      <point x="403" y="372" type="line"/>
      <point x="61" y="372" type="line"/>
      <point x="61" y="304" type="line"/>
    </contour>
  </outline>
</glyph>
<glyph name="multiply" format="1">
  <advance width="491"/>
  <unicode hex="00D7"/>
  <outline>
    <contour>
      <point x="377" y="159" type="line"/>
      <point x="428" y="210" type="line"/>
      <point x="110" y="525" type="line"/>
      <point x="59" y="475" type="line"/>
    </contour>
    <contour>
      <point x="114" y="159" type="line"/>
      <point x="431" y="475" type="line"/>
      <point x="380" y="526" type="line"/>
      <point x="63" y="211" type="line"/>
    </contour>
  </outline>
</glyph>
<glyph name="Oslash" format="1">
  <advance width="675"/>
  <unicode hex="00D8"/>
  <outline>
    <contour>
      <point x="41" y="340" type="curve" smooth="yes"/>
      <point x="41" y="129"/>
      <point x="162" y="-8"/>
      <point x="345" y="-8" type="curve" smooth="yes"/>
      <point x="530" y="-8"/>
      <point x="646" y="129"/>
      <point x="646" y="340" type="curve" smooth="yes"/>
      <point x="646" y="551"/>
      <point x="534" y="687"/>
      <point x="343" y="687" type="curve" smooth="yes"/>
      <point x="158" y="687"/>
      <point x="41" y="551"/>
    </contour>
    <contour>
      <point x="125" y="340" type="curve" smooth="yes"/>
      <point x="125" y="509"/>
      <point x="207" y="612"/>
      <point x="343" y="612" type="curve" smooth="yes"/>
      <point x="483" y="612"/>
      <point x="562" y="510"/>
      <point x="562" y="340" type="curve" smooth="yes"/>
      <point x="562" y="171"/>
      <point x="483" y="67"/>
      <point x="345" y="67" type="curve" smooth="yes"/>
      <point x="212" y="67"/>
      <point x="125" y="170"/>
    </contour>
    <contour>
      <point x="41" y="-9" type="line"/>
      <point x="127" y="-9" type="line"/>
      <point x="647" y="687" type="line"/>
      <point x="559" y="687" type="line"/>
    </contour>
  </outline>
</glyph>
<glyph name="Thorn" format="1">
  <advance width="536"/>
  <unicode hex="00DE"/>
  <outline>
    <contour>
      <point x="254" y="124" type="line"/>
      <point x="412" y="124"/>
      <point x="498" y="215"/>
      <point x="498" y="333" type="curve" smooth="yes"/>
      <point x="498" y="459"/>
      <point x="413" y="550"/>
      <point x="246" y="550" type="curve" smooth="yes"/>
      <point x="77" y="550" type="line"/>
      <point x="77" y="481" type="line"/>
      <point x="249" y="481" type="line" smooth="yes"/>
      <point x="367" y="481"/>
      <point x="416" y="418"/>
      <point x="416" y="331" type="curve" smooth="yes"/>
      <point x="416" y="255"/>
      <point x="367" y="193"/>
      <point x="257" y="193" type="curve" smooth="yes"/>
      <point x="77" y="193" type="line"/>
      <point x="77" y="124" type="line"/>
    </contour>
    <contour>
      <point x="77" y="0" type="line"/>
      <point x="158" y="0" type="line"/>
      <point x="158" y="674" type="line"/>
      <point x="77" y="674" type="line"/>
    </contour>
  </outline>
</glyph>
<glyph name="germandbls" format="1">
  <advance width="541"/>
  <unicode hex="00DF"/>
  <outline>
    <contour>
      <point x="258" y="82" type="line"/>
      <point x="287" y="67"/>
      <point x="309" y="62"/>
      <point x="343" y="62" type="curve" smooth="yes"/>
      <point x="399" y="62"/>
      <point x="434" y="91"/>
      <point x="434" y="133" type="curve" smooth="yes"/>
      <point x="434" y="225"/>
      <point x="284" y="245"/>
      <point x="284" y="352" type="curve" smooth="yes"/>
      <point x="284" y="434"/>
      <point x="365" y="456"/>
      <point x="365" y="534" type="curve" smooth="yes"/>
      <point x="365" y="584"/>
      <point x="326" y="617"/>
      <point x="267" y="617" type="curve" smooth="yes"/>
      <point x="195" y="617"/>
      <point x="155" y="580"/>
      <point x="155" y="498" type="curve"/>
      <point x="155" y="0" type="line"/>
      <point x="76" y="0" type="line"/>
      <point x="76" y="496" type="line"/>
      <point x="76" y="629"/>
      <point x="156" y="690"/>
      <point x="269" y="690" type="curve" smooth="yes"/>
      <point x="378" y="690"/>
      <point x="445" y="619"/>
      <point x="445" y="536" type="curve" smooth="yes"/>
      <point x="445" y="434"/>
      <point x="368" y="409"/>
      <point x="368" y="358" type="curve" smooth="yes"/>
      <point x="368" y="291"/>
      <point x="512" y="268"/>
      <point x="512" y="137" type="curve" smooth="yes"/>
      <point x="512" y="55"/>
      <point x="452" y="-7"/>
      <point x="344" y="-7" type="curve" smooth="yes"/>
      <point x="313" y="-7"/>
      <point x="284" y="-5"/>
      <point x="258" y="6" type="curve"/>
    </contour>
  </outline>
</glyph>
<glyph name="ae" format="1">
  <advance width="819"/>
  <unicode hex="00E6"/>
  <outline>
    <contour>
      <point x="774" y="220" type="line"/>
      <point x="777" y="236"/>
      <point x="779" y="262"/>
      <point x="779" y="275" type="curve" smooth="yes"/>
      <point x="779" y="428"/>
      <point x="707" y="513"/>
      <point x="576" y="513" type="curve" smooth="yes"/>
      <point x="502" y="513"/>
      <point x="439" y="482"/>
      <point x="401" y="425" type="curve"/>
      <point x="378" y="482"/>
      <point x="324" y="515"/>
      <point x="236" y="515" type="curve" smooth="yes"/>
      <point x="180" y="515"/>
      <point x="123" y="500"/>
      <point x="89" y="479" type="curve"/>
      <point x="89" y="402" type="line"/>
      <point x="127" y="427"/>
      <point x="184" y="444"/>
      <point x="233" y="444" type="curve" smooth="yes"/>
      <point x="322" y="444"/>
      <point x="351" y="399"/>
      <point x="351" y="323" type="curve" smooth="yes"/>
      <point x="351" y="298" type="line"/>
      <point x="261" y="298" type="line" smooth="yes"/>
      <point x="133" y="298"/>
      <point x="52" y="241"/>
      <point x="52" y="142" type="curve" smooth="yes"/>
      <point x="52" y="51"/>
      <point x="118" y="-5"/>
      <point x="215" y="-5" type="curve" smooth="yes"/>
      <point x="309" y="-5"/>
      <point x="372" y="40"/>
      <point x="396" y="99" type="curve"/>
      <point x="436" y="35"/>
      <point x="516" y="-5"/>
      <point x="603" y="-5" type="curve" smooth="yes"/>
      <point x="648" y="-5"/>
      <point x="706" y="6"/>
      <point x="743" y="26" type="curve"/>
      <point x="743" y="100" type="line"/>
      <point x="708" y="76"/>
      <point x="654" y="65"/>
      <point x="609" y="65" type="curve" smooth="yes"/>
      <point x="516" y="65"/>
      <point x="443" y="117"/>
      <point x="430" y="220" type="curve"/>
    </contour>
    <contour>
      <point x="575" y="444" type="curve" smooth="yes"/>
      <point x="648" y="444"/>
      <point x="700" y="397"/>
      <point x="701" y="306" type="curve" smooth="yes"/>
      <point x="701" y="305"/>
      <point x="701" y="287"/>
      <point x="701" y="286" type="curve"/>
      <point x="429" y="286" type="line"/>
      <point x="441" y="396"/>
      <point x="505" y="444"/>
    </contour>
    <contour>
      <point x="351" y="177" type="line"/>
      <point x="351" y="107"/>
      <point x="298" y="64"/>
      <point x="233" y="64" type="curve" smooth="yes"/>
      <point x="167" y="64"/>
      <point x="134" y="97"/>
      <point x="134" y="145" type="curve" smooth="yes"/>
      <point x="134" y="203"/>
      <point x="183" y="232"/>
      <point x="276" y="232" type="curve" smooth="yes"/>
      <point x="351" y="232" type="line"/>
    </contour>
  </outline>
</glyph>
<glyph name="igrave" format="1">
  <advance width="233"/>
  <unicode hex="00EC"/>
  <outline>
    <contour>
      <point x="77" y="0" type="line"/>
      <point x="156" y="0" type="line"/>
      <point x="156" y="507" type="line"/>
      <point x="77" y="507" type="line"/>
    </contour>
    <component base="grave" xOffset="-163" yOffset="-83"/>
  </outline>
</glyph>
<glyph name="iacute" format="1">
  <advance width="233"/>
  <unicode hex="00ED"/>
  <outline>
    <contour>
      <point x="77" y="0" type="line"/>
      <point x="156" y="0" type="line"/>
      <point x="156" y="507" type="line"/>
      <point x="77" y="507" type="line"/>
    </contour>
    <component base="acute" xOffset="-27" yOffset="-82"/>
  </outline>
</glyph>
<glyph name="icircumflex" format="1">
  <advance width="233"/>
  <unicode hex="00EE"/>
  <outline>
    <contour>
      <point x="77" y="0" type="line"/>
      <point x="156" y="0" type="line"/>
      <point x="156" y="507" type="line"/>
      <point x="77" y="507" type="line"/>
    </contour>
    <component base="circumflex" xOffset="-93" yOffset="-82"/>
  </outline>
</glyph>
<glyph name="idieresis" format="1">
  <advance width="233"/>
  <unicode hex="00EF"/>
  <outline>
    <contour>
      <point x="77" y="0" type="line"/>
      <point x="156" y="0" type="line"/>
      <point x="156" y="507" type="line"/>
      <point x="77" y="507" type="line"/>
    </contour>
    <component base="dieresis" xOffset="-94" yOffset="-83"/>
  </outline>
</glyph>
<glyph name="eth" format="1">
  <advance width="517"/>
  <unicode hex="00F0"/>
  <outline>
    <contour>
      <point x="255" y="674" type="line"/>
      <point x="358" y="607"/>
      <point x="471" y="461"/>
      <point x="471" y="269" type="curve" smooth="yes"/>
      <point x="471" y="84"/>
      <point x="384" y="-9"/>
      <point x="251" y="-9" type="curve" smooth="yes"/>
      <point x="120" y="-9"/>
      <point x="38" y="90"/>
      <point x="38" y="202" type="curve" smooth="yes"/>
      <point x="38" y="336"/>
      <point x="135" y="408"/>
      <point x="239" y="408" type="curve" smooth="yes"/>
      <point x="317" y="408"/>
      <point x="385" y="366"/>
      <point x="418" y="298" type="curve"/>
      <point x="417" y="222" type="line"/>
      <point x="385" y="284"/>
      <point x="325" y="335"/>
      <point x="245" y="335" type="curve" smooth="yes"/>
      <point x="176" y="335"/>
      <point x="120" y="288"/>
      <point x="120" y="200" type="curve" smooth="yes"/>
      <point x="120" y="115"/>
      <point x="176" y="64"/>
      <point x="251" y="64" type="curve" smooth="yes"/>
      <point x="327" y="64"/>
      <point x="396" y="119"/>
      <point x="396" y="270" type="curve" smooth="yes"/>
      <point x="396" y="480"/>
      <point x="245" y="615"/>
      <point x="131" y="674" type="curve"/>
    </contour>
    <contour>
      <point x="161" y="464" type="line"/>
      <point x="161" y="525" type="line"/>
      <point x="452" y="674" type="line"/>
      <point x="452" y="613" type="line"/>
    </contour>
  </outline>
</glyph>
<glyph name="divide" format="1">
  <advance width="553"/>
  <unicode hex="00F7"/>
  <outline>
    <contour>
      <point x="223" y="518" type="curve" smooth="yes"/>
      <point x="223" y="490"/>
      <point x="247" y="466"/>
      <point x="276" y="466" type="curve" smooth="yes"/>
      <point x="304" y="466"/>
      <point x="328" y="490"/>
      <point x="328" y="518" type="curve" smooth="yes"/>
      <point x="328" y="547"/>
      <point x="304" y="571"/>
      <point x="276" y="571" type="curve" smooth="yes"/>
      <point x="247" y="571"/>
      <point x="223" y="547"/>
    </contour>
    <contour>
      <point x="57" y="304" type="line"/>
      <point x="497" y="304" type="line"/>
      <point x="497" y="376" type="line"/>
      <point x="57" y="376" type="line"/>
    </contour>
    <contour>
      <point x="223" y="162" type="curve" smooth="yes"/>
      <point x="223" y="133"/>
      <point x="247" y="109"/>
      <point x="276" y="109" type="curve" smooth="yes"/>
      <point x="304" y="109"/>
      <point x="328" y="133"/>
      <point x="328" y="162" type="curve" smooth="yes"/>
      <point x="328" y="190"/>
      <point x="304" y="214"/>
      <point x="276" y="214" type="curve" smooth="yes"/>
      <point x="247" y="214"/>
      <point x="223" y="190"/>
    </contour>
  </outline>
</glyph>
<glyph name="oslash" format="1">
  <advance width="563"/>
  <unicode hex="00F8"/>
  <outline>
    <contour>
      <point x="293" y="-9" type="curve" smooth="yes"/>
      <point x="447" y="-9"/>
      <point x="533" y="106"/>
      <point x="533" y="252" type="curve" smooth="yes"/>
      <point x="533" y="397"/>
      <point x="451" y="514"/>
      <point x="293" y="514" type="curve" smooth="yes"/>
      <point x="150" y="514"/>
      <point x="56" y="397"/>
      <point x="56" y="250" type="curve" smooth="yes"/>
      <point x="56" y="106"/>
      <point x="143" y="-9"/>
    </contour>
    <contour>
      <point x="292" y="450" type="curve" smooth="yes"/>
      <point x="411" y="450"/>
      <point x="456" y="356"/>
      <point x="456" y="251" type="curve" smooth="yes"/>
      <point x="456" y="146"/>
      <point x="403" y="55"/>
      <point x="293" y="55" type="curve" smooth="yes"/>
      <point x="192" y="55"/>
      <point x="133" y="147"/>
      <point x="133" y="251" type="curve" smooth="yes"/>
      <point x="133" y="356"/>
      <point x="187" y="450"/>
    </contour>
    <contour>
      <point x="56" y="-9" type="line"/>
      <point x="138" y="-9" type="line"/>
      <point x="533" y="514" type="line"/>
      <point x="450" y="514" type="line"/>
    </contour>
  </outline>
</glyph>
<glyph name="Aogonek" format="1">
  <advance width="646"/>
  <unicode hex="0104"/>
  <outline>
    <contour>
      <point x="34" y="0" type="line"/>
      <point x="121" y="0" type="line"/>
      <point x="217" y="284" type="line" smooth="yes"/>
      <point x="313" y="567"/>
      <point x="325" y="609"/>
      <point x="325" y="609" type="curve"/>
      <point x="325" y="609"/>
      <point x="336" y="567"/>
      <point x="430" y="285" type="curve" smooth="yes"/>
      <point x="525" y="0" type="line"/>
      <point x="612" y="0" type="line"/>
      <point x="381" y="674" type="line"/>
      <point x="269" y="674" type="line"/>
    </contour>
    <contour>
      <point x="147" y="177" type="line"/>
      <point x="499" y="177" type="line"/>
      <point x="499" y="246" type="line"/>
      <point x="147" y="246" type="line"/>
    </contour>
    <contour>
      <point x="633" y="-222" type="curve"/>
      <point x="633" y="-162" type="line"/>
      <point x="616" y="-174"/>
      <point x="589" y="-184"/>
      <point x="564" y="-184" type="curve" smooth="yes"/>
      <point x="525" y="-184"/>
      <point x="500" y="-164"/>
      <point x="500" y="-125" type="curve" smooth="yes"/>
      <point x="500" y="-73"/>
      <point x="551" y="-30"/>
      <point x="612" y="0" type="curve"/>
      <point x="578" y="38" type="line"/>
      <point x="509" y="14"/>
      <point x="431" y="-49"/>
      <point x="431" y="-132" type="curve" smooth="yes"/>
      <point x="431" y="-193"/>
      <point x="473" y="-242"/>
      <point x="554" y="-242" type="curve" smooth="yes"/>
      <point x="583" y="-242"/>
      <point x="611" y="-236"/>
    </contour>
  </outline>
</glyph>
<glyph name="aogonek" format="1">
  <advance width="491"/>
  <unicode hex="0105"/>
  <outline>
    <contour>
      <point x="346" y="162" type="line"/>
      <point x="346" y="110"/>
      <point x="297" y="64"/>
      <point x="228" y="64" type="curve" smooth="yes"/>
      <point x="162" y="64"/>
      <point x="129" y="97"/>
      <point x="129" y="145" type="curve" smooth="yes"/>
      <point x="129" y="203"/>
      <point x="178" y="232"/>
      <point x="271" y="232" type="curve" smooth="yes"/>
      <point x="360" y="232" type="line"/>
      <point x="360" y="298" type="line"/>
      <point x="256" y="298" type="line" smooth="yes"/>
      <point x="128" y="298"/>
      <point x="47" y="241"/>
      <point x="47" y="142" type="curve" smooth="yes"/>
      <point x="47" y="53"/>
      <point x="111" y="-5"/>
      <point x="205" y="-5" type="curve" smooth="yes"/>
      <point x="268" y="-5"/>
      <point x="318" y="24"/>
      <point x="347" y="63" type="curve"/>
      <point x="347" y="0" type="line"/>
      <point x="425" y="0" type="line"/>
      <point x="425" y="321" type="line" smooth="yes"/>
      <point x="425" y="445"/>
      <point x="369" y="515"/>
      <point x="234" y="515" type="curve" smooth="yes"/>
      <point x="177" y="515"/>
      <point x="118" y="500"/>
      <point x="84" y="479" type="curve"/>
      <point x="84" y="402" type="line"/>
      <point x="122" y="427"/>
      <point x="179" y="444"/>
      <point x="228" y="444" type="curve" smooth="yes"/>
      <point x="317" y="444"/>
      <point x="346" y="399"/>
      <point x="346" y="323" type="curve" smooth="yes"/>
    </contour>
    <contour>
      <point x="446" y="-222" type="curve"/>
      <point x="446" y="-162" type="line"/>
      <point x="429" y="-174"/>
      <point x="402" y="-184"/>
      <point x="377" y="-184" type="curve" smooth="yes"/>
      <point x="338" y="-184"/>
      <point x="313" y="-164"/>
      <point x="313" y="-125" type="curve" smooth="yes"/>
      <point x="313" y="-73"/>
      <point x="364" y="-30"/>
      <point x="425" y="0" type="curve"/>
      <point x="395" y="38" type="line"/>
      <point x="326" y="14"/>
      <point x="244" y="-49"/>
      <point x="244" y="-132" type="curve" smooth="yes"/>
      <point x="244" y="-193"/>
      <point x="286" y="-242"/>
      <point x="367" y="-242" type="curve" smooth="yes"/>
      <point x="396" y="-242"/>
      <point x="424" y="-236"/>
    </contour>
  </outline>
</glyph>
<glyph name="Gcommaaccent" format="1">
  <advance width="670"/>
  <unicode hex="0122"/>
  <outline>
    <contour>
      <point x="578" y="553" type="line"/>
      <point x="519" y="592"/>
      <point x="449" y="607"/>
      <point x="388" y="607" type="curve" smooth="yes"/>
      <point x="238" y="607"/>
      <point x="133" y="502"/>
      <point x="133" y="338" type="curve" smooth="yes"/>
      <point x="133" y="171"/>
      <point x="232" y="70"/>
      <point x="396" y="70" type="curve" smooth="yes"/>
      <point x="487" y="70"/>
      <point x="548" y="107"/>
      <point x="579" y="132" type="curve"/>
      <point x="603" y="53" type="line"/>
      <point x="555" y="17"/>
      <point x="478" y="-8"/>
      <point x="394" y="-8" type="curve" smooth="yes"/>
      <point x="189" y="-8"/>
      <point x="48" y="121"/>
      <point x="48" y="338" type="curve" smooth="yes"/>
      <point x="48" y="544"/>
      <point x="190" y="686"/>
      <point x="381" y="686" type="curve" smooth="yes"/>
      <point x="447" y="686"/>
      <point x="520" y="674"/>
      <point x="578" y="640" type="curve"/>
    </contour>
    <contour>
      <point x="522" y="378" type="line"/>
      <point x="603" y="378" type="line"/>
      <point x="603" y="56" type="line"/>
      <point x="522" y="35" type="line"/>
    </contour>
    <contour>
      <point x="374" y="378" type="line"/>
      <point x="603" y="378" type="line"/>
      <point x="603" y="307" type="line"/>
      <point x="374" y="307" type="line"/>
    </contour>
    <contour>
      <point x="245" y="-243" type="line"/>
      <point x="310" y="-243" type="line"/>
      <point x="421" y="-51" type="line"/>
      <point x="329" y="-51" type="line"/>
    </contour>
  </outline>
</glyph>
<glyph name="gcommaaccent" format="1">
  <advance width="549"/>
  <unicode hex="0123"/>
  <outline>
    <contour>
      <point x="96" y="-161" type="line"/>
      <point x="142" y="-183"/>
      <point x="201" y="-192"/>
      <point x="253" y="-192" type="curve" smooth="yes"/>
      <point x="378" y="-192"/>
      <point x="482" y="-122"/>
      <point x="482" y="41" type="curve" smooth="yes"/>
      <point x="482" y="507" type="line"/>
      <point x="403" y="507" type="line"/>
      <point x="403" y="42" type="line" smooth="yes"/>
      <point x="403" y="-73"/>
      <point x="339" y="-119"/>
      <point x="246" y="-119" type="curve" smooth="yes"/>
      <point x="196" y="-119"/>
      <point x="139" y="-107"/>
      <point x="96" y="-82" type="curve"/>
    </contour>
    <contour>
      <point x="250" y="514" type="curve" smooth="yes"/>
      <point x="125" y="514"/>
      <point x="44" y="403"/>
      <point x="44" y="255" type="curve" smooth="yes"/>
      <point x="44" y="96"/>
      <point x="145" y="13"/>
      <point x="254" y="13" type="curve" smooth="yes"/>
      <point x="374" y="13"/>
      <point x="439" y="117"/>
      <point x="439" y="251" type="curve" smooth="yes"/>
      <point x="439" y="253"/>
      <point x="439" y="255"/>
      <point x="439" y="257" type="curve" smooth="yes"/>
      <point x="438" y="382"/>
      <point x="393" y="514"/>
    </contour>
    <contour>
      <point x="263" y="83" type="curve" smooth="yes"/>
      <point x="201" y="83"/>
      <point x="126" y="134"/>
      <point x="126" y="257" type="curve" smooth="yes"/>
      <point x="126" y="366"/>
      <point x="179" y="443"/>
      <point x="267" y="443" type="curve" smooth="yes"/>
      <point x="329" y="443"/>
      <point x="403" y="393"/>
      <point x="403" y="252" type="curve" smooth="yes"/>
      <point x="403" y="131"/>
      <point x="326" y="83"/>
    </contour>
    <contour>
      <point x="438" y="752" type="line"/>
      <point x="373" y="752" type="line"/>
      <point x="262" y="560" type="line"/>
      <point x="353" y="560" type="line"/>
    </contour>
  </outline>
</glyph>
<glyph name="imacron" format="1">
  <advance width="233"/>
  <unicode hex="012B"/>
  <outline>
    <contour>
      <point x="77" y="0" type="line"/>
      <point x="156" y="0" type="line"/>
      <point x="156" y="507" type="line"/>
      <point x="77" y="507" type="line"/>
    </contour>
    <component base="macron" xOffset="-93" yOffset="-83"/>
  </outline>
</glyph>
<glyph name="Kcommaaccent" format="1">
  <advance width="573"/>
  <unicode hex="0136"/>
  <outline>
    <contour>
      <point x="165" y="-243" type="line"/>
      <point x="230" y="-243" type="line"/>
      <point x="341" y="-51" type="line"/>
      <point x="250" y="-51" type="line"/>
    </contour>
    <contour>
      <point x="77" y="0" type="line"/>
      <point x="158" y="0" type="line"/>
      <point x="158" y="674" type="line"/>
      <point x="77" y="674" type="line"/>
    </contour>
    <contour>
      <point x="174" y="333" type="line"/>
      <point x="440" y="0" type="line"/>
      <point x="545" y="0" type="line"/>
      <point x="274" y="333" type="line"/>
    </contour>
    <contour>
      <point x="274" y="333" type="line"/>
      <point x="531" y="674" type="line"/>
      <point x="431" y="674" type="line"/>
      <point x="174" y="333" type="line"/>
    </contour>
  </outline>
</glyph>
<glyph name="kcommaaccent" format="1">
  <advance width="480"/>
  <unicode hex="0137"/>
  <outline>
    <contour>
      <point x="117" y="-243" type="line"/>
      <point x="182" y="-243" type="line"/>
      <point x="293" y="-51" type="line"/>
      <point x="202" y="-51" type="line"/>
    </contour>
    <contour>
      <point x="365" y="0" type="line"/>
      <point x="460" y="0" type="line"/>
      <point x="254" y="266" type="line"/>
      <point x="161" y="266" type="line"/>
    </contour>
    <contour>
      <point x="73" y="0" type="line"/>
      <point x="151" y="0" type="line"/>
      <point x="151" y="703" type="line"/>
      <point x="73" y="703" type="line"/>
    </contour>
    <contour>
      <point x="161" y="266" type="line"/>
      <point x="254" y="266" type="line"/>
      <point x="454" y="507" type="line"/>
      <point x="360" y="507" type="line"/>
    </contour>
  </outline>
</glyph>
<glyph name="Lcommaaccent" format="1">
  <advance width="477"/>
  <unicode hex="013B"/>
  <outline>
    <contour>
      <point x="77" y="674" type="line"/>
      <point x="77" y="0" type="line"/>
      <point x="158" y="0" type="line"/>
      <point x="158" y="674" type="line"/>
    </contour>
    <contour>
      <point x="95" y="73" type="line"/>
      <point x="95" y="0" type="line"/>
      <point x="445" y="0" type="line"/>
      <point x="445" y="73" type="line"/>
    </contour>
    <contour>
      <point x="139" y="-243" type="line"/>
      <point x="204" y="-243" type="line"/>
      <point x="315" y="-51" type="line"/>
      <point x="223" y="-51" type="line"/>
    </contour>
  </outline>
</glyph>
<glyph name="lcommaaccent" format="1">
  <advance width="233"/>
  <unicode hex="013C"/>
  <outline>
    <contour>
      <point x="77" y="0" type="line"/>
      <point x="156" y="0" type="line"/>
      <point x="156" y="707" type="line"/>
      <point x="77" y="707" type="line"/>
    </contour>
    <contour>
      <point x="-13" y="-243" type="line"/>
      <point x="52" y="-243" type="line"/>
      <point x="163" y="-51" type="line"/>
      <point x="71" y="-51" type="line"/>
    </contour>
  </outline>
</glyph>
<glyph name="Lcaron" format="1">
  <advance width="477"/>
  <unicode hex="013D"/>
  <outline>
    <contour>
      <point x="77" y="674" type="line"/>
      <point x="158" y="674" type="line"/>
      <point x="158" y="0" type="line"/>
      <point x="77" y="0" type="line"/>
    </contour>
    <contour>
      <point x="95" y="73" type="line"/>
      <point x="445" y="73" type="line"/>
      <point x="445" y="0" type="line"/>
      <point x="95" y="0" type="line"/>
    </contour>
    <contour>
      <point x="248" y="509" type="line"/>
      <point x="313" y="509" type="line"/>
      <point x="424" y="701" type="line"/>
      <point x="333" y="701" type="line"/>
    </contour>
  </outline>
</glyph>
<glyph name="lcaron" format="1">
  <advance width="259"/>
  <unicode hex="013E"/>
  <outline>
    <contour>
      <point x="77" y="0" type="line"/>
      <point x="156" y="0" type="line"/>
      <point x="156" y="707" type="line"/>
      <point x="77" y="707" type="line"/>
    </contour>
    <contour>
      <point x="223" y="515" type="line"/>
      <point x="288" y="515" type="line"/>
      <point x="399" y="707" type="line"/>
      <point x="308" y="707" type="line"/>
    </contour>
  </outline>
</glyph>
<glyph name="Lslash" format="1">
  <advance width="500"/>
  <unicode hex="0141"/>
  <outline>
    <contour>
      <point x="97" y="674" type="line"/>
      <point x="178" y="674" type="line"/>
      <point x="178" y="0" type="line"/>
      <point x="97" y="0" type="line"/>
    </contour>
    <contour>
      <point x="115" y="73" type="line"/>
      <point x="465" y="73" type="line"/>
      <point x="465" y="0" type="line"/>
      <point x="115" y="0" type="line"/>
    </contour>
    <contour>
      <point x="29" y="198" type="line"/>
      <point x="29" y="275" type="line"/>
      <point x="328" y="482" type="line"/>
      <point x="328" y="404" type="line"/>
    </contour>
  </outline>
</glyph>
<glyph name="lslash" format="1">
  <advance width="291"/>
  <unicode hex="0142"/>
  <outline>
    <contour>
      <point x="261" y="417" type="line"/>
      <point x="261" y="495" type="line"/>
      <point x="33" y="333" type="line"/>
      <point x="33" y="256" type="line"/>
    </contour>
    <contour>
      <point x="101" y="0" type="line"/>
      <point x="180" y="0" type="line"/>
      <point x="180" y="707" type="line"/>
      <point x="101" y="707" type="line"/>
    </contour>
  </outline>
</glyph>
<glyph name="Ncommaaccent" format="1">
  <advance width="673"/>
  <unicode hex="0145"/>
  <outline>
    <contour>
      <point x="218" y="-243" type="line"/>
      <point x="283" y="-243" type="line"/>
      <point x="394" y="-51" type="line"/>
      <point x="302" y="-51" type="line"/>
    </contour>
    <contour>
      <point x="77" y="0" type="line"/>
      <point x="158" y="0" type="line"/>
      <point x="158" y="284" type="line" smooth="yes"/>
      <point x="158" y="473"/>
      <point x="153" y="577"/>
      <point x="153" y="577" type="curve"/>
      <point x="153" y="577"/>
      <point x="210" y="473"/>
      <point x="325" y="282" type="curve" smooth="yes"/>
      <point x="494" y="0" type="line"/>
      <point x="596" y="0" type="line"/>
      <point x="596" y="674" type="line"/>
      <point x="515" y="674" type="line"/>
      <point x="515" y="389" type="line" smooth="yes"/>
      <point x="515" y="195"/>
      <point x="519" y="98"/>
      <point x="519" y="98" type="curve"/>
      <point x="519" y="98"/>
      <point x="465" y="195"/>
      <point x="348" y="390" type="curve" smooth="yes"/>
      <point x="179" y="674" type="line"/>
      <point x="77" y="674" type="line"/>
    </contour>
  </outline>
</glyph>
<glyph name="OE" format="1">
  <advance width="983"/>
  <unicode hex="0152"/>
  <outline>
    <contour>
      <point x="48" y="340" type="curve" smooth="yes"/>
      <point x="48" y="129"/>
      <point x="164" y="-8"/>
      <point x="346" y="-8" type="curve" smooth="yes"/>
      <point x="526" y="-8"/>
      <point x="636" y="131"/>
      <point x="636" y="340" type="curve" smooth="yes"/>
      <point x="636" y="549"/>
      <point x="529" y="687"/>
      <point x="345" y="687" type="curve" smooth="yes"/>
      <point x="160" y="687"/>
      <point x="48" y="551"/>
    </contour>
    <contour>
      <point x="133" y="340" type="curve" smooth="yes"/>
      <point x="133" y="508"/>
      <point x="209" y="611"/>
      <point x="345" y="611" type="curve" smooth="yes"/>
      <point x="484" y="611"/>
      <point x="559" y="508"/>
      <point x="559" y="340" type="curve" smooth="yes"/>
      <point x="559" y="172"/>
      <point x="484" y="69"/>
      <point x="346" y="69" type="curve" smooth="yes"/>
      <point x="215" y="69"/>
      <point x="133" y="172"/>
    </contour>
    <contour>
      <point x="577" y="0" type="line"/>
      <point x="935" y="0" type="line"/>
      <point x="935" y="71" type="line"/>
      <point x="577" y="71" type="line"/>
    </contour>
    <contour>
      <point x="559" y="0" type="line"/>
      <point x="638" y="0" type="line"/>
      <point x="638" y="674" type="line"/>
      <point x="559" y="674" type="line"/>
    </contour>
    <contour>
      <point x="577" y="301" type="line"/>
      <point x="896" y="301" type="line"/>
      <point x="896" y="372" type="line"/>
      <point x="577" y="372" type="line"/>
    </contour>
    <contour>
      <point x="577" y="603" type="line"/>
      <point x="930" y="603" type="line"/>
      <point x="930" y="674" type="line"/>
      <point x="577" y="674" type="line"/>
    </contour>
  </outline>
</glyph>
<glyph name="oe" format="1">
  <advance width="892"/>
  <unicode hex="0153"/>
  <outline>
    <contour>
      <point x="271" y="-9" type="curve" smooth="yes"/>
      <point x="420" y="-9"/>
      <point x="498" y="106"/>
      <point x="498" y="252" type="curve" smooth="yes"/>
      <point x="498" y="397"/>
      <point x="425" y="514"/>
      <point x="271" y="514" type="curve" smooth="yes"/>
      <point x="128" y="514"/>
      <point x="43" y="397"/>
      <point x="43" y="250" type="curve" smooth="yes"/>
      <point x="43" y="106"/>
      <point x="121" y="-9"/>
    </contour>
    <contour>
      <point x="271" y="444" type="curve" smooth="yes"/>
      <point x="385" y="444"/>
      <point x="419" y="353"/>
      <point x="419" y="251" type="curve" smooth="yes"/>
      <point x="419" y="149"/>
      <point x="377" y="61"/>
      <point x="272" y="61" type="curve" smooth="yes"/>
      <point x="175" y="61"/>
      <point x="125" y="150"/>
      <point x="125" y="251" type="curve" smooth="yes"/>
      <point x="125" y="353"/>
      <point x="170" y="444"/>
    </contour>
    <contour>
      <point x="470" y="220" type="line"/>
      <point x="845" y="220" type="line"/>
      <point x="848" y="236"/>
      <point x="850" y="262"/>
      <point x="850" y="275" type="curve" smooth="yes"/>
      <point x="850" y="428"/>
      <point x="777" y="513"/>
      <point x="646" y="513" type="curve" smooth="yes"/>
      <point x="521" y="513"/>
      <point x="419" y="420"/>
      <point x="419" y="252" type="curve" smooth="yes"/>
      <point x="419" y="94"/>
      <point x="527" y="-5"/>
      <point x="672" y="-5" type="curve" smooth="yes"/>
      <point x="717" y="-5"/>
      <point x="776" y="6"/>
      <point x="814" y="26" type="curve"/>
      <point x="814" y="100" type="line"/>
      <point x="779" y="76"/>
      <point x="725" y="65"/>
      <point x="680" y="65" type="curve" smooth="yes"/>
      <point x="577" y="65"/>
      <point x="498" y="128"/>
      <point x="498" y="252" type="curve" smooth="yes"/>
      <point x="498" y="386"/>
      <point x="569" y="444"/>
      <point x="646" y="444" type="curve" smooth="yes"/>
      <point x="718" y="444"/>
      <point x="770" y="398"/>
      <point x="771" y="308" type="curve" smooth="yes"/>
      <point x="771" y="307"/>
      <point x="771" y="287"/>
      <point x="771" y="286" type="curve"/>
      <point x="470" y="286" type="line"/>
    </contour>
  </outline>
</glyph>
<glyph name="rcommaaccent" format="1">
  <advance width="326"/>
  <unicode hex="0157"/>
  <outline>
    <contour>
      <point x="72" y="0" type="line"/>
      <point x="151" y="0" type="line"/>
      <point x="151" y="507" type="line"/>
      <point x="73" y="507" type="line"/>
    </contour>
    <contour>
      <point x="317" y="510" type="line"/>
      <point x="307" y="512"/>
      <point x="298" y="512"/>
      <point x="289" y="512" type="curve" smooth="yes"/>
      <point x="173" y="512"/>
      <point x="131" y="412"/>
      <point x="128" y="294" type="curve"/>
      <point x="151" y="277" type="line"/>
      <point x="151" y="358"/>
      <point x="200" y="439"/>
      <point x="274" y="439" type="curve" smooth="yes"/>
      <point x="289" y="439"/>
      <point x="302" y="437"/>
      <point x="317" y="432" type="curve"/>
    </contour>
    <contour>
      <point x="-20" y="-243" type="line"/>
      <point x="45" y="-243" type="line"/>
      <point x="156" y="-51" type="line"/>
      <point x="64" y="-51" type="line"/>
    </contour>
  </outline>
</glyph>
<glyph name="Tcedilla" format="1">
  <advance width="482"/>
  <unicode hex="0162"/>
  <outline>
    <contour>
      <point x="105" y="-243" type="line"/>
      <point x="170" y="-243" type="line"/>
      <point x="281" y="-51" type="line"/>
      <point x="189" y="-51" type="line"/>
    </contour>
    <contour>
      <point x="200" y="0" type="line"/>
      <point x="281" y="0" type="line"/>
      <point x="281" y="670" type="line"/>
      <point x="200" y="670" type="line"/>
    </contour>
    <contour>
      <point x="18" y="603" type="line"/>
      <point x="463" y="603" type="line"/>
      <point x="463" y="674" type="line"/>
      <point x="18" y="674" type="line"/>
    </contour>
  </outline>
</glyph>
<glyph name="tcedilla" format="1">
  <advance width="369"/>
  <unicode hex="0163"/>
  <outline>
    <contour>
      <point x="103" y="148" type="line"/>
      <point x="103" y="51"/>
      <point x="147" y="-5"/>
      <point x="253" y="-5" type="curve" smooth="yes"/>
      <point x="274" y="-5"/>
      <point x="307" y="2"/>
      <point x="327" y="13" type="curve"/>
      <point x="327" y="88" type="line"/>
      <point x="310" y="75"/>
      <point x="283" y="65"/>
      <point x="258" y="65" type="curve" smooth="yes"/>
      <point x="207" y="65"/>
      <point x="182" y="93"/>
      <point x="182" y="146" type="curve" smooth="yes"/>
      <point x="182" y="633" type="line"/>
      <point x="103" y="633" type="line"/>
    </contour>
    <contour>
      <point x="22" y="443" type="line"/>
      <point x="322" y="443" type="line"/>
      <point x="322" y="507" type="line"/>
      <point x="22" y="507" type="line"/>
    </contour>
    <contour>
      <point x="57" y="-243" type="line"/>
      <point x="121" y="-243" type="line"/>
      <point x="233" y="-51" type="line"/>
      <point x="141" y="-51" type="line"/>
    </contour>
  </outline>
</glyph>
<glyph name="florin" format="1">
  <advance width="392"/>
  <unicode hex="0192"/>
  <outline>
    <contour>
      <point x="413" y="600" type="line"/>
      <point x="397" y="606"/>
      <point x="378" y="610"/>
      <point x="356" y="610" type="curve" smooth="yes"/>
      <point x="304" y="610"/>
      <point x="276" y="571"/>
      <point x="263" y="496" type="curve" smooth="yes"/>
      <point x="163" y="-80" type="line" smooth="yes"/>
      <point x="144" y="-192"/>
      <point x="98" y="-257"/>
      <point x="2" y="-257" type="curve" smooth="yes"/>
      <point x="-19" y="-257"/>
      <point x="-50" y="-253"/>
      <point x="-66" y="-247" type="curve"/>
      <point x="-66" y="-175" type="line"/>
      <point x="-49" y="-182"/>
      <point x="-30" y="-186"/>
      <point x="-6" y="-186" type="curve" smooth="yes"/>
      <point x="45" y="-186"/>
      <point x="72" y="-147"/>
      <point x="86" y="-72" type="curve" smooth="yes"/>
      <point x="185" y="504" type="line" smooth="yes"/>
      <point x="204" y="616"/>
      <point x="251" y="681"/>
      <point x="347" y="681" type="curve" smooth="yes"/>
      <point x="366" y="681"/>
      <point x="396" y="678"/>
      <point x="413" y="672" type="curve"/>
    </contour>
    <contour>
      <point x="54" y="371" type="line"/>
      <point x="340" y="371" type="line"/>
      <point x="340" y="307" type="line"/>
      <point x="54" y="307" type="line"/>
    </contour>
  </outline>
</glyph>
<glyph name="Scommaaccent" format="1">
  <advance width="524"/>
  <unicode hex="0218"/>
  <outline>
    <contour>
      <point x="430" y="649" type="line"/>
      <point x="387" y="671"/>
      <point x="331" y="680"/>
      <point x="282" y="680" type="curve" smooth="yes"/>
      <point x="163" y="680"/>
      <point x="66" y="615"/>
      <point x="66" y="497" type="curve" smooth="yes"/>
      <point x="66" y="374"/>
      <point x="172" y="336"/>
      <point x="261" y="296" type="curve" smooth="yes"/>
      <point x="327" y="266"/>
      <point x="382" y="238"/>
      <point x="382" y="177" type="curve" smooth="yes"/>
      <point x="382" y="106"/>
      <point x="330" y="68"/>
      <point x="247" y="68" type="curve" smooth="yes"/>
      <point x="181" y="68"/>
      <point x="113" y="90"/>
      <point x="69" y="123" type="curve"/>
      <point x="69" y="36" type="line"/>
      <point x="117" y="8"/>
      <point x="185" y="-7"/>
      <point x="249" y="-7" type="curve" smooth="yes"/>
      <point x="372" y="-7"/>
      <point x="467" y="57"/>
      <point x="467" y="179" type="curve" smooth="yes"/>
      <point x="467" y="295"/>
      <point x="373" y="336"/>
      <point x="288" y="373" type="curve" smooth="yes"/>
      <point x="216" y="405"/>
      <point x="151" y="433"/>
      <point x="151" y="501" type="curve" smooth="yes"/>
      <point x="151" y="562"/>
      <point x="202" y="604"/>
      <point x="284" y="604" type="curve" smooth="yes"/>
      <point x="336" y="604"/>
      <point x="395" y="587"/>
      <point x="430" y="564" type="curve"/>
    </contour>
    <contour>
      <point x="136" y="-243" type="line"/>
      <point x="201" y="-243" type="line"/>
      <point x="312" y="-51" type="line"/>
      <point x="220" y="-51" type="line"/>
    </contour>
  </outline>
</glyph>
<glyph name="scommaaccent" format="1">
  <advance width="412"/>
  <unicode hex="0219"/>
  <outline>
    <contour>
      <point x="87" y="-243" type="line"/>
      <point x="152" y="-243" type="line"/>
      <point x="263" y="-51" type="line"/>
      <point x="171" y="-51" type="line"/>
    </contour>
    <contour>
      <point x="349" y="490" type="line"/>
      <point x="325" y="501"/>
      <point x="280" y="512"/>
      <point x="222" y="512" type="curve" smooth="yes"/>
      <point x="130" y="512"/>
      <point x="56" y="461"/>
      <point x="56" y="374" type="curve" smooth="yes"/>
      <point x="56" y="291"/>
      <point x="121" y="254"/>
      <point x="182" y="230" type="curve" smooth="yes"/>
      <point x="251" y="202"/>
      <point x="297" y="181"/>
      <point x="297" y="129" type="curve" smooth="yes"/>
      <point x="297" y="90"/>
      <point x="267" y="62"/>
      <point x="203" y="62" type="curve" smooth="yes"/>
      <point x="154" y="62"/>
      <point x="101" y="77"/>
      <point x="59" y="102" type="curve"/>
      <point x="59" y="25" type="line"/>
      <point x="90" y="8"/>
      <point x="147" y="-6"/>
      <point x="208" y="-6" type="curve" smooth="yes"/>
      <point x="313" y="-6"/>
      <point x="378" y="48"/>
      <point x="378" y="135" type="curve" smooth="yes"/>
      <point x="378" y="217"/>
      <point x="313" y="254"/>
      <point x="242" y="283" type="curve" smooth="yes"/>
      <point x="187" y="307"/>
      <point x="136" y="326"/>
      <point x="136" y="377" type="curve" smooth="yes"/>
      <point x="136" y="415"/>
      <point x="169" y="443"/>
      <point x="223" y="443" type="curve" smooth="yes"/>
      <point x="272" y="443"/>
      <point x="321" y="432"/>
      <point x="349" y="415" type="curve"/>
    </contour>
  </outline>
</glyph>
<glyph name="Tcommaaccent" format="1">
  <advance width="482"/>
  <unicode hex="021A"/>
  <outline>
    <contour>
      <point x="200" y="0" type="line"/>
      <point x="281" y="0" type="line"/>
      <point x="281" y="670" type="line"/>
      <point x="200" y="670" type="line"/>
    </contour>
    <contour>
      <point x="18" y="603" type="line"/>
      <point x="463" y="603" type="line"/>
      <point x="463" y="674" type="line"/>
      <point x="18" y="674" type="line"/>
    </contour>
    <contour>
      <point x="108" y="-243" type="line"/>
      <point x="173" y="-243" type="line"/>
      <point x="284" y="-51" type="line"/>
      <point x="192" y="-51" type="line"/>
    </contour>
  </outline>
</glyph>
<glyph name="circumflex" format="1">
  <advance width="421"/>
  <unicode hex="02C6"/>
  <outline>
    <contour>
      <point x="248" y="798" type="line"/>
      <point x="375" y="642" type="line"/>
      <point x="295" y="642" type="line"/>
      <point x="210" y="747" type="line"/>
      <point x="125" y="642" type="line"/>
      <point x="45" y="642" type="line"/>
      <point x="172" y="798" type="line"/>
    </contour>
  </outline>
</glyph>
<glyph name="caron" format="1">
  <advance width="421"/>
  <unicode hex="02C7"/>
  <outline>
    <contour>
      <point x="172" y="642" type="line"/>
      <point x="45" y="798" type="line"/>
      <point x="125" y="798" type="line"/>
      <point x="211" y="693" type="line"/>
      <point x="295" y="798" type="line"/>
      <point x="375" y="798" type="line"/>
      <point x="248" y="642" type="line"/>
    </contour>
  </outline>
</glyph>
<glyph name="macronmod" format="1">
  <advance width="421"/>
  <unicode hex="02C9"/>
  <outline>
    <contour>
      <point x="351" y="693" type="line"/>
      <point x="351" y="749" type="line"/>
      <point x="69" y="749" type="line"/>
      <point x="69" y="693" type="line"/>
    </contour>
  </outline>
</glyph>
<glyph name="breve" format="1">
  <advance width="421"/>
  <unicode hex="02D8"/>
  <outline>
    <contour>
      <point x="211" y="696" type="curve" smooth="yes"/>
      <point x="283" y="696"/>
      <point x="310" y="742"/>
      <point x="310" y="798" type="curve"/>
      <point x="375" y="798" type="line"/>
      <point x="375" y="705"/>
      <point x="324" y="639"/>
      <point x="211" y="639" type="curve"/>
      <point x="97" y="639"/>
      <point x="46" y="705"/>
      <point x="46" y="798" type="curve"/>
      <point x="111" y="798" type="line"/>
      <point x="111" y="742"/>
      <point x="138" y="696"/>
    </contour>
  </outline>
</glyph>
<glyph name="dotaccent" format="1">
  <advance width="421"/>
  <unicode hex="02D9"/>
  <outline>
    <contour>
      <point x="159" y="724" type="curve" smooth="yes"/>
      <point x="159" y="695"/>
      <point x="181" y="672"/>
      <point x="211" y="672" type="curve" smooth="yes"/>
      <point x="240" y="672"/>
      <point x="262" y="695"/>
      <point x="262" y="724" type="curve" smooth="yes"/>
      <point x="262" y="753"/>
      <point x="240" y="775"/>
      <point x="211" y="775" type="curve" smooth="yes"/>
      <point x="181" y="775"/>
      <point x="159" y="753"/>
    </contour>
  </outline>
</glyph>
<glyph name="ring" format="1">
  <advance width="421"/>
  <unicode hex="02DA"/>
  <outline>
    <contour>
      <point x="104" y="720" type="curve" smooth="yes"/>
      <point x="104" y="662"/>
      <point x="151" y="614"/>
      <point x="210" y="614" type="curve" smooth="yes"/>
      <point x="269" y="614"/>
      <point x="316" y="662"/>
      <point x="316" y="720" type="curve" smooth="yes"/>
      <point x="316" y="779"/>
      <point x="269" y="827"/>
      <point x="210" y="827" type="curve" smooth="yes"/>
      <point x="151" y="827"/>
      <point x="104" y="779"/>
    </contour>
    <contour>
      <point x="157" y="721" type="curve" smooth="yes"/>
      <point x="157" y="751"/>
      <point x="180" y="775"/>
      <point x="210" y="775" type="curve" smooth="yes"/>
      <point x="240" y="775"/>
      <point x="264" y="751"/>
      <point x="264" y="721" type="curve" smooth="yes"/>
      <point x="264" y="692"/>
      <point x="240" y="667"/>
      <point x="210" y="667" type="curve" smooth="yes"/>
      <point x="180" y="667"/>
      <point x="157" y="692"/>
    </contour>
  </outline>
</glyph>
<glyph name="ogonek" format="1">
  <advance width="421"/>
  <unicode hex="02DB"/>
  <outline>
    <contour>
      <point x="311" y="-212" type="curve"/>
      <point x="311" y="-151" type="line"/>
      <point x="295" y="-163"/>
      <point x="267" y="-173"/>
      <point x="243" y="-173" type="curve" smooth="yes"/>
      <point x="204" y="-173"/>
      <point x="178" y="-153"/>
      <point x="178" y="-114" type="curve" smooth="yes"/>
      <point x="178" y="-63"/>
      <point x="230" y="-19"/>
      <point x="291" y="11" type="curve"/>
      <point x="260" y="49" type="line"/>
      <point x="191" y="25"/>
      <point x="110" y="-38"/>
      <point x="110" y="-121" type="curve" smooth="yes"/>
      <point x="110" y="-183"/>
      <point x="152" y="-231"/>
      <point x="232" y="-231" type="curve" smooth="yes"/>
      <point x="261" y="-231"/>
      <point x="289" y="-225"/>
    </contour>
  </outline>
</glyph>
<glyph name="tilde" format="1">
  <advance width="421"/>
  <unicode hex="02DC"/>
  <outline>
    <contour>
      <point x="339" y="761" type="line"/>
      <point x="329" y="739"/>
      <point x="314" y="718"/>
      <point x="285" y="718" type="curve" smooth="yes"/>
      <point x="245" y="718"/>
      <point x="207" y="762"/>
      <point x="151" y="762" type="curve" smooth="yes"/>
      <point x="107" y="762"/>
      <point x="68" y="729"/>
      <point x="50" y="691" type="curve"/>
      <point x="93" y="654" type="line"/>
      <point x="110" y="684"/>
      <point x="129" y="702"/>
      <point x="161" y="702" type="curve" smooth="yes"/>
      <point x="196" y="702"/>
      <point x="239" y="658"/>
      <point x="289" y="658" type="curve" smooth="yes"/>
      <point x="330" y="658"/>
      <point x="367" y="682"/>
      <point x="388" y="727" type="curve"/>
    </contour>
  </outline>
</glyph>
<glyph name="hungarumlaut" format="1">
  <advance width="421"/>
  <unicode hex="02DD"/>
  <outline>
    <contour>
      <point x="191" y="642" type="line"/>
      <point x="252" y="642" type="line"/>
      <point x="386" y="798" type="line"/>
      <point x="292" y="798" type="line"/>
    </contour>
    <contour>
      <point x="35" y="642" type="line"/>
      <point x="96" y="642" type="line"/>
      <point x="223" y="798" type="line"/>
      <point x="131" y="798" type="line"/>
    </contour>
  </outline>
</glyph>
<glyph name="pi" format="1">
  <advance width="582"/>
  <unicode hex="03C0"/>
  <outline>
    <contour>
      <point x="390" y="0" type="line"/>
      <point x="469" y="0" type="line"/>
      <point x="469" y="467" type="line"/>
      <point x="390" y="467" type="line"/>
    </contour>
    <contour>
      <point x="120" y="162" type="line"/>
      <point x="120" y="86"/>
      <point x="98" y="69"/>
      <point x="41" y="69" type="curve"/>
      <point x="41" y="0" type="line"/>
      <point x="135" y="0"/>
      <point x="199" y="36"/>
      <point x="199" y="165" type="curve" smooth="yes"/>
      <point x="199" y="467" type="line"/>
      <point x="120" y="467" type="line"/>
    </contour>
    <contour>
      <point x="24" y="443" type="line"/>
      <point x="564" y="443" type="line"/>
      <point x="564" y="507" type="line"/>
      <point x="24" y="507" type="line"/>
    </contour>
  </outline>
</glyph>
<glyph name="dvCandrabindu" format="1">
  <advance width="0"/>
  <unicode hex="0901"/>
  <outline>
    <contour>
      <point x="-94" y="642" type="move" name="_abvm.candra"/>
    </contour>
    <contour>
      <point x="-136" y="739" type="curve" smooth="yes"/>
      <point x="-42" y="739"/>
      <point x="44" y="791"/>
      <point x="44" y="896" type="curve"/>
      <point x="-33" y="896" type="line"/>
      <point x="-33" y="843"/>
      <point x="-70" y="801"/>
      <point x="-136" y="801" type="curve" smooth="yes"/>
      <point x="-202" y="801"/>
      <point x="-238" y="843"/>
      <point x="-238" y="896" type="curve"/>
      <point x="-316" y="896" type="line"/>
      <point x="-316" y="788"/>
      <point x="-232" y="739"/>
    </contour>
    <contour>
      <point x="-186" y="951" type="curve" smooth="yes"/>
      <point x="-186" y="921"/>
      <point x="-165" y="900"/>
      <point x="-135" y="900" type="curve" smooth="yes"/>
      <point x="-106" y="900"/>
      <point x="-83" y="921"/>
      <point x="-83" y="951" type="curve" smooth="yes"/>
      <point x="-83" y="980"/>
      <point x="-106" y="1003"/>
      <point x="-135" y="1003" type="curve" smooth="yes"/>
      <point x="-165" y="1003"/>
      <point x="-186" y="980"/>
    </contour>
  </outline>
</glyph>
<glyph name="dvAnusvara" format="1">
  <advance width="0"/>
  <unicode hex="0902"/>
  <outline>
    <contour>
      <point x="-94" y="642" type="move" name="_abvm.bindu"/>
    </contour>
    <contour>
      <point x="-189" y="783" type="curve" smooth="yes"/>
      <point x="-189" y="752"/>
      <point x="-166" y="730"/>
      <point x="-135" y="730" type="curve" smooth="yes"/>
      <point x="-104" y="730"/>
      <point x="-80" y="752"/>
      <point x="-80" y="783" type="curve" smooth="yes"/>
      <point x="-80" y="813"/>
      <point x="-104" y="838"/>
      <point x="-135" y="838" type="curve" smooth="yes"/>
      <point x="-166" y="838"/>
      <point x="-189" y="813"/>
    </contour>
  </outline>
</glyph>
<glyph name="dvVisarga" format="1">
  <advance width="298"/>
  <unicode hex="0903"/>
  <outline>
    <contour>
      <point x="60" y="484" type="curve" smooth="yes"/>
      <point x="60" y="453"/>
      <point x="82" y="430"/>
      <point x="113" y="430" type="curve" smooth="yes"/>
      <point x="144" y="430"/>
      <point x="168" y="453"/>
      <point x="168" y="484" type="curve" smooth="yes"/>
      <point x="168" y="514"/>
      <point x="144" y="538"/>
      <point x="113" y="538" type="curve" smooth="yes"/>
      <point x="82" y="538"/>
      <point x="60" y="514"/>
    </contour>
    <contour>
      <point x="60" y="156" type="curve" smooth="yes"/>
      <point x="60" y="125"/>
      <point x="82" y="103"/>
      <point x="113" y="103" type="curve" smooth="yes"/>
      <point x="144" y="103"/>
      <point x="168" y="125"/>
      <point x="168" y="156" type="curve" smooth="yes"/>
      <point x="168" y="186"/>
      <point x="144" y="211"/>
      <point x="113" y="211" type="curve" smooth="yes"/>
      <point x="82" y="211"/>
      <point x="60" y="186"/>
    </contour>
  </outline>
</glyph>
<glyph name="dvA" format="1">
  <advance width="659"/>
  <unicode hex="0905"/>
  <outline>
    <contour>
      <point x="425" y="642" type="move" name="abvm.bindu"/>
    </contour>
    <contour>
      <point x="425" y="642" type="move" name="abvm.candra"/>
    </contour>
    <contour>
      <point x="487" y="586" type="line"/>
      <point x="487" y="0" type="line"/>
      <point x="565" y="0" type="line"/>
      <point x="565" y="586" type="line"/>
    </contour>
    <contour>
      <point x="30" y="96" type="line"/>
      <point x="63" y="82"/>
      <point x="107" y="72"/>
      <point x="152" y="72" type="curve" smooth="yes"/>
      <point x="279" y="72"/>
      <point x="350" y="142"/>
      <point x="350" y="238" type="curve" smooth="yes"/>
      <point x="350" y="312"/>
      <point x="304" y="363"/>
      <point x="238" y="373" type="curve"/>
      <point x="290" y="387"/>
      <point x="330" y="430"/>
      <point x="330" y="500" type="curve" smooth="yes"/>
      <point x="330" y="584"/>
      <point x="271" y="641"/>
      <point x="159" y="641" type="curve" smooth="yes"/>
      <point x="122" y="641"/>
      <point x="85" y="633"/>
      <point x="61" y="623" type="curve"/>
      <point x="61" y="549" type="line"/>
      <point x="83" y="561"/>
      <point x="121" y="573"/>
      <point x="158" y="573" type="curve" smooth="yes"/>
      <point x="223" y="573"/>
      <point x="252" y="543"/>
      <point x="252" y="491" type="curve" smooth="yes"/>
      <point x="252" y="441"/>
      <point x="218" y="406"/>
      <point x="145" y="406" type="curve" smooth="yes"/>
      <point x="113" y="406" type="line"/>
      <point x="113" y="336" type="line"/>
      <point x="147" y="336" type="line" smooth="yes"/>
      <point x="233" y="336"/>
      <point x="272" y="300"/>
      <point x="272" y="245" type="curve" smooth="yes"/>
      <point x="272" y="165"/>
      <point x="205" y="139"/>
      <point x="151" y="139" type="curve" smooth="yes"/>
      <point x="102" y="139"/>
      <point x="68" y="151"/>
      <point x="30" y="170" type="curve"/>
    </contour>
    <contour>
      <point x="396" y="575" type="line"/>
      <point x="681" y="575" type="line"/>
      <point x="681" y="642" type="line"/>
      <point x="396" y="642" type="line"/>
    </contour>
    <contour>
      <point x="522" y="260" type="line"/>
      <point x="522" y="328" type="line"/>
      <point x="303" y="328" type="line"/>
      <point x="303" y="260" type="line"/>
    </contour>
  </outline>
</glyph>
<glyph name="dvAA" format="1">
  <advance width="924"/>
  <unicode hex="0906"/>
  <outline>
    <contour>
      <point x="704" y="642" type="move" name="abvm.bindu"/>
    </contour>
    <contour>
      <point x="704" y="642" type="move" name="abvm.candra"/>
    </contour>
    <component base="dvA"/>
    <component base="dvmAA" xOffset="658"/>
  </outline>
</glyph>
<glyph name="dvI" format="1">
  <advance width="481"/>
  <unicode hex="0907"/>
  <outline>
    <contour>
      <point x="288" y="642" type="move" name="abvm.bindu"/>
    </contour>
    <contour>
      <point x="288" y="642" type="move" name="abvm.candra"/>
    </contour>
    <contour>
      <point x="451" y="158" type="curve" smooth="yes"/>
      <point x="451" y="250"/>
      <point x="388" y="293"/>
      <point x="270" y="300" type="curve" smooth="yes"/>
      <point x="181" y="306"/>
      <point x="145" y="323"/>
      <point x="145" y="364" type="curve" smooth="yes"/>
      <point x="145" y="404"/>
      <point x="180" y="426"/>
      <point x="235" y="426" type="curve" smooth="yes"/>
      <point x="395" y="426" type="line"/>
      <point x="379" y="493" type="line"/>
      <point x="233" y="493" type="line" smooth="yes"/>
      <point x="135" y="493"/>
      <point x="66" y="445"/>
      <point x="66" y="362" type="curve" smooth="yes"/>
      <point x="66" y="267"/>
      <point x="154" y="239"/>
      <point x="257" y="234" type="curve" smooth="yes"/>
      <point x="341" y="229"/>
      <point x="373" y="202"/>
      <point x="373" y="157" type="curve" smooth="yes"/>
      <point x="373" y="106"/>
      <point x="334" y="71"/>
      <point x="280" y="71" type="curve" smooth="yes"/>
      <point x="215" y="71"/>
      <point x="158" y="113"/>
      <point x="137" y="168" type="curve"/>
      <point x="128" y="71" type="line"/>
      <point x="162" y="30"/>
      <point x="221" y="6"/>
      <point x="283" y="6" type="curve" smooth="yes"/>
      <point x="381" y="6"/>
      <point x="451" y="73"/>
    </contour>
    <contour>
      <point x="-22" y="575" type="line"/>
      <point x="316" y="575" type="line"/>
      <point x="316" y="463" type="line"/>
      <point x="395" y="426" type="line"/>
      <point x="395" y="575" type="line"/>
      <point x="503" y="575" type="line"/>
      <point x="503" y="642" type="line"/>
      <point x="-22" y="642" type="line"/>
    </contour>
    <contour>
      <point x="66" y="-60" type="line"/>
      <point x="143" y="-60" type="line"/>
      <point x="143" y="111" type="line"/>
      <point x="137" y="168" type="line"/>
      <point x="66" y="168" type="line"/>
    </contour>
  </outline>
</glyph>
<glyph name="dvII" format="1">
  <advance width="481"/>
  <unicode hex="0908"/>
  <outline>
    <contour>
      <point x="409" y="805" type="curve" smooth="yes"/>
      <point x="435" y="805"/>
      <point x="459" y="798"/>
      <point x="476" y="790" type="curve"/>
      <point x="476" y="861" type="line"/>
      <point x="457" y="870"/>
      <point x="432" y="875"/>
      <point x="405" y="875" type="curve" smooth="yes"/>
      <point x="314" y="875"/>
      <point x="260" y="812"/>
      <point x="260" y="737" type="curve" smooth="yes"/>
      <point x="260" y="685"/>
      <point x="283" y="648"/>
      <point x="305" y="631" type="curve"/>
      <point x="389" y="631" type="line"/>
      <point x="369" y="646"/>
      <point x="339" y="689"/>
      <point x="339" y="731" type="curve" smooth="yes"/>
      <point x="339" y="775"/>
      <point x="365" y="805"/>
    </contour>
    <contour>
      <point x="451" y="158" type="curve" smooth="yes"/>
      <point x="451" y="250"/>
      <point x="388" y="293"/>
      <point x="270" y="300" type="curve" smooth="yes"/>
      <point x="181" y="306"/>
      <point x="145" y="323"/>
      <point x="145" y="364" type="curve" smooth="yes"/>
      <point x="145" y="404"/>
      <point x="180" y="426"/>
      <point x="235" y="426" type="curve" smooth="yes"/>
      <point x="393" y="426" type="line"/>
      <point x="377" y="493" type="line"/>
      <point x="233" y="493" type="line" smooth="yes"/>
      <point x="135" y="493"/>
      <point x="66" y="445"/>
      <point x="66" y="362" type="curve" smooth="yes"/>
      <point x="66" y="267"/>
      <point x="154" y="239"/>
      <point x="257" y="234" type="curve" smooth="yes"/>
      <point x="341" y="229"/>
      <point x="373" y="202"/>
      <point x="373" y="157" type="curve" smooth="yes"/>
      <point x="373" y="106"/>
      <point x="334" y="71"/>
      <point x="280" y="71" type="curve" smooth="yes"/>
      <point x="215" y="71"/>
      <point x="158" y="113"/>
      <point x="137" y="168" type="curve"/>
      <point x="128" y="71" type="line"/>
      <point x="162" y="30"/>
      <point x="221" y="6"/>
      <point x="283" y="6" type="curve" smooth="yes"/>
      <point x="381" y="6"/>
      <point x="451" y="73"/>
    </contour>
    <contour>
      <point x="-22" y="575" type="line"/>
      <point x="314" y="575" type="line"/>
      <point x="314" y="463" type="line"/>
      <point x="393" y="426" type="line"/>
      <point x="393" y="575" type="line"/>
      <point x="503" y="575" type="line"/>
      <point x="503" y="642" type="line"/>
      <point x="-22" y="642" type="line"/>
    </contour>
    <contour>
      <point x="66" y="-60" type="line"/>
      <point x="143" y="-60" type="line"/>
      <point x="143" y="111" type="line"/>
      <point x="137" y="168" type="line"/>
      <point x="66" y="168" type="line"/>
    </contour>
  </outline>
</glyph>
<glyph name="dvU" format="1">
  <advance width="428"/>
  <unicode hex="0909"/>
  <outline>
    <contour>
      <point x="257" y="642" type="move" name="abvm.bindu"/>
    </contour>
    <contour>
      <point x="257" y="642" type="move" name="abvm.candra"/>
    </contour>
    <contour>
      <point x="451" y="575" type="line"/>
      <point x="451" y="642" type="line"/>
      <point x="-22" y="642" type="line"/>
      <point x="-22" y="575" type="line"/>
    </contour>
    <contour>
      <point x="217" y="588" type="line"/>
      <point x="248" y="571"/>
      <point x="277" y="528"/>
      <point x="277" y="482" type="curve" smooth="yes"/>
      <point x="277" y="418"/>
      <point x="243" y="379"/>
      <point x="157" y="379" type="curve" smooth="yes"/>
      <point x="111" y="379" type="line"/>
      <point x="111" y="311" type="line"/>
      <point x="157" y="311" type="line" smooth="yes"/>
      <point x="248" y="311"/>
      <point x="311" y="271"/>
      <point x="311" y="201" type="curve" smooth="yes"/>
      <point x="311" y="121"/>
      <point x="248" y="86"/>
      <point x="162" y="86" type="curve" smooth="yes"/>
      <point x="108" y="86"/>
      <point x="65" y="100"/>
      <point x="30" y="117" type="curve"/>
      <point x="30" y="45" type="line"/>
      <point x="70" y="30"/>
      <point x="115" y="19"/>
      <point x="168" y="19" type="curve" smooth="yes"/>
      <point x="313" y="19"/>
      <point x="390" y="93"/>
      <point x="390" y="196" type="curve" smooth="yes"/>
      <point x="390" y="289"/>
      <point x="318" y="340"/>
      <point x="252" y="346" type="curve"/>
      <point x="313" y="363"/>
      <point x="356" y="407"/>
      <point x="356" y="482" type="curve" smooth="yes"/>
      <point x="356" y="525"/>
      <point x="336" y="567"/>
      <point x="306" y="588" type="curve"/>
    </contour>
  </outline>
</glyph>
<glyph name="dvUU" format="1">
  <advance width="693"/>
  <unicode hex="090A"/>
  <outline>
    <contour>
      <point x="402" y="642" type="move" name="abvm.bindu"/>
    </contour>
    <contour>
      <point x="402" y="642" type="move" name="abvm.candra"/>
    </contour>
    <contour>
      <point x="465" y="33" type="line"/>
      <point x="471" y="31"/>
      <point x="480" y="30"/>
      <point x="488" y="30" type="curve" smooth="yes"/>
      <point x="598" y="30"/>
      <point x="665" y="111"/>
      <point x="665" y="223" type="curve" smooth="yes"/>
      <point x="665" y="330"/>
      <point x="606" y="404"/>
      <point x="489" y="404" type="curve" smooth="yes"/>
      <point x="414" y="404"/>
      <point x="346" y="346"/>
      <point x="342" y="266" type="curve"/>
      <point x="390" y="201" type="line"/>
      <point x="390" y="272"/>
      <point x="424" y="338"/>
      <point x="490" y="338" type="curve" smooth="yes"/>
      <point x="557" y="338"/>
      <point x="587" y="288"/>
      <point x="587" y="222" type="curve" smooth="yes"/>
      <point x="587" y="141"/>
      <point x="550" y="96"/>
      <point x="482" y="96" type="curve" smooth="yes"/>
      <point x="477" y="96"/>
      <point x="470" y="96"/>
      <point x="465" y="98" type="curve"/>
    </contour>
    <contour>
      <point x="217" y="588" type="line"/>
      <point x="248" y="571"/>
      <point x="277" y="528"/>
      <point x="277" y="482" type="curve" smooth="yes"/>
      <point x="277" y="418"/>
      <point x="243" y="379"/>
      <point x="157" y="379" type="curve" smooth="yes"/>
      <point x="111" y="379" type="line"/>
      <point x="111" y="311" type="line"/>
      <point x="157" y="311" type="line" smooth="yes"/>
      <point x="248" y="311"/>
      <point x="311" y="271"/>
      <point x="311" y="201" type="curve" smooth="yes"/>
      <point x="311" y="121"/>
      <point x="248" y="86"/>
      <point x="162" y="86" type="curve" smooth="yes"/>
      <point x="108" y="86"/>
      <point x="65" y="100"/>
      <point x="30" y="117" type="curve"/>
      <point x="30" y="45" type="line"/>
      <point x="70" y="30"/>
      <point x="115" y="19"/>
      <point x="168" y="19" type="curve" smooth="yes"/>
      <point x="313" y="19"/>
      <point x="390" y="93"/>
      <point x="390" y="196" type="curve" smooth="yes"/>
      <point x="390" y="289"/>
      <point x="318" y="340"/>
      <point x="252" y="346" type="curve"/>
      <point x="313" y="363"/>
      <point x="356" y="407"/>
      <point x="356" y="482" type="curve" smooth="yes"/>
      <point x="356" y="525"/>
      <point x="336" y="567"/>
      <point x="306" y="588" type="curve"/>
    </contour>
    <contour>
      <point x="714" y="575" type="line"/>
      <point x="714" y="642" type="line"/>
      <point x="-22" y="642" type="line"/>
      <point x="-22" y="575" type="line"/>
    </contour>
  </outline>
</glyph>
<glyph name="dvvR" format="1">
  <advance width="817"/>
  <unicode hex="090B"/>
  <outline>
    <contour>
      <point x="442" y="642" type="move" name="abvm.bindu"/>
    </contour>
    <contour>
      <point x="442" y="642" type="move" name="abvm.candra"/>
    </contour>
    <contour>
      <point x="840" y="575" type="line"/>
      <point x="840" y="642" type="line"/>
      <point x="-22" y="642" type="line"/>
      <point x="-22" y="575" type="line"/>
    </contour>
    <contour>
      <point x="442" y="0" type="line"/>
      <point x="442" y="586" type="line"/>
      <point x="363" y="586" type="line"/>
      <point x="363" y="0" type="line"/>
    </contour>
    <contour>
      <point x="654" y="485" type="line"/>
      <point x="582" y="485" type="line"/>
      <point x="582" y="390" type="line" smooth="yes"/>
      <point x="582" y="326"/>
      <point x="613" y="275"/>
      <point x="688" y="275" type="curve"/>
      <point x="742" y="310" type="line"/>
      <point x="680" y="310"/>
      <point x="654" y="338"/>
      <point x="654" y="394" type="curve" smooth="yes"/>
    </contour>
    <contour>
      <point x="791" y="126" type="line"/>
      <point x="763" y="111"/>
      <point x="728" y="103"/>
      <point x="699" y="103" type="curve" smooth="yes"/>
      <point x="656" y="103"/>
      <point x="617" y="123"/>
      <point x="617" y="169" type="curve" smooth="yes"/>
      <point x="617" y="216"/>
      <point x="653" y="245"/>
      <point x="714" y="245" type="curve" smooth="yes"/>
      <point x="751" y="245" type="line"/>
      <point x="751" y="310" type="line"/>
      <point x="703" y="310" type="line"/>
      <point x="691" y="295" type="line"/>
      <point x="597" y="295"/>
      <point x="540" y="239"/>
      <point x="540" y="166" type="curve" smooth="yes"/>
      <point x="540" y="79"/>
      <point x="614" y="38"/>
      <point x="693" y="38" type="curve" smooth="yes"/>
      <point x="729" y="38"/>
      <point x="764" y="45"/>
      <point x="791" y="59" type="curve"/>
    </contour>
    <contour>
      <point x="419" y="257" type="line"/>
      <point x="635" y="384" type="line"/>
      <point x="596" y="436" type="line"/>
      <point x="419" y="334" type="line"/>
    </contour>
    <contour>
      <point x="134" y="387" type="curve"/>
      <point x="229" y="387"/>
      <point x="261" y="318"/>
      <point x="279" y="239" type="curve"/>
      <point x="343" y="276" type="line"/>
      <point x="313" y="406"/>
      <point x="234" y="460"/>
      <point x="138" y="460" type="curve" smooth="yes"/>
      <point x="103" y="460"/>
      <point x="67" y="453"/>
      <point x="39" y="440" type="curve"/>
      <point x="39" y="365" type="line"/>
      <point x="66" y="378"/>
      <point x="91" y="387"/>
    </contour>
    <contour>
      <point x="390" y="326" type="line"/>
      <point x="51" y="124" type="line"/>
      <point x="51" y="43" type="line"/>
      <point x="390" y="247" type="line"/>
    </contour>
  </outline>
</glyph>
